<?xml version="1.0" encoding="utf-8"?>
<!-- Generator: Adobe Illustrator 24.0.0, SVG Export Plug-In . SVG Version: 6.00 Build 0)  -->
<svg version="1.1" id="Layer_1" xmlns="http://www.w3.org/2000/svg" xmlns:xlink="http://www.w3.org/1999/xlink" x="0px" y="0px"
	 viewBox="0 0 295 122" style="enable-background:new 0 0 295 122;" xml:space="preserve">
<style type="text/css">
	.st0{fill:#FFFFFF;}
	.st1{fill:#FF0000;}
</style>
<g>
	<g>
		<g>
			<g>
				<polygon class="st1" points="31.6,6.86 31.6,23.57 66.87,45.91 66.87,114.87 78.84,114.87 78.84,36.77 				"/>
				<polygon class="st1" points="19.63,32.72 31.6,40.3 31.6,23.57 19.63,15.99 				"/>
				<polygon class="st1" points="5.15,114.87 19.63,114.87 19.63,32.72 5.15,23.55 				"/>
				<polygon class="st1" points="52.38,114.87 52.38,53.46 31.6,40.3 31.6,114.87 				"/>
			</g>
		</g>
	</g>
	<g>
		<path d="M111.33,65.42c0,2.29-0.31,4.36-0.93,6.2c-0.62,1.84-1.54,3.41-2.76,4.71c-1.22,1.3-2.75,2.29-4.58,2.99
			c-1.83,0.69-3.96,1.04-6.38,1.04c-1.11,0-2.2-0.06-3.27-0.18c-1.07-0.12-2.19-0.31-3.36-0.58l0.43-4.51
			c0.04-0.41,0.21-0.75,0.51-1c0.3-0.25,0.73-0.38,1.31-0.38c0.35,0,0.81,0.07,1.37,0.2c0.56,0.13,1.28,0.2,2.14,0.2
			c1.17,0,2.21-0.15,3.11-0.46c0.9-0.31,1.66-0.8,2.27-1.48c0.61-0.68,1.06-1.55,1.37-2.63c0.31-1.08,0.46-2.39,0.46-3.93v-28.2h8.3
			V65.42z"/>
		<path d="M133.41,50.54c2.36,0,4.51,0.35,6.43,1.04c1.92,0.7,3.56,1.68,4.92,2.96s2.41,2.84,3.15,4.68
			c0.74,1.84,1.11,3.9,1.11,6.17c0,2.29-0.37,4.36-1.11,6.2c-0.74,1.84-1.79,3.41-3.15,4.71s-3,2.29-4.92,2.99
			c-1.92,0.69-4.07,1.04-6.43,1.04c-2.36,0-4.51-0.35-6.45-1.04c-1.93-0.7-3.58-1.69-4.95-2.99c-1.37-1.3-2.43-2.86-3.18-4.71
			c-0.75-1.84-1.13-3.91-1.13-6.2c0-2.27,0.37-4.33,1.13-6.17c0.75-1.84,1.81-3.4,3.18-4.68c1.37-1.28,3.02-2.26,4.95-2.96
			C128.9,50.89,131.05,50.54,133.41,50.54z M133.41,74.97c2.63,0,4.58-0.81,5.84-2.42c1.26-1.62,1.9-3.98,1.9-7.1
			c0-3.12-0.63-5.49-1.9-7.13c-1.26-1.63-3.21-2.45-5.84-2.45c-2.67,0-4.65,0.82-5.92,2.47c-1.27,1.64-1.91,4.02-1.91,7.11
			s0.64,5.46,1.91,7.09C128.76,74.16,130.74,74.97,133.41,74.97z"/>
		<path d="M155.06,79.9V37.32h7.62v17.22c1.25-1.22,2.67-2.19,4.26-2.92c1.58-0.72,3.43-1.08,5.55-1.08c1.73,0,3.3,0.32,4.73,0.97
			c1.43,0.65,2.66,1.59,3.7,2.83c1.04,1.24,1.84,2.77,2.41,4.59c0.57,1.82,0.85,3.92,0.85,6.28c0,2.16-0.32,4.16-0.96,6
			c-0.64,1.84-1.55,3.44-2.73,4.79c-1.18,1.35-2.61,2.41-4.29,3.17s-3.55,1.14-5.63,1.14c-0.97,0-1.85-0.09-2.65-0.27
			c-0.8-0.18-1.53-0.43-2.19-0.75c-0.66-0.32-1.27-0.71-1.83-1.17c-0.57-0.46-1.11-0.97-1.62-1.54l-0.34,1.94
			c-0.12,0.49-0.33,0.84-0.63,1.04c-0.3,0.21-0.7,0.31-1.22,0.31H155.06z M169.86,55.95c-1.58,0-2.93,0.31-4.06,0.92
			c-1.12,0.61-2.16,1.47-3.13,2.58v12.96c0.86,0.98,1.8,1.66,2.82,2.04c1.02,0.39,2.12,0.58,3.32,0.58c1.15,0,2.19-0.2,3.11-0.59
			c0.93-0.39,1.71-1,2.36-1.8c0.65-0.81,1.15-1.83,1.5-3.06c0.35-1.23,0.52-2.68,0.52-4.35c0-1.69-0.15-3.12-0.45-4.3
			c-0.3-1.17-0.72-2.13-1.28-2.86c-0.56-0.73-1.23-1.27-2.02-1.61C171.77,56.12,170.87,55.95,169.86,55.95z"/>
		<path d="M214.92,79.9h-3.42c-0.72,0-1.29-0.1-1.7-0.3c-0.41-0.2-0.72-0.6-0.93-1.2l-0.68-2.06c-0.8,0.66-1.59,1.24-2.36,1.73
			c-0.77,0.5-1.57,0.92-2.39,1.25c-0.82,0.34-1.7,0.59-2.62,0.76c-0.93,0.17-1.95,0.25-3.08,0.25c-1.34,0-2.57-0.17-3.7-0.49
			c-1.13-0.33-2.1-0.82-2.91-1.48c-0.81-0.66-1.44-1.48-1.9-2.46c-0.45-0.98-0.68-2.12-0.68-3.42c0-1.09,0.31-2.17,0.94-3.24
			c0.63-1.06,1.67-2.03,3.13-2.88c1.46-0.86,3.4-1.57,5.83-2.13c2.43-0.57,5.44-0.85,9.04-0.85v-1.7c0-1.95-0.45-3.39-1.34-4.33
			c-0.89-0.94-2.19-1.4-3.9-1.4c-1.23,0-2.26,0.13-3.08,0.39c-0.82,0.26-1.54,0.56-2.14,0.89c-0.61,0.33-1.17,0.62-1.68,0.89
			c-0.51,0.26-1.08,0.39-1.7,0.39c-0.51,0-0.96-0.12-1.33-0.37c-0.37-0.24-0.67-0.54-0.89-0.9l-1.39-2.23
			c3.64-3.04,8.03-4.56,13.17-4.56c1.85,0,3.5,0.28,4.95,0.83c1.45,0.55,2.68,1.32,3.68,2.31c1.01,0.99,1.77,2.16,2.3,3.54
			c0.52,1.37,0.79,2.87,0.79,4.51V79.9z M200.11,75.57c0.78,0,1.5-0.06,2.16-0.19c0.66-0.13,1.28-0.32,1.87-0.58
			c0.59-0.26,1.15-0.58,1.7-0.96c0.54-0.38,1.09-0.83,1.65-1.35v-4.84c-2.22,0-4.08,0.13-5.57,0.38c-1.49,0.26-2.69,0.58-3.59,0.98
			c-0.9,0.4-1.55,0.86-1.93,1.39c-0.38,0.53-0.57,1.11-0.57,1.73c0,1.23,0.4,2.11,1.19,2.64C197.81,75.3,198.84,75.57,200.11,75.57z
			"/>
		<path d="M222.41,79.9V37.32h7.62v16.8c1.23-1.07,2.59-1.93,4.07-2.59c1.48-0.66,3.22-0.99,5.21-0.99c1.73,0,3.26,0.27,4.6,0.8
			c1.34,0.54,2.45,1.29,3.35,2.25c0.89,0.97,1.57,2.12,2.04,3.47c0.46,1.34,0.69,2.82,0.69,4.44v18.4h-7.62V61.5
			c0-1.77-0.45-3.13-1.34-4.1c-0.89-0.97-2.24-1.45-4.02-1.45c-1.32,0-2.55,0.27-3.7,0.82c-1.15,0.55-2.24,1.29-3.27,2.23V79.9
			H222.41z"/>
		<path d="M260.59,36.74c0.72,1.05,1.25,2.1,1.59,3.16c0.34,1.05,0.51,2.1,0.51,3.16c0,1.88-0.52,3.67-1.56,5.38
			c-1.04,1.71-2.53,3.29-4.49,4.73l-2.37-1.32c-0.21-0.11-0.35-0.25-0.43-0.41c-0.08-0.16-0.12-0.31-0.12-0.46
			c0-0.36,0.13-0.66,0.4-0.9c0.27-0.28,0.55-0.61,0.85-0.97c0.3-0.37,0.57-0.77,0.82-1.21c0.25-0.44,0.45-0.93,0.6-1.45
			c0.15-0.53,0.23-1.09,0.23-1.69c0-0.64-0.11-1.32-0.34-2.04c-0.23-0.72-0.61-1.49-1.14-2.3c-0.19-0.24-0.28-0.5-0.28-0.76
			c0-0.6,0.38-1.02,1.14-1.27L260.59,36.74z"/>
		<path d="M287.79,56.63c-0.21,0.3-0.42,0.51-0.65,0.63c-0.23,0.12-0.51,0.18-0.86,0.18c-0.37,0-0.77-0.09-1.19-0.28
			c-0.42-0.19-0.91-0.4-1.47-0.63c-0.55-0.23-1.19-0.45-1.9-0.63c-0.71-0.19-1.55-0.28-2.51-0.28c-1.5,0-2.68,0.29-3.55,0.87
			c-0.86,0.58-1.3,1.34-1.3,2.28c0,0.62,0.22,1.14,0.66,1.56c0.44,0.42,1.03,0.79,1.76,1.11c0.73,0.32,1.56,0.61,2.48,0.86
			c0.93,0.25,1.87,0.53,2.84,0.83c0.97,0.3,1.91,0.64,2.84,1.03c0.93,0.38,1.75,0.87,2.48,1.47c0.73,0.59,1.32,1.3,1.76,2.13
			c0.44,0.83,0.66,1.82,0.66,2.99c0,1.39-0.28,2.67-0.83,3.85c-0.55,1.17-1.37,2.19-2.44,3.04c-1.07,0.86-2.39,1.52-3.96,2
			c-1.57,0.48-3.38,0.72-5.41,0.72c-1.09,0-2.15-0.09-3.19-0.27c-1.04-0.18-2.04-0.43-2.99-0.75c-0.96-0.32-1.84-0.7-2.65-1.13
			c-0.81-0.43-1.53-0.9-2.14-1.41l1.76-2.65c0.23-0.32,0.49-0.56,0.8-0.73c0.31-0.17,0.7-0.25,1.17-0.25c0.47,0,0.92,0.12,1.34,0.37
			c0.42,0.24,0.91,0.51,1.46,0.79c0.56,0.28,1.21,0.54,1.96,0.79c0.75,0.24,1.7,0.37,2.85,0.37c0.9,0,1.68-0.1,2.33-0.3
			c0.65-0.2,1.18-0.46,1.6-0.78c0.42-0.32,0.73-0.69,0.93-1.11c0.2-0.42,0.29-0.86,0.29-1.31c0-0.68-0.22-1.23-0.66-1.66
			c-0.44-0.43-1.03-0.81-1.76-1.13c-0.73-0.32-1.56-0.61-2.5-0.86c-0.94-0.25-1.89-0.53-2.87-0.83c-0.98-0.3-1.93-0.65-2.87-1.06
			c-0.94-0.4-1.77-0.92-2.5-1.54c-0.73-0.62-1.32-1.38-1.76-2.28c-0.44-0.9-0.66-1.99-0.66-3.27c0-1.18,0.26-2.31,0.77-3.38
			c0.51-1.07,1.27-2.01,2.27-2.8c1-0.8,2.24-1.44,3.73-1.92c1.49-0.48,3.21-0.72,5.17-0.72c2.18,0,4.16,0.33,5.95,0.99
			c1.79,0.66,3.28,1.52,4.47,2.59L287.79,56.63z"/>
		<path d="M100.75,88.79c-0.1,0.11-0.19,0.2-0.28,0.26c-0.09,0.06-0.23,0.1-0.4,0.1c-0.17,0-0.33-0.05-0.49-0.14
			c-0.16-0.09-0.35-0.2-0.56-0.31c-0.22-0.12-0.48-0.22-0.78-0.31c-0.3-0.09-0.68-0.14-1.12-0.14c-0.57,0-1.07,0.09-1.5,0.28
			s-0.79,0.46-1.07,0.81c-0.28,0.35-0.5,0.78-0.64,1.28c-0.14,0.5-0.21,1.07-0.21,1.7c0,0.66,0.08,1.24,0.23,1.75
			c0.15,0.51,0.37,0.94,0.66,1.29c0.29,0.35,0.64,0.61,1.05,0.79c0.41,0.18,0.87,0.27,1.39,0.27s0.93-0.06,1.25-0.17
			c0.32-0.12,0.59-0.24,0.81-0.38c0.22-0.14,0.41-0.27,0.57-0.38c0.16-0.12,0.34-0.17,0.54-0.17c0.26,0,0.46,0.09,0.59,0.28
			l0.93,1.08c-0.36,0.38-0.75,0.71-1.17,0.97c-0.42,0.26-0.86,0.47-1.31,0.62c-0.45,0.16-0.92,0.27-1.4,0.33
			c-0.48,0.06-0.96,0.1-1.43,0.1c-0.83,0-1.61-0.14-2.35-0.43c-0.73-0.28-1.38-0.7-1.92-1.24c-0.55-0.54-0.98-1.21-1.3-2
			c-0.32-0.79-0.48-1.68-0.48-2.69c0-0.9,0.14-1.74,0.43-2.51c0.28-0.77,0.7-1.44,1.25-2c0.55-0.56,1.23-1,2.05-1.32
			c0.81-0.32,1.75-0.48,2.81-0.48c1.01,0,1.89,0.15,2.64,0.44c0.76,0.3,1.44,0.72,2.04,1.27L100.75,88.79z"/>
		<path d="M107.38,89.52c0.73,0,1.38,0.11,1.98,0.32c0.59,0.21,1.09,0.52,1.51,0.91s0.74,0.87,0.97,1.44
			c0.23,0.57,0.34,1.2,0.34,1.9c0,0.7-0.11,1.34-0.34,1.9c-0.23,0.57-0.55,1.05-0.97,1.45c-0.42,0.4-0.92,0.7-1.51,0.92
			c-0.59,0.21-1.25,0.32-1.98,0.32s-1.39-0.11-1.98-0.32c-0.59-0.21-1.1-0.52-1.52-0.92c-0.42-0.4-0.75-0.88-0.98-1.45
			c-0.23-0.57-0.35-1.2-0.35-1.9c0-0.7,0.12-1.33,0.35-1.9c0.23-0.57,0.56-1.04,0.98-1.44c0.42-0.39,0.93-0.7,1.52-0.91
			C105.99,89.62,106.65,89.52,107.38,89.52z M107.38,97.02c0.81,0,1.41-0.25,1.8-0.74c0.39-0.5,0.58-1.22,0.58-2.18
			c0-0.96-0.19-1.69-0.58-2.19c-0.39-0.5-0.99-0.75-1.8-0.75c-0.82,0-1.43,0.25-1.82,0.76c-0.39,0.51-0.59,1.23-0.59,2.19
			c0,0.95,0.2,1.68,0.59,2.18C105.95,96.77,106.56,97.02,107.38,97.02z"/>
		<path d="M114,98.54v-8.88h1.43c0.3,0,0.5,0.13,0.6,0.39l0.15,0.66c0.17-0.17,0.35-0.33,0.54-0.48c0.19-0.14,0.39-0.27,0.6-0.37
			c0.21-0.1,0.44-0.19,0.68-0.25c0.24-0.06,0.51-0.09,0.8-0.09c0.61,0,1.12,0.15,1.51,0.45c0.39,0.3,0.69,0.71,0.89,1.21
			c0.15-0.29,0.34-0.55,0.57-0.76c0.23-0.21,0.48-0.38,0.75-0.52c0.27-0.13,0.56-0.23,0.87-0.29c0.31-0.06,0.61-0.1,0.92-0.1
			c0.54,0,1.01,0.08,1.43,0.23c0.42,0.15,0.77,0.37,1.05,0.66c0.28,0.29,0.5,0.64,0.65,1.06c0.15,0.42,0.22,0.89,0.22,1.43v5.65
			h-2.34v-5.65c0-0.57-0.14-0.99-0.41-1.28c-0.27-0.29-0.67-0.43-1.19-0.43c-0.24,0-0.46,0.04-0.67,0.11
			c-0.21,0.07-0.39,0.18-0.54,0.32c-0.15,0.14-0.28,0.32-0.36,0.53c-0.09,0.21-0.13,0.46-0.13,0.74v5.65h-2.35v-5.65
			c0-0.59-0.13-1.03-0.39-1.3c-0.26-0.27-0.65-0.41-1.16-0.41c-0.33,0-0.65,0.08-0.94,0.23c-0.29,0.15-0.57,0.36-0.82,0.63v6.5H114z
			"/>
		<path d="M129.96,98.54v-8.88h1.43c0.3,0,0.5,0.13,0.6,0.39l0.15,0.66c0.17-0.17,0.35-0.33,0.54-0.48c0.19-0.14,0.39-0.27,0.6-0.37
			c0.21-0.1,0.44-0.19,0.68-0.25c0.24-0.06,0.51-0.09,0.8-0.09c0.61,0,1.12,0.15,1.51,0.45c0.39,0.3,0.69,0.71,0.89,1.21
			c0.15-0.29,0.34-0.55,0.57-0.76c0.23-0.21,0.48-0.38,0.75-0.52c0.27-0.13,0.56-0.23,0.87-0.29c0.31-0.06,0.61-0.1,0.92-0.1
			c0.54,0,1.01,0.08,1.43,0.23c0.42,0.15,0.77,0.37,1.05,0.66c0.28,0.29,0.5,0.64,0.65,1.06c0.15,0.42,0.22,0.89,0.22,1.43v5.65
			h-2.34v-5.65c0-0.57-0.14-0.99-0.41-1.28c-0.27-0.29-0.67-0.43-1.19-0.43c-0.24,0-0.46,0.04-0.67,0.11
			c-0.21,0.07-0.39,0.18-0.54,0.32c-0.15,0.14-0.28,0.32-0.36,0.53c-0.09,0.21-0.13,0.46-0.13,0.74v5.65h-2.35v-5.65
			c0-0.59-0.13-1.03-0.39-1.3c-0.26-0.27-0.65-0.41-1.16-0.41c-0.33,0-0.65,0.08-0.94,0.23c-0.29,0.15-0.57,0.36-0.82,0.63v6.5
			H129.96z"/>
		<path d="M149.93,89.52c0.61,0,1.18,0.09,1.69,0.27c0.51,0.18,0.96,0.44,1.33,0.78c0.37,0.34,0.66,0.76,0.87,1.26
			s0.31,1.07,0.31,1.71c0,0.16-0.01,0.3-0.02,0.4c-0.02,0.11-0.04,0.19-0.09,0.25c-0.04,0.06-0.1,0.1-0.17,0.13
			c-0.07,0.03-0.16,0.04-0.27,0.04h-6.01c0.07,0.91,0.34,1.58,0.81,2.01c0.47,0.43,1.09,0.64,1.86,0.64c0.38,0,0.71-0.04,0.98-0.12
			c0.27-0.08,0.51-0.17,0.72-0.27c0.21-0.1,0.39-0.19,0.54-0.27c0.15-0.08,0.3-0.12,0.45-0.12c0.09,0,0.18,0.02,0.25,0.05
			c0.07,0.03,0.13,0.08,0.18,0.15l0.68,0.78c-0.26,0.28-0.55,0.51-0.87,0.7c-0.32,0.19-0.66,0.34-1.01,0.45
			c-0.35,0.11-0.71,0.19-1.07,0.24s-0.72,0.07-1.06,0.07c-0.68,0-1.3-0.1-1.89-0.31c-0.58-0.2-1.09-0.51-1.52-0.91
			c-0.43-0.4-0.77-0.9-1.01-1.49c-0.25-0.59-0.37-1.28-0.37-2.06c0-0.61,0.11-1.18,0.32-1.71c0.21-0.53,0.52-1,0.92-1.39
			c0.4-0.4,0.89-0.71,1.47-0.94C148.55,89.63,149.2,89.52,149.93,89.52z M149.98,91.05c-0.68,0-1.22,0.18-1.6,0.53
			c-0.39,0.35-0.63,0.85-0.74,1.5h4.4c0-0.28-0.04-0.54-0.12-0.78c-0.08-0.25-0.21-0.46-0.38-0.64c-0.17-0.18-0.39-0.33-0.64-0.44
			C150.63,91.1,150.32,91.05,149.98,91.05z"/>
		<path d="M156.04,98.54v-8.88h1.37c0.24,0,0.41,0.04,0.5,0.12c0.09,0.08,0.16,0.22,0.19,0.42l0.14,1.07
			c0.35-0.55,0.75-0.98,1.22-1.3c0.47-0.32,0.99-0.48,1.57-0.48c0.48,0,0.88,0.1,1.19,0.3l-0.3,1.6c-0.02,0.1-0.06,0.18-0.12,0.22
			c-0.06,0.04-0.15,0.06-0.26,0.06c-0.09,0-0.22-0.02-0.39-0.06s-0.38-0.06-0.65-0.06c-0.49,0-0.9,0.12-1.25,0.37
			c-0.35,0.25-0.64,0.6-0.88,1.08v5.53H156.04z"/>
		<path d="M170.61,91.53c-0.07,0.08-0.14,0.14-0.2,0.19c-0.07,0.05-0.16,0.07-0.29,0.07c-0.12,0-0.24-0.03-0.35-0.1
			c-0.11-0.07-0.25-0.14-0.41-0.23c-0.16-0.08-0.35-0.16-0.56-0.23c-0.22-0.07-0.49-0.1-0.81-0.1c-0.41,0-0.77,0.07-1.08,0.2
			c-0.31,0.14-0.57,0.33-0.77,0.58c-0.21,0.25-0.36,0.56-0.46,0.92c-0.1,0.36-0.15,0.77-0.15,1.23c0,0.47,0.06,0.89,0.17,1.26
			c0.11,0.37,0.27,0.68,0.48,0.93c0.21,0.25,0.46,0.44,0.76,0.57s0.63,0.19,1,0.19s0.67-0.04,0.9-0.13
			c0.23-0.08,0.42-0.18,0.58-0.28c0.16-0.1,0.3-0.19,0.41-0.28c0.12-0.08,0.25-0.13,0.39-0.13c0.19,0,0.33,0.07,0.43,0.2l0.67,0.78
			c-0.26,0.28-0.54,0.51-0.84,0.7c-0.3,0.19-0.62,0.34-0.94,0.45c-0.33,0.11-0.66,0.19-1.01,0.24c-0.35,0.05-0.69,0.07-1.03,0.07
			c-0.6,0-1.17-0.1-1.7-0.31c-0.53-0.2-0.99-0.5-1.39-0.9c-0.39-0.39-0.71-0.87-0.94-1.44c-0.23-0.57-0.35-1.22-0.35-1.94
			c0-0.65,0.1-1.26,0.31-1.81c0.21-0.56,0.51-1.04,0.9-1.45c0.4-0.41,0.89-0.73,1.48-0.96c0.59-0.23,1.26-0.35,2.03-0.35
			c0.73,0,1.36,0.11,1.91,0.32c0.55,0.21,1.04,0.52,1.47,0.92L170.61,91.53z"/>
		<path d="M175.66,87.07c0,0.18-0.04,0.36-0.12,0.52c-0.08,0.16-0.19,0.3-0.33,0.42c-0.14,0.12-0.3,0.22-0.48,0.29
			c-0.18,0.07-0.38,0.11-0.59,0.11c-0.2,0-0.39-0.04-0.57-0.11c-0.18-0.07-0.34-0.17-0.47-0.29c-0.13-0.12-0.24-0.26-0.32-0.42
			c-0.08-0.16-0.12-0.33-0.12-0.52c0-0.19,0.04-0.37,0.12-0.54c0.08-0.17,0.18-0.31,0.32-0.43c0.13-0.12,0.29-0.22,0.47-0.29
			c0.18-0.07,0.37-0.11,0.57-0.11c0.21,0,0.4,0.04,0.59,0.11c0.18,0.07,0.34,0.17,0.48,0.29c0.14,0.12,0.24,0.27,0.33,0.43
			C175.62,86.7,175.66,86.87,175.66,87.07z M175.31,89.65v8.88h-2.34v-8.88H175.31z"/>
		<path d="M185.57,98.54h-1.05c-0.22,0-0.39-0.03-0.52-0.09c-0.13-0.06-0.22-0.18-0.28-0.37l-0.21-0.63
			c-0.25,0.2-0.49,0.38-0.72,0.53c-0.24,0.15-0.48,0.28-0.73,0.39c-0.25,0.1-0.52,0.18-0.81,0.23c-0.28,0.05-0.6,0.08-0.95,0.08
			c-0.41,0-0.79-0.05-1.14-0.15c-0.35-0.1-0.65-0.25-0.9-0.46c-0.25-0.2-0.44-0.45-0.58-0.76c-0.14-0.3-0.21-0.65-0.21-1.05
			c0-0.34,0.1-0.67,0.29-0.99c0.19-0.33,0.51-0.62,0.96-0.89c0.45-0.26,1.05-0.48,1.79-0.66c0.75-0.17,1.67-0.26,2.78-0.26v-0.52
			c0-0.6-0.14-1.04-0.41-1.33c-0.27-0.29-0.67-0.43-1.2-0.43c-0.38,0-0.69,0.04-0.95,0.12c-0.25,0.08-0.47,0.17-0.66,0.27
			s-0.36,0.19-0.52,0.27c-0.16,0.08-0.33,0.12-0.52,0.12c-0.16,0-0.29-0.04-0.41-0.11c-0.11-0.07-0.21-0.17-0.27-0.28l-0.43-0.68
			c1.12-0.93,2.47-1.4,4.05-1.4c0.57,0,1.08,0.09,1.52,0.26c0.45,0.17,0.82,0.41,1.13,0.71c0.31,0.3,0.54,0.67,0.71,1.09
			c0.16,0.42,0.24,0.88,0.24,1.39V98.54z M181.02,97.2c0.24,0,0.46-0.02,0.66-0.06c0.2-0.04,0.39-0.1,0.57-0.18
			c0.18-0.08,0.35-0.18,0.52-0.29c0.17-0.12,0.34-0.25,0.51-0.41v-1.49c-0.68,0-1.25,0.04-1.71,0.12s-0.83,0.18-1.1,0.3
			c-0.28,0.12-0.48,0.26-0.59,0.43c-0.12,0.16-0.18,0.34-0.18,0.53c0,0.38,0.12,0.65,0.36,0.81
			C180.31,97.12,180.63,97.2,181.02,97.2z"/>
		<path d="M190.37,85.67v12.86h-2.34V85.67H190.37z"/>
		<path d="M199.43,93.64v4.89h-2.55V86.02h4.18c0.93,0,1.74,0.09,2.4,0.26c0.67,0.18,1.21,0.42,1.64,0.74
			c0.43,0.32,0.74,0.7,0.94,1.14c0.2,0.44,0.3,0.93,0.3,1.46c0,0.42-0.07,0.82-0.2,1.19c-0.14,0.38-0.33,0.72-0.59,1.02
			c-0.26,0.31-0.57,0.57-0.95,0.8c-0.38,0.23-0.8,0.42-1.28,0.55c0.32,0.17,0.6,0.41,0.83,0.72l3.43,4.62h-2.29
			c-0.22,0-0.41-0.04-0.56-0.12c-0.15-0.08-0.29-0.2-0.39-0.35l-2.88-4.01c-0.11-0.15-0.23-0.26-0.36-0.32
			c-0.13-0.06-0.32-0.1-0.57-0.1H199.43z M199.43,91.97h1.59c0.48,0,0.9-0.05,1.26-0.16c0.36-0.11,0.65-0.26,0.88-0.45
			c0.23-0.19,0.4-0.42,0.52-0.69c0.11-0.27,0.17-0.56,0.17-0.87c0-0.63-0.23-1.12-0.69-1.46c-0.46-0.34-1.16-0.51-2.1-0.51h-1.63
			V91.97z"/>
		<path d="M213.09,89.52c0.61,0,1.18,0.09,1.69,0.27c0.51,0.18,0.96,0.44,1.33,0.78c0.37,0.34,0.66,0.76,0.87,1.26
			s0.31,1.07,0.31,1.71c0,0.16-0.01,0.3-0.02,0.4c-0.02,0.11-0.04,0.19-0.09,0.25c-0.04,0.06-0.1,0.1-0.17,0.13
			c-0.07,0.03-0.16,0.04-0.27,0.04h-6.01c0.07,0.91,0.34,1.58,0.81,2.01c0.47,0.43,1.09,0.64,1.86,0.64c0.38,0,0.71-0.04,0.98-0.12
			c0.27-0.08,0.51-0.17,0.72-0.27c0.21-0.1,0.39-0.19,0.54-0.27c0.15-0.08,0.3-0.12,0.45-0.12c0.09,0,0.18,0.02,0.25,0.05
			c0.07,0.03,0.13,0.08,0.18,0.15l0.68,0.78c-0.26,0.28-0.55,0.51-0.87,0.7c-0.32,0.19-0.66,0.34-1.01,0.45s-0.71,0.19-1.07,0.24
			c-0.36,0.05-0.72,0.07-1.06,0.07c-0.68,0-1.3-0.1-1.89-0.31c-0.58-0.2-1.09-0.51-1.52-0.91c-0.43-0.4-0.77-0.9-1.01-1.49
			c-0.25-0.59-0.37-1.28-0.37-2.06c0-0.61,0.11-1.18,0.32-1.71c0.21-0.53,0.52-1,0.92-1.39c0.4-0.4,0.89-0.71,1.47-0.94
			C211.72,89.63,212.37,89.52,213.09,89.52z M213.14,91.05c-0.68,0-1.22,0.18-1.6,0.53c-0.39,0.35-0.63,0.85-0.74,1.5h4.4
			c0-0.28-0.04-0.54-0.12-0.78c-0.08-0.25-0.21-0.46-0.38-0.64c-0.17-0.18-0.39-0.33-0.64-0.44
			C213.79,91.1,213.49,91.05,213.14,91.05z"/>
		<path d="M226.82,98.54h-1.05c-0.22,0-0.39-0.03-0.52-0.09c-0.13-0.06-0.22-0.18-0.28-0.37l-0.21-0.63
			c-0.25,0.2-0.49,0.38-0.72,0.53c-0.24,0.15-0.48,0.28-0.73,0.39c-0.25,0.1-0.52,0.18-0.81,0.23c-0.28,0.05-0.6,0.08-0.95,0.08
			c-0.41,0-0.79-0.05-1.14-0.15c-0.35-0.1-0.65-0.25-0.9-0.46c-0.25-0.2-0.44-0.45-0.58-0.76c-0.14-0.3-0.21-0.65-0.21-1.05
			c0-0.34,0.1-0.67,0.29-0.99c0.19-0.33,0.51-0.62,0.96-0.89c0.45-0.26,1.05-0.48,1.79-0.66c0.75-0.17,1.67-0.26,2.78-0.26v-0.52
			c0-0.6-0.14-1.04-0.41-1.33c-0.27-0.29-0.67-0.43-1.2-0.43c-0.38,0-0.69,0.04-0.95,0.12c-0.25,0.08-0.47,0.17-0.66,0.27
			s-0.36,0.19-0.52,0.27c-0.16,0.08-0.33,0.12-0.52,0.12c-0.16,0-0.29-0.04-0.41-0.11c-0.11-0.07-0.21-0.17-0.27-0.28l-0.43-0.68
			c1.12-0.93,2.47-1.4,4.05-1.4c0.57,0,1.08,0.09,1.52,0.26c0.45,0.17,0.82,0.41,1.13,0.71c0.31,0.3,0.54,0.67,0.71,1.09
			c0.16,0.42,0.24,0.88,0.24,1.39V98.54z M222.27,97.2c0.24,0,0.46-0.02,0.66-0.06c0.2-0.04,0.39-0.1,0.57-0.18
			c0.18-0.08,0.35-0.18,0.52-0.29c0.17-0.12,0.34-0.25,0.51-0.41v-1.49c-0.68,0-1.25,0.04-1.71,0.12s-0.83,0.18-1.1,0.3
			c-0.28,0.12-0.48,0.26-0.59,0.43c-0.12,0.16-0.18,0.34-0.18,0.53c0,0.38,0.12,0.65,0.36,0.81
			C221.56,97.12,221.88,97.2,222.27,97.2z"/>
		<path d="M231.62,85.67v12.86h-2.34V85.67H231.62z"/>
		<path d="M246.69,86.02v1.85h-6.07v3.47h4.78v1.79h-4.78v3.54h6.07v1.86h-8.64V86.02H246.69z"/>
		<path d="M254.53,91.39c-0.06,0.09-0.13,0.16-0.2,0.19c-0.07,0.04-0.16,0.06-0.27,0.06c-0.11,0-0.24-0.03-0.36-0.09
			c-0.13-0.06-0.28-0.12-0.45-0.19c-0.17-0.07-0.36-0.14-0.58-0.19c-0.22-0.06-0.48-0.09-0.77-0.09c-0.46,0-0.82,0.09-1.09,0.27
			c-0.27,0.18-0.4,0.41-0.4,0.7c0,0.19,0.07,0.35,0.2,0.48c0.14,0.13,0.32,0.24,0.54,0.34s0.48,0.19,0.76,0.26
			c0.28,0.08,0.57,0.16,0.87,0.26c0.3,0.09,0.59,0.2,0.87,0.32s0.54,0.27,0.76,0.45c0.22,0.18,0.4,0.4,0.54,0.65
			c0.14,0.25,0.2,0.56,0.2,0.92c0,0.43-0.09,0.82-0.26,1.18c-0.17,0.36-0.42,0.67-0.75,0.93c-0.33,0.26-0.73,0.47-1.22,0.61
			c-0.48,0.15-1.04,0.22-1.66,0.22c-0.33,0-0.66-0.03-0.98-0.08c-0.32-0.05-0.63-0.13-0.92-0.23c-0.29-0.1-0.57-0.21-0.81-0.35
			c-0.25-0.13-0.47-0.28-0.66-0.43l0.54-0.81c0.07-0.1,0.15-0.17,0.25-0.23c0.09-0.05,0.21-0.08,0.36-0.08
			c0.15,0,0.28,0.04,0.41,0.11c0.13,0.08,0.28,0.16,0.45,0.24c0.17,0.09,0.37,0.17,0.6,0.24c0.23,0.08,0.52,0.11,0.88,0.11
			c0.28,0,0.52-0.03,0.72-0.09c0.2-0.06,0.36-0.14,0.49-0.24c0.13-0.1,0.22-0.21,0.28-0.34c0.06-0.13,0.09-0.26,0.09-0.4
			c0-0.21-0.07-0.38-0.2-0.51c-0.14-0.13-0.32-0.25-0.54-0.35c-0.22-0.1-0.48-0.19-0.77-0.26c-0.29-0.08-0.58-0.16-0.88-0.26
			c-0.3-0.09-0.59-0.2-0.88-0.32c-0.29-0.12-0.54-0.28-0.77-0.47c-0.22-0.19-0.4-0.42-0.54-0.7c-0.14-0.28-0.2-0.61-0.2-1
			c0-0.36,0.08-0.71,0.24-1.04c0.16-0.33,0.39-0.62,0.7-0.86c0.31-0.25,0.69-0.44,1.15-0.59c0.46-0.15,0.99-0.22,1.59-0.22
			c0.67,0,1.28,0.1,1.83,0.3c0.55,0.2,1.01,0.47,1.37,0.8L254.53,91.39z"/>
		<path d="M260.24,98.67c-0.84,0-1.49-0.22-1.94-0.65c-0.45-0.44-0.68-1.04-0.68-1.8v-4.96h-0.99c-0.13,0-0.24-0.04-0.33-0.11
			c-0.09-0.07-0.14-0.19-0.14-0.34v-0.85l1.56-0.23l0.49-2.42c0.03-0.12,0.08-0.2,0.18-0.27c0.09-0.06,0.21-0.1,0.35-0.1h1.21v2.8
			h2.56v1.52h-2.56v4.81c0,0.28,0.08,0.49,0.23,0.65c0.15,0.16,0.35,0.23,0.61,0.23c0.15,0,0.27-0.02,0.36-0.05
			c0.1-0.03,0.18-0.06,0.26-0.1c0.07-0.03,0.14-0.07,0.19-0.1c0.06-0.03,0.11-0.05,0.17-0.05c0.07,0,0.13,0.02,0.17,0.05
			c0.04,0.03,0.09,0.08,0.14,0.14l0.7,1.04c-0.34,0.26-0.73,0.46-1.17,0.59C261.17,98.61,260.71,98.67,260.24,98.67z"/>
		<path d="M271.99,98.54h-1.05c-0.22,0-0.39-0.03-0.52-0.09c-0.13-0.06-0.22-0.18-0.28-0.37l-0.21-0.63
			c-0.25,0.2-0.49,0.38-0.72,0.53c-0.24,0.15-0.48,0.28-0.73,0.39s-0.52,0.18-0.81,0.23c-0.28,0.05-0.6,0.08-0.95,0.08
			c-0.41,0-0.79-0.05-1.14-0.15c-0.35-0.1-0.65-0.25-0.9-0.46c-0.25-0.2-0.44-0.45-0.58-0.76s-0.21-0.65-0.21-1.05
			c0-0.34,0.1-0.67,0.29-0.99c0.19-0.33,0.51-0.62,0.96-0.89c0.45-0.26,1.05-0.48,1.79-0.66c0.75-0.17,1.67-0.26,2.78-0.26v-0.52
			c0-0.6-0.14-1.04-0.41-1.33c-0.27-0.29-0.67-0.43-1.2-0.43c-0.38,0-0.69,0.04-0.95,0.12c-0.25,0.08-0.47,0.17-0.66,0.27
			s-0.36,0.19-0.52,0.27c-0.16,0.08-0.33,0.12-0.52,0.12c-0.16,0-0.29-0.04-0.41-0.11c-0.11-0.07-0.21-0.17-0.27-0.28l-0.43-0.68
			c1.12-0.93,2.47-1.4,4.05-1.4c0.57,0,1.08,0.09,1.52,0.26c0.45,0.17,0.82,0.41,1.13,0.71c0.31,0.3,0.54,0.67,0.71,1.09
			c0.16,0.42,0.24,0.88,0.24,1.39V98.54z M267.45,97.2c0.24,0,0.46-0.02,0.66-0.06c0.2-0.04,0.39-0.1,0.57-0.18
			c0.18-0.08,0.35-0.18,0.52-0.29c0.17-0.12,0.34-0.25,0.51-0.41v-1.49c-0.68,0-1.25,0.04-1.71,0.12s-0.83,0.18-1.1,0.3
			c-0.28,0.12-0.48,0.26-0.59,0.43c-0.12,0.16-0.18,0.34-0.18,0.53c0,0.38,0.12,0.65,0.36,0.81
			C266.74,97.12,267.06,97.2,267.45,97.2z"/>
		<path d="M277.49,98.67c-0.84,0-1.49-0.22-1.94-0.65c-0.45-0.44-0.68-1.04-0.68-1.8v-4.96h-0.99c-0.13,0-0.24-0.04-0.33-0.11
			c-0.09-0.07-0.14-0.19-0.14-0.34v-0.85l1.56-0.23l0.49-2.42c0.03-0.12,0.08-0.2,0.18-0.27c0.09-0.06,0.21-0.1,0.35-0.1h1.21v2.8
			h2.56v1.52h-2.56v4.81c0,0.28,0.08,0.49,0.23,0.65c0.15,0.16,0.35,0.23,0.61,0.23c0.15,0,0.27-0.02,0.36-0.05
			c0.1-0.03,0.18-0.06,0.26-0.1c0.07-0.03,0.14-0.07,0.19-0.1c0.06-0.03,0.11-0.05,0.17-0.05c0.07,0,0.13,0.02,0.17,0.05
			c0.04,0.03,0.09,0.08,0.14,0.14l0.7,1.04c-0.34,0.26-0.73,0.46-1.17,0.59S277.96,98.67,277.49,98.67z"/>
		<path d="M285.65,89.52c0.61,0,1.18,0.09,1.69,0.27c0.51,0.18,0.96,0.44,1.33,0.78c0.37,0.34,0.66,0.76,0.87,1.26
			c0.21,0.5,0.31,1.07,0.31,1.71c0,0.16-0.01,0.3-0.02,0.4c-0.02,0.11-0.04,0.19-0.09,0.25s-0.1,0.1-0.17,0.13
			c-0.07,0.03-0.16,0.04-0.27,0.04h-6.01c0.07,0.91,0.34,1.58,0.81,2.01c0.47,0.43,1.09,0.64,1.86,0.64c0.38,0,0.71-0.04,0.98-0.12
			c0.27-0.08,0.51-0.17,0.72-0.27c0.21-0.1,0.39-0.19,0.54-0.27c0.15-0.08,0.3-0.12,0.45-0.12c0.09,0,0.18,0.02,0.25,0.05
			c0.07,0.03,0.13,0.08,0.18,0.15l0.68,0.78c-0.26,0.28-0.55,0.51-0.87,0.7c-0.32,0.19-0.66,0.34-1.01,0.45
			c-0.35,0.11-0.71,0.19-1.07,0.24s-0.72,0.07-1.06,0.07c-0.68,0-1.3-0.1-1.89-0.31c-0.58-0.2-1.09-0.51-1.52-0.91
			c-0.43-0.4-0.77-0.9-1.01-1.49c-0.25-0.59-0.37-1.28-0.37-2.06c0-0.61,0.11-1.18,0.32-1.71c0.21-0.53,0.52-1,0.92-1.39
			c0.4-0.4,0.89-0.71,1.47-0.94C284.27,89.63,284.92,89.52,285.65,89.52z M285.69,91.05c-0.68,0-1.22,0.18-1.6,0.53
			c-0.39,0.35-0.63,0.85-0.74,1.5h4.4c0-0.28-0.04-0.54-0.12-0.78c-0.08-0.25-0.21-0.46-0.38-0.64c-0.17-0.18-0.39-0.33-0.64-0.44
			C286.34,91.1,286.04,91.05,285.69,91.05z"/>
		<path d="M93.34,115.14h-2.6v-12.72h2.6V115.14z"/>
		<path d="M96.24,114.67v-8.88h1.43c0.3,0,0.5,0.13,0.6,0.39l0.16,0.7c0.2-0.18,0.4-0.35,0.62-0.5c0.22-0.15,0.45-0.28,0.69-0.39
			c0.24-0.11,0.5-0.19,0.78-0.25c0.28-0.06,0.58-0.09,0.91-0.09c0.53,0,1,0.08,1.41,0.25c0.41,0.16,0.75,0.4,1.03,0.69
			c0.27,0.3,0.48,0.65,0.63,1.06c0.14,0.41,0.21,0.87,0.21,1.36v5.65h-2.34v-5.65c0-0.54-0.14-0.96-0.41-1.26
			c-0.27-0.3-0.69-0.45-1.24-0.45c-0.4,0-0.78,0.08-1.14,0.25c-0.35,0.17-0.69,0.4-1,0.68v6.42H96.24z"/>
		<path d="M111.54,114.67h-2.12l-3.87-8.88h1.94c0.17,0,0.31,0.04,0.43,0.11c0.12,0.08,0.2,0.17,0.24,0.29l1.88,4.74
			c0.11,0.28,0.2,0.55,0.27,0.81c0.07,0.27,0.14,0.53,0.19,0.8c0.06-0.27,0.12-0.53,0.19-0.8c0.07-0.27,0.17-0.54,0.28-0.81
			l1.92-4.74c0.04-0.12,0.12-0.21,0.24-0.29c0.11-0.07,0.25-0.11,0.41-0.11h1.85L111.54,114.67z"/>
		<path d="M120.49,105.65c0.61,0,1.18,0.09,1.69,0.27c0.51,0.18,0.96,0.44,1.33,0.78c0.37,0.34,0.66,0.76,0.87,1.26
			c0.21,0.5,0.31,1.07,0.31,1.71c0,0.16-0.01,0.3-0.02,0.4c-0.02,0.11-0.04,0.19-0.09,0.25c-0.04,0.06-0.1,0.1-0.17,0.13
			c-0.07,0.03-0.16,0.04-0.27,0.04h-6.01c0.07,0.91,0.34,1.58,0.81,2.01c0.47,0.43,1.09,0.64,1.86,0.64c0.38,0,0.71-0.04,0.98-0.12
			c0.27-0.08,0.51-0.17,0.72-0.27c0.21-0.1,0.39-0.19,0.54-0.27c0.15-0.08,0.3-0.12,0.45-0.12c0.09,0,0.18,0.02,0.25,0.05
			c0.07,0.03,0.13,0.08,0.18,0.15l0.68,0.78c-0.26,0.28-0.55,0.51-0.87,0.7s-0.66,0.34-1.01,0.45s-0.71,0.19-1.07,0.24
			s-0.72,0.07-1.06,0.07c-0.68,0-1.3-0.1-1.89-0.31c-0.58-0.2-1.09-0.51-1.52-0.91c-0.43-0.4-0.77-0.9-1.01-1.49
			c-0.25-0.59-0.37-1.28-0.37-2.06c0-0.61,0.11-1.18,0.32-1.71c0.21-0.53,0.52-1,0.92-1.39c0.4-0.4,0.89-0.71,1.47-0.94
			C119.11,105.77,119.76,105.65,120.49,105.65z M120.53,107.19c-0.68,0-1.22,0.18-1.6,0.53c-0.39,0.35-0.63,0.85-0.74,1.5h4.4
			c0-0.28-0.04-0.54-0.12-0.78c-0.08-0.25-0.21-0.46-0.38-0.64c-0.17-0.18-0.39-0.33-0.64-0.44
			C121.18,107.24,120.88,107.19,120.53,107.19z"/>
		<path d="M132.37,107.52c-0.06,0.09-0.13,0.16-0.2,0.19c-0.07,0.04-0.16,0.06-0.27,0.06c-0.11,0-0.24-0.03-0.36-0.09
			c-0.13-0.06-0.28-0.12-0.45-0.19c-0.17-0.07-0.36-0.14-0.58-0.19c-0.22-0.06-0.48-0.09-0.77-0.09c-0.46,0-0.82,0.09-1.09,0.27
			c-0.27,0.18-0.4,0.41-0.4,0.7c0,0.19,0.07,0.35,0.2,0.48c0.14,0.13,0.32,0.24,0.54,0.34c0.22,0.1,0.48,0.19,0.76,0.26
			c0.28,0.08,0.57,0.16,0.87,0.26c0.3,0.09,0.59,0.2,0.87,0.32c0.28,0.12,0.54,0.27,0.76,0.45c0.22,0.18,0.4,0.4,0.54,0.65
			c0.14,0.25,0.2,0.56,0.2,0.92c0,0.43-0.09,0.82-0.26,1.18c-0.17,0.36-0.42,0.67-0.75,0.93c-0.33,0.26-0.73,0.47-1.22,0.61
			c-0.48,0.15-1.04,0.22-1.66,0.22c-0.33,0-0.66-0.03-0.98-0.08c-0.32-0.05-0.63-0.13-0.92-0.23c-0.29-0.1-0.57-0.21-0.81-0.35
			c-0.25-0.13-0.47-0.28-0.66-0.43l0.54-0.81c0.07-0.1,0.15-0.17,0.25-0.23c0.09-0.05,0.21-0.08,0.36-0.08
			c0.15,0,0.28,0.04,0.41,0.11c0.13,0.08,0.28,0.16,0.45,0.24c0.17,0.09,0.37,0.17,0.6,0.24c0.23,0.08,0.52,0.11,0.88,0.11
			c0.28,0,0.52-0.03,0.72-0.09c0.2-0.06,0.36-0.14,0.49-0.24c0.13-0.1,0.22-0.21,0.28-0.34c0.06-0.13,0.09-0.26,0.09-0.4
			c0-0.21-0.07-0.38-0.2-0.51c-0.14-0.13-0.32-0.25-0.54-0.35c-0.22-0.1-0.48-0.19-0.77-0.26c-0.29-0.08-0.58-0.16-0.88-0.26
			c-0.3-0.09-0.59-0.2-0.88-0.32c-0.29-0.12-0.54-0.28-0.77-0.47c-0.22-0.19-0.4-0.42-0.54-0.7c-0.14-0.28-0.2-0.61-0.2-1
			c0-0.36,0.08-0.71,0.24-1.04c0.16-0.33,0.39-0.62,0.7-0.86c0.31-0.25,0.69-0.44,1.15-0.59c0.46-0.15,0.99-0.22,1.59-0.22
			c0.67,0,1.28,0.1,1.83,0.3c0.55,0.2,1.01,0.47,1.37,0.8L132.37,107.52z"/>
		<path d="M138.07,114.81c-0.84,0-1.49-0.22-1.94-0.65c-0.45-0.44-0.68-1.04-0.68-1.8v-4.96h-0.99c-0.13,0-0.24-0.04-0.33-0.11
			c-0.09-0.07-0.14-0.19-0.14-0.34v-0.85l1.56-0.23l0.49-2.42c0.03-0.12,0.08-0.2,0.18-0.27c0.09-0.06,0.21-0.1,0.35-0.1h1.21v2.8
			h2.56v1.52h-2.56v4.81c0,0.28,0.08,0.49,0.23,0.65c0.15,0.16,0.35,0.23,0.61,0.23c0.15,0,0.27-0.02,0.36-0.05
			c0.1-0.03,0.18-0.06,0.26-0.1c0.07-0.03,0.14-0.07,0.19-0.1c0.06-0.03,0.11-0.05,0.17-0.05c0.07,0,0.13,0.02,0.17,0.05
			c0.04,0.03,0.09,0.08,0.14,0.14l0.7,1.04c-0.34,0.26-0.73,0.46-1.17,0.59C139,114.75,138.54,114.81,138.07,114.81z"/>
		<path d="M142.21,114.67v-8.88h1.43c0.3,0,0.5,0.13,0.6,0.39l0.15,0.66c0.17-0.17,0.35-0.33,0.54-0.48
			c0.19-0.14,0.39-0.27,0.6-0.37c0.21-0.1,0.44-0.19,0.68-0.25c0.24-0.06,0.51-0.09,0.8-0.09c0.61,0,1.12,0.15,1.51,0.45
			c0.39,0.3,0.69,0.71,0.89,1.21c0.15-0.29,0.34-0.55,0.57-0.76c0.23-0.21,0.48-0.38,0.75-0.52c0.27-0.13,0.56-0.23,0.87-0.29
			c0.31-0.06,0.61-0.1,0.92-0.1c0.54,0,1.01,0.08,1.43,0.23c0.42,0.15,0.77,0.37,1.05,0.66c0.28,0.29,0.5,0.64,0.65,1.06
			c0.15,0.42,0.22,0.89,0.22,1.43v5.65h-2.34v-5.65c0-0.57-0.14-0.99-0.41-1.28c-0.27-0.29-0.67-0.43-1.19-0.43
			c-0.24,0-0.46,0.04-0.67,0.11c-0.21,0.07-0.39,0.18-0.54,0.32c-0.15,0.14-0.28,0.32-0.36,0.53c-0.09,0.21-0.13,0.46-0.13,0.74
			v5.65h-2.35v-5.65c0-0.59-0.13-1.03-0.39-1.3c-0.26-0.27-0.65-0.41-1.16-0.41c-0.33,0-0.65,0.08-0.94,0.23
			c-0.29,0.15-0.57,0.36-0.82,0.63v6.5H142.21z"/>
		<path d="M162.18,105.65c0.61,0,1.18,0.09,1.69,0.27c0.51,0.18,0.96,0.44,1.33,0.78c0.37,0.34,0.66,0.76,0.87,1.26
			c0.21,0.5,0.31,1.07,0.31,1.71c0,0.16-0.01,0.3-0.02,0.4c-0.02,0.11-0.04,0.19-0.09,0.25c-0.04,0.06-0.1,0.1-0.17,0.13
			c-0.07,0.03-0.16,0.04-0.27,0.04h-6.01c0.07,0.91,0.34,1.58,0.81,2.01c0.47,0.43,1.09,0.64,1.86,0.64c0.38,0,0.71-0.04,0.98-0.12
			c0.27-0.08,0.51-0.17,0.72-0.27c0.21-0.1,0.39-0.19,0.54-0.27c0.15-0.08,0.3-0.12,0.45-0.12c0.09,0,0.18,0.02,0.25,0.05
			c0.07,0.03,0.13,0.08,0.18,0.15l0.68,0.78c-0.26,0.28-0.55,0.51-0.87,0.7c-0.32,0.19-0.66,0.34-1.01,0.45s-0.71,0.19-1.07,0.24
			c-0.36,0.05-0.72,0.07-1.06,0.07c-0.68,0-1.3-0.1-1.89-0.31c-0.58-0.2-1.09-0.51-1.52-0.91c-0.43-0.4-0.77-0.9-1.01-1.49
			c-0.25-0.59-0.37-1.28-0.37-2.06c0-0.61,0.11-1.18,0.32-1.71c0.21-0.53,0.52-1,0.92-1.39c0.4-0.4,0.89-0.71,1.47-0.94
			C160.8,105.77,161.46,105.65,162.18,105.65z M162.23,107.19c-0.68,0-1.22,0.18-1.6,0.53c-0.39,0.35-0.63,0.85-0.74,1.5h4.4
			c0-0.28-0.04-0.54-0.12-0.78c-0.08-0.25-0.21-0.46-0.38-0.64c-0.17-0.18-0.39-0.33-0.64-0.44
			C162.88,107.24,162.58,107.19,162.23,107.19z"/>
		<path d="M168.29,114.67v-8.88h1.43c0.3,0,0.5,0.13,0.6,0.39l0.16,0.7c0.2-0.18,0.4-0.35,0.62-0.5c0.22-0.15,0.45-0.28,0.69-0.39
			c0.24-0.11,0.5-0.19,0.78-0.25c0.28-0.06,0.58-0.09,0.91-0.09c0.53,0,1,0.08,1.41,0.25c0.41,0.16,0.75,0.4,1.03,0.69
			c0.27,0.3,0.48,0.65,0.63,1.06c0.14,0.41,0.21,0.87,0.21,1.36v5.65h-2.34v-5.65c0-0.54-0.14-0.96-0.41-1.26
			c-0.27-0.3-0.69-0.45-1.24-0.45c-0.4,0-0.78,0.08-1.14,0.25c-0.35,0.17-0.69,0.4-1,0.68v6.42H168.29z"/>
		<path d="M182.26,114.81c-0.84,0-1.49-0.22-1.94-0.65c-0.45-0.44-0.68-1.04-0.68-1.8v-4.96h-0.99c-0.13,0-0.24-0.04-0.33-0.11
			c-0.09-0.07-0.14-0.19-0.14-0.34v-0.85l1.56-0.23l0.49-2.42c0.03-0.12,0.08-0.2,0.18-0.27c0.09-0.06,0.21-0.1,0.35-0.1h1.21v2.8
			h2.56v1.52h-2.56v4.81c0,0.28,0.08,0.49,0.23,0.65c0.15,0.16,0.35,0.23,0.61,0.23c0.15,0,0.27-0.02,0.36-0.05
			c0.1-0.03,0.18-0.06,0.26-0.1c0.07-0.03,0.14-0.07,0.19-0.1c0.06-0.03,0.11-0.05,0.17-0.05c0.07,0,0.13,0.02,0.17,0.05
			c0.04,0.03,0.09,0.08,0.14,0.14l0.7,1.04c-0.34,0.26-0.73,0.46-1.17,0.59S182.73,114.81,182.26,114.81z"/>
	</g>
</g>
</svg>
