<svg width="83" height="103" viewBox="0 0 83 103" fill="none" xmlns="http://www.w3.org/2000/svg">
<path fill-rule="evenodd" clip-rule="evenodd" d="M4.99096 9.47341H16.9569L16.4365 14.3522H8.38872C6.13551 14.3522 4.17741 16.3193 4.17741 18.5786V89.4911C4.17741 91.7384 6.07569 93.7216 8.38872 93.7216H44.8289C45.4331 95.2364 46.1968 96.6692 47.0961 98H4.99096C2.26517 98 0 95.7487 0 92.9931V14.4823C0 11.7267 2.24523 9.47341 4.99096 9.47341ZM70.8106 63.4282V18.5786C70.8106 16.2593 68.8505 14.3522 66.5973 14.3522H58.0431V9.47341H70.009C72.7548 9.47341 75 11.7507 75 14.4823V64.8671C73.6544 64.2496 72.2511 63.7676 70.8106 63.4282ZM14.9529 84.1201C13.9859 84.1201 13.1982 83.3316 13.1982 82.3591C13.1982 81.3885 13.9859 80.6001 14.9529 80.6001H43.7382C43.491 81.7447 43.3334 82.9194 43.2676 84.1201H14.9529ZM14.9529 73.482C13.9859 73.482 13.1982 72.6935 13.1982 71.721C13.1982 70.7504 13.9859 69.962 14.9529 69.962H49.3014C48.2911 71.0437 47.3895 72.2228 46.6096 73.482H14.9529ZM14.9529 62.8439C13.9859 62.8439 13.1982 62.0555 13.1982 61.0849C13.1982 60.1144 13.9859 59.3259 14.9529 59.3259H50.6733C51.6404 59.3259 52.426 60.1144 52.426 61.0849C52.426 62.0555 51.6404 62.8439 50.6733 62.8439H14.9529ZM14.9529 52.2058C13.9859 52.2058 13.1982 51.4174 13.1982 50.4468C13.1982 49.4763 13.9859 48.6878 14.9529 48.6878H60.049C61.0161 48.6878 61.8018 49.4763 61.8018 50.4468C61.8018 51.4174 61.0161 52.2058 60.049 52.2058H14.9529ZM23.8681 6.994H29.523C29.9996 3.04974 33.172 0 37.0184 0C40.8389 0 43.9974 3.00972 44.5079 6.91195L51.1259 6.994C51.5885 6.994 51.9594 7.36621 51.9594 7.82847V16.7976C51.9594 17.2599 51.5885 17.6321 51.1259 17.6321H23.8741C23.4234 17.6321 23.0426 17.2599 23.0426 16.7976V7.82847C23.0346 7.36621 23.4055 6.994 23.8681 6.994ZM33.9218 10.424C34.4322 11.1264 35.164 11.8208 35.9397 12.177C36.5738 12.3691 37.2657 12.3851 37.9058 12.209C38.9147 11.7467 39.836 10.6321 40.2647 9.69754C40.3125 9.43339 40.3484 9.16124 40.3484 8.86306C40.3484 6.88593 38.839 5.28302 36.9766 5.28302C35.1162 5.28302 33.6067 6.88593 33.6067 8.86306C33.6187 9.4574 33.7224 9.98571 33.9218 10.424Z" fill="#FF4C00"/>
<path fill-rule="evenodd" clip-rule="evenodd" d="M66 69C75.3919 69 83 76.6136 83 85.999C83 95.3904 75.3879 103 66 103C56.6081 103 49 95.3864 49 85.999C49 76.6076 56.6121 69 66 69Z" fill="#0085C3"/>
<path fill-rule="evenodd" clip-rule="evenodd" d="M60.9887 83.2236L63.8513 86.148L70.616 78.7319C71.1765 78.1176 71.5274 77.6238 72.2181 78.3931L74.4617 80.8788C75.1976 81.6645 75.1598 82.1277 74.4654 82.8604L65.1306 92.7928C63.6663 94.3458 63.9211 94.4397 62.436 92.8458L57.2129 87.2296C56.9035 86.8684 56.9374 86.5011 57.2752 86.1399L59.8792 83.2195C60.2736 82.7706 60.5887 82.8094 60.9887 83.2236Z" fill="white"/>
<rect x="13" y="26" width="49" height="3" rx="1.5" fill="#FF4C00"/>
<rect x="13" y="34" width="49" height="3" rx="1.5" fill="#FF4C00"/>
<rect x="13" y="41" width="49" height="3" rx="1.5" fill="#FF4C00"/>
</svg>
