<svg width="20" height="18" viewBox="0 0 20 18" fill="none" xmlns="http://www.w3.org/2000/svg">
<path d="M18.5433 6.33552C18.679 6.21381 18.7833 6.06112 18.8473 5.89044C18.9113 5.71976 18.9331 5.53615 18.9109 5.35522C18.8936 5.18939 18.8276 5.0324 18.7211 4.90411C18.6146 4.77581 18.4725 4.68196 18.3127 4.63441C18.179 4.75612 18.076 4.90772 18.0121 5.07684C17.9482 5.24597 17.9252 5.4278 17.945 5.6075C17.9619 5.77431 18.0277 5.9324 18.1342 6.06193C18.2406 6.19146 18.383 6.28664 18.5433 6.33552V6.33552ZM18.983 6.73197C18.8359 6.85491 18.7205 7.01141 18.6464 7.18828C18.5724 7.36516 18.542 7.55723 18.5577 7.74831C18.7444 7.7647 18.9325 7.74133 19.1095 7.67976C19.2865 7.61818 19.4484 7.51979 19.5847 7.39107C19.7209 7.26234 19.8283 7.10622 19.8997 6.93297C19.9712 6.75973 20.0052 6.5733 19.9994 6.38598C19.8147 6.36107 19.6268 6.37935 19.4505 6.43939C19.2741 6.49943 19.1141 6.59958 18.983 6.73197V6.73197ZM18.3775 7.71227C18.4254 7.53995 18.4244 7.35773 18.3748 7.18592C18.3251 7.01411 18.2288 6.85945 18.0964 6.73918C17.964 6.61681 17.8009 6.53273 17.6244 6.49591C17.4479 6.45909 17.2648 6.47092 17.0945 6.53014C17.0441 6.70169 17.0431 6.88397 17.0915 7.05608C17.14 7.22818 17.2359 7.38316 17.3684 7.50324C17.5023 7.62554 17.6667 7.7095 17.8443 7.74629C18.0219 7.78307 18.2061 7.77132 18.3775 7.71227V7.71227ZM18.3847 8.95928C18.2053 9.07245 18.0546 9.22578 17.9445 9.40716C17.8344 9.58854 17.768 9.79301 17.7504 10.0045C17.9486 10.0668 18.159 10.0803 18.3635 10.0439C18.5681 10.0075 18.7608 9.92229 18.9254 9.79542C19.1037 9.68101 19.2535 9.52738 19.3635 9.34625C19.4734 9.16511 19.5405 8.96126 19.5597 8.75024C19.3617 8.68604 19.151 8.67153 18.9461 8.70798C18.7412 8.74444 18.5484 8.83074 18.3847 8.95928V8.95928ZM17.563 9.92517C17.6448 9.74633 17.6765 9.54868 17.655 9.35323C17.6334 9.15777 17.5593 8.97182 17.4405 8.81512C17.3228 8.65938 17.1639 8.5397 16.9817 8.46964C16.7996 8.39957 16.6014 8.38191 16.4097 8.41867C16.3239 8.59498 16.2873 8.7912 16.3038 8.98659C16.3203 9.18198 16.3893 9.36929 16.5034 9.52872C16.6234 9.68952 16.7871 9.8124 16.9749 9.8827C17.1628 9.953 17.367 9.96774 17.563 9.92517V9.92517ZM17.7648 11.2731C17.5444 11.3585 17.3458 11.4922 17.1837 11.6643C17.0215 11.8364 16.8999 12.0426 16.8278 12.2678C17.0139 12.3875 17.2274 12.4576 17.4482 12.4714C17.669 12.4853 17.8896 12.4425 18.0892 12.3471C18.3097 12.2616 18.5083 12.128 18.6704 11.9559C18.8325 11.7837 18.9541 11.5776 19.0263 11.3524C18.841 11.2307 18.6273 11.1595 18.4061 11.1456C18.1849 11.1316 17.9639 11.1756 17.7648 11.2731ZM15.7033 11.4317C15.7737 11.6319 15.9014 11.8071 16.0706 11.9353C16.2398 12.0635 16.443 12.139 16.6548 12.1525C16.7877 11.974 16.8738 11.765 16.9053 11.5447C16.9368 11.3244 16.9126 11.0996 16.835 10.8911C16.7634 10.6902 16.6343 10.5148 16.4639 10.3867C16.2935 10.2585 16.0892 10.1833 15.8763 10.1702C15.7428 10.3485 15.6568 10.5579 15.6265 10.7786C15.5963 10.9992 15.6227 11.224 15.7033 11.4317V11.4317ZM16.5034 13.1904C16.2738 13.2499 16.0603 13.3596 15.8782 13.5117C15.6962 13.6638 15.5503 13.8544 15.451 14.0698C15.6134 14.2162 15.8122 14.3163 16.0265 14.3594C16.2409 14.4025 16.4629 14.3871 16.6692 14.3149C16.8995 14.2572 17.114 14.149 17.2973 13.9982C17.4805 13.8473 17.6279 13.6576 17.7288 13.4427C17.5653 13.2958 17.3656 13.195 17.1503 13.1507C16.9349 13.1064 16.7117 13.1201 16.5034 13.1904ZM14.8456 11.8281C14.6896 11.9913 14.5763 12.1906 14.516 12.4082C14.4556 12.6257 14.45 12.8548 14.4996 13.0751C14.54 13.2814 14.6402 13.4712 14.7875 13.6211C14.9349 13.7711 15.123 13.8744 15.3285 13.9185C15.4795 13.7534 15.5901 13.5554 15.6514 13.3402C15.7127 13.1251 15.7231 12.8986 15.6817 12.6787C15.642 12.4701 15.5414 12.278 15.3925 12.1267C15.2437 11.9753 15.0534 11.8714 14.8456 11.8281V11.8281ZM14.7374 14.9636C14.4824 14.9431 14.226 14.9818 13.9884 15.0769C13.7508 15.1719 13.5384 15.3206 13.3679 15.5115C13.4518 15.7324 13.5992 15.9236 13.7917 16.0609C13.9841 16.1981 14.2129 16.2753 14.4491 16.2827C14.7048 16.3024 14.9615 16.2626 15.1991 16.1662C15.4368 16.0699 15.6488 15.9198 15.8187 15.7277C15.7328 15.5086 15.5847 15.3195 15.3925 15.1837C15.2004 15.0479 14.9726 14.9714 14.7374 14.9636ZM12.8201 14.041C12.7705 14.2719 12.7883 14.5122 12.8714 14.7333C12.9544 14.9543 13.0993 15.1469 13.2886 15.288C13.5129 15.1583 13.7047 14.9793 13.8495 14.7645C13.9944 14.5497 14.0885 14.3047 14.1247 14.0482C14.1725 13.8173 14.1539 13.5776 14.0709 13.3569C13.988 13.1362 13.8442 12.9435 13.6562 12.8012C13.432 12.9309 13.2401 13.11 13.0953 13.3248C12.9504 13.5395 12.8563 13.7845 12.8201 14.041V14.041ZM12.4308 16.1746C12.151 16.1512 11.8695 16.1938 11.6091 16.299C11.3487 16.4041 11.1167 16.5689 10.9315 16.7801C11.0267 17.0182 11.1892 17.2234 11.3991 17.3707C11.6091 17.5179 11.8574 17.6007 12.1137 17.609C12.3944 17.6302 12.6762 17.5866 12.9374 17.4816C13.1986 17.3767 13.4322 17.2131 13.6202 17.0035C13.5245 16.7643 13.3609 16.5584 13.1496 16.411C12.9382 16.2637 12.6884 16.1815 12.4308 16.1746ZM11.7605 15.1727C11.816 14.9194 11.7972 14.6554 11.7064 14.4125C11.6156 14.1696 11.4567 13.958 11.2487 13.8031C11.0012 13.9431 10.7893 14.1381 10.6293 14.3731C10.4693 14.6081 10.3656 14.8767 10.3261 15.1583C10.2744 15.4126 10.295 15.6764 10.3854 15.9197C10.4759 16.163 10.6326 16.3761 10.8378 16.535C11.0848 16.3927 11.2962 16.1961 11.456 15.9601C11.6158 15.7241 11.7199 15.4548 11.7605 15.1727ZM2.08718 5.6075C2.10818 5.42665 2.08578 5.2434 2.02185 5.07292C1.95792 4.90244 1.8543 4.74965 1.71957 4.6272C1.55976 4.67475 1.41763 4.7686 1.31115 4.8969C1.20466 5.0252 1.13859 5.18218 1.12129 5.34801C1.09909 5.52894 1.12091 5.71255 1.18492 5.88323C1.24892 6.05391 1.35321 6.2066 1.48891 6.32831C1.64824 6.27992 1.78986 6.18582 1.89621 6.05769C2.00257 5.92956 2.06897 5.77302 2.08718 5.6075V5.6075ZM1.47449 7.74831C1.49022 7.55723 1.4598 7.36516 1.38578 7.18828C1.31177 7.01141 1.19634 6.85491 1.04921 6.73197C0.915072 6.59533 0.750272 6.49266 0.568494 6.43248C0.386717 6.37231 0.193207 6.35637 0.00403283 6.38598C-0.0116952 6.57707 0.0187275 6.76914 0.0927386 6.94601C0.16675 7.12288 0.282182 7.27938 0.429312 7.40232C0.562747 7.53996 0.727472 7.64329 0.909456 7.70354C1.09144 7.76378 1.28529 7.77914 1.47449 7.74831ZM1.65469 7.71227C1.82616 7.77132 2.01038 7.78307 2.18796 7.74629C2.36554 7.7095 2.52993 7.62554 2.66383 7.50324C2.7963 7.38316 2.89226 7.22818 2.94071 7.05608C2.98915 6.88397 2.98812 6.70169 2.93774 6.53014C2.76747 6.47092 2.5843 6.45909 2.40783 6.49591C2.23135 6.53273 2.0682 6.61681 1.93581 6.73918C1.80346 6.85945 1.7071 7.01411 1.65747 7.18592C1.60783 7.35773 1.60687 7.53995 1.65469 7.71227V7.71227ZM2.2818 10.0045C2.26425 9.79301 2.19782 9.58854 2.08774 9.40716C1.97766 9.22578 1.82695 9.07245 1.64748 8.95928C1.48317 8.83195 1.29008 8.74695 1.08521 8.71176C0.880332 8.67657 0.669948 8.69226 0.472561 8.75745C0.492773 8.96721 0.560372 9.16963 0.670256 9.34944C0.78014 9.52925 0.929437 9.68175 1.10688 9.79542C1.27142 9.92229 1.46416 10.0075 1.66872 10.0439C1.87328 10.0803 2.0836 10.0668 2.2818 10.0045ZM2.46921 9.92517C2.66525 9.96774 2.8694 9.953 3.05728 9.8827C3.24517 9.8124 3.40886 9.68952 3.5288 9.52872C3.6476 9.37202 3.72172 9.18606 3.7433 8.99061C3.76487 8.79516 3.7331 8.59751 3.65134 8.41867C3.45965 8.38191 3.2615 8.39957 3.07932 8.46964C2.89715 8.5397 2.73824 8.65938 2.62058 8.81512C2.49709 8.96904 2.41777 9.15364 2.39111 9.34917C2.36444 9.5447 2.39144 9.7438 2.46921 9.92517V9.92517ZM3.20444 12.2678C3.13229 12.0426 3.01069 11.8364 2.84856 11.6643C2.68643 11.4922 2.48785 11.3585 2.26738 11.2731C2.06835 11.1756 1.84735 11.1316 1.62616 11.1456C1.40498 11.1595 1.19122 11.2307 1.00596 11.3524C1.07811 11.5776 1.19971 11.7837 1.36184 11.9559C1.52398 12.128 1.72255 12.2616 1.94302 12.3471C2.1426 12.4425 2.36326 12.4853 2.58404 12.4714C2.80481 12.4576 3.01838 12.3875 3.20444 12.2678V12.2678ZM3.19723 10.8766C3.11961 11.0852 3.09544 11.3099 3.12692 11.5303C3.15839 11.7506 3.24452 11.9595 3.37743 12.1381C3.58927 12.1246 3.79246 12.049 3.96166 11.9209C4.13085 11.7927 4.25858 11.6175 4.32891 11.4172C4.40954 11.2096 4.43596 10.9848 4.4057 10.7641C4.37543 10.5435 4.28947 10.3341 4.15591 10.1558C3.94308 10.1689 3.73876 10.2441 3.56832 10.3723C3.39789 10.5004 3.26885 10.6758 3.19723 10.8766ZM3.5288 13.1904C3.32053 13.1201 3.09729 13.1064 2.88196 13.1507C2.66663 13.195 2.46697 13.2958 2.30342 13.4427C2.4043 13.6576 2.55171 13.8473 2.73497 13.9982C2.91824 14.149 3.13277 14.2572 3.36302 14.3149C3.56937 14.3871 3.79137 14.4025 4.0057 14.3594C4.22004 14.3163 4.41882 14.2162 4.58119 14.0698C4.48191 13.8544 4.33599 13.6638 4.15398 13.5117C3.97197 13.3596 3.75843 13.2499 3.5288 13.1904V13.1904ZM4.70373 13.9185C4.90927 13.8744 5.09737 13.7711 5.24472 13.6211C5.39206 13.4712 5.49218 13.2814 5.53266 13.0751C5.58225 12.8548 5.57661 12.6257 5.51625 12.4082C5.45588 12.1906 5.34267 11.9913 5.18667 11.8281C4.97884 11.8714 4.7885 11.9753 4.63968 12.1267C4.49086 12.278 4.39024 12.4701 4.35053 12.6787C4.30915 12.8986 4.31953 13.1251 4.38083 13.3402C4.44213 13.5554 4.55268 13.7534 4.70373 13.9185ZM6.66434 15.5115C6.49382 15.3206 6.28145 15.1719 6.04385 15.0769C5.80625 14.9818 5.54987 14.9431 5.29479 14.9636C5.0645 14.9678 4.84022 15.0379 4.64857 15.1656C4.45692 15.2934 4.30595 15.4735 4.21358 15.6845C4.38339 15.8766 4.59545 16.0267 4.83309 16.123C5.07073 16.2193 5.32747 16.2592 5.58312 16.2395C5.81443 16.2356 6.03967 16.1648 6.23156 16.0356C6.42346 15.9064 6.57378 15.7243 6.66434 15.5115V15.5115ZM6.74363 15.288C6.93298 15.1469 7.0778 14.9543 7.16086 14.7333C7.24392 14.5122 7.26173 14.2719 7.21215 14.041C7.17993 13.7877 7.09133 13.5448 6.95286 13.3303C6.8144 13.1157 6.6296 12.9349 6.41205 12.8012C6.22406 12.9435 6.08025 13.1362 5.99733 13.3569C5.9144 13.5776 5.89574 13.8173 5.94353 14.0482C5.97575 14.3015 6.06435 14.5444 6.20282 14.759C6.34128 14.9735 6.52608 15.1543 6.74363 15.288V15.288ZM6.41205 17.0035C6.59933 17.2144 6.83262 17.3793 7.09385 17.4856C7.35509 17.5918 7.63727 17.6365 7.91855 17.6162C8.17484 17.6079 8.42315 17.5251 8.6331 17.3779C8.84305 17.2306 9.00553 17.0254 9.10068 16.7873C8.91557 16.5761 8.68348 16.4113 8.42308 16.3062C8.16269 16.201 7.88125 16.1584 7.60139 16.1818C7.34468 16.1882 7.0954 16.2693 6.88413 16.4152C6.67287 16.5612 6.5088 16.7657 6.41205 17.0035V17.0035ZM8.78353 13.8031C8.57552 13.958 8.4166 14.1696 8.32582 14.4125C8.23505 14.6554 8.21627 14.9194 8.27175 15.1727C8.31229 15.4548 8.41641 15.7241 8.57624 15.9601C8.73607 16.1961 8.94744 16.3927 9.19439 16.535C9.39964 16.3761 9.55634 16.163 9.64678 15.9197C9.73722 15.6764 9.75779 15.4126 9.70616 15.1583C9.66667 14.8767 9.5629 14.6081 9.40291 14.3731C9.24292 14.1381 9.03098 13.9431 8.78353 13.8031V13.8031Z" />
<path d="M11.0036 5.00203L10.0161 2.99817L9.02856 5.00203L6.82288 5.31918L8.42308 6.87614L8.04105 9.07462L10.0161 8.03665L11.9911 9.07462L11.6091 6.87614L13.2093 5.31918L11.0036 5.00203Z" />
<path d="M15.8619 6.19137C15.8619 5.03518 15.519 3.90496 14.8767 2.94363C14.2343 1.98229 13.3213 1.23302 12.2532 0.790568C11.185 0.348114 10.0096 0.232348 8.87562 0.457909C7.74165 0.68347 6.70003 1.24023 5.88248 2.05778C5.06493 2.87532 4.50818 3.91694 4.28262 5.05091C4.05706 6.18489 4.17282 7.36028 4.61527 8.42846C5.05773 9.49663 5.807 10.4096 6.76833 11.052C7.72967 11.6943 8.85989 12.0372 10.0161 12.0372C11.5659 12.0353 13.0517 11.4187 14.1476 10.3229C15.2435 9.22697 15.86 7.74118 15.8619 6.19137ZM10.0161 10.5955C9.14502 10.5955 8.29352 10.3372 7.56926 9.8533C6.845 9.36936 6.2805 8.68153 5.94716 7.87677C5.61382 7.07202 5.5266 6.18648 5.69654 5.33216C5.86647 4.47784 6.28593 3.69309 6.90186 3.07716C7.5178 2.46122 8.30254 2.04177 9.15687 1.87183C10.0112 1.7019 10.8967 1.78911 11.7015 2.12245C12.5062 2.4558 13.1941 3.02029 13.678 3.74455C14.1619 4.46881 14.4202 5.32031 14.4202 6.19137C14.4183 7.35884 13.9537 8.47795 13.1282 9.30348C12.3027 10.129 11.1835 10.5936 10.0161 10.5955Z" />
</svg>
