<svg width="18" height="25" viewBox="0 0 18 25" fill="none" xmlns="http://www.w3.org/2000/svg">
<path d="M14.9597 4.6021H12.7202V4.40716C12.72 3.99389 12.5535 3.59742 12.2567 3.30411C11.96 3.0108 11.5572 2.84443 11.136 2.84121H10.7262C10.6985 2.30708 10.4627 1.80379 10.0677 1.43535C9.67258 1.0669 9.14836 0.86145 8.60332 0.86145C8.05827 0.86145 7.53405 1.0669 7.13898 1.43535C6.7439 1.80379 6.50817 2.30708 6.48048 2.84121H6.07058C5.64942 2.84443 5.24661 3.0108 4.9499 3.30411C4.65318 3.59742 4.48659 3.99389 4.48643 4.40716V4.6021H2.24694C0.994828 4.6021 7.035e-05 5.61125 7.035e-05 6.83988V22.158C-0.00226776 22.4483 0.0536964 22.7362 0.164767 23.0053C0.275838 23.2745 0.43984 23.5195 0.647409 23.7264C0.854978 23.9333 1.10205 24.0981 1.37451 24.2113C1.64698 24.3245 1.9395 24.3839 2.23538 24.3862H14.9597C15.5572 24.3846 16.1296 24.1502 16.551 23.7345C16.9723 23.3188 17.2081 22.7559 17.2066 22.1696C17.2066 22.1658 17.2066 22.162 17.2066 22.1582V6.83988C17.2066 5.61125 16.2118 4.6021 14.9597 4.6021ZM8.60332 1.89681C8.86776 1.89921 9.12214 1.99665 9.3183 2.17069C9.51446 2.34472 9.63881 2.58328 9.6678 2.84121H7.53884C7.56783 2.58328 7.69217 2.34472 7.88833 2.17069C8.0845 1.99665 8.33887 1.89921 8.60332 1.89681ZM5.54204 4.40716C5.5419 4.2685 5.59717 4.13531 5.69599 4.0362C5.79481 3.93708 5.9293 3.87993 6.07058 3.87703H11.136C11.2773 3.87993 11.4118 3.93708 11.5106 4.0362C11.6095 4.13531 11.6647 4.2685 11.6646 4.40716V6.46658H5.54204V4.40716ZM16.1509 22.158C16.1534 22.3121 16.125 22.4653 16.0671 22.6086C16.0093 22.752 15.9233 22.8827 15.814 22.9935C15.7046 23.1042 15.5741 23.1927 15.4299 23.254C15.2858 23.3152 15.1307 23.348 14.9736 23.3504C14.9689 23.3504 14.9643 23.3504 14.9597 23.3504H2.24694C1.92967 23.3491 1.62593 23.2241 1.40253 23.0031C1.17913 22.782 1.05436 22.4829 1.05568 22.1716V22.158V6.83988C1.05568 6.1824 1.57689 5.63792 2.24694 5.63792H4.48643V7.00411C4.48694 7.07009 4.50069 7.13531 4.52689 7.19607C4.55309 7.25683 4.59123 7.31193 4.63914 7.35822C4.68704 7.40452 4.74377 7.4411 4.80608 7.46588C4.86839 7.49066 4.93507 7.50316 5.0023 7.50265C5.00653 7.50265 5.01075 7.50265 5.01497 7.50265H12.1917C12.2589 7.50482 12.3259 7.49397 12.3889 7.47071C12.4518 7.44745 12.5095 7.41224 12.5586 7.36709C12.6077 7.32194 12.6472 7.26775 12.675 7.2076C12.7027 7.14745 12.7181 7.08253 12.7202 7.01654C12.7202 7.0124 12.7202 7.00826 12.7202 7.00411V5.63792H14.9597C15.6297 5.63792 16.1509 6.1824 16.1509 6.83988V22.158Z" />
<path d="M3.56882 18.0677H8.49257C8.63255 18.0677 8.7668 18.0131 8.86579 17.916C8.96477 17.8189 9.02038 17.6871 9.02038 17.5498C9.02038 17.4124 8.96477 17.2807 8.86579 17.1836C8.7668 17.0864 8.63255 17.0319 8.49257 17.0319H3.56882C3.42884 17.0319 3.29459 17.0864 3.19561 17.1836C3.09662 17.2807 3.04102 17.4124 3.04102 17.5498C3.04102 17.6871 3.09662 17.8189 3.19561 17.916C3.29459 18.0131 3.42884 18.0677 3.56882 18.0677Z" />
<path d="M13.638 19.5697H3.56882C3.42884 19.5697 3.29459 19.6243 3.19561 19.7214C3.09662 19.8185 3.04102 19.9503 3.04102 20.0876C3.04102 20.225 3.09662 20.3567 3.19561 20.4538C3.29459 20.551 3.42884 20.6055 3.56882 20.6055H13.638C13.778 20.6055 13.9122 20.551 14.0112 20.4538C14.1102 20.3567 14.1658 20.225 14.1658 20.0876C14.1658 19.9503 14.1102 19.8185 14.0112 19.7214C13.9122 19.6243 13.778 19.5697 13.638 19.5697Z" />
<path d="M7.71334 12.4744H6.52256C6.41653 12.4754 6.31323 12.5075 6.22586 12.5665C6.1385 12.6255 6.07105 12.7087 6.03213 12.8054C5.9932 12.9022 5.98458 13.0082 6.00736 13.1098C6.03014 13.2114 6.08329 13.3041 6.16001 13.3759L9.13631 16.1368C9.23791 16.2312 9.37354 16.282 9.51336 16.2782C9.65318 16.2745 9.78575 16.2163 9.88189 16.1166C9.97803 16.0169 10.0299 15.8838 10.026 15.7466C10.0221 15.6094 9.9629 15.4794 9.8613 15.385L7.84561 13.5068C8.3457 13.4801 8.82327 13.294 9.20582 12.9768C9.58838 12.6597 9.85504 12.2287 9.96533 11.7493H10.684C10.824 11.7493 10.9582 11.6947 11.0572 11.5976C11.1562 11.5005 11.2118 11.3688 11.2118 11.2314C11.2118 11.094 11.1562 10.9623 11.0572 10.8652C10.9582 10.7681 10.824 10.7135 10.684 10.7135H9.96502C9.90578 10.4716 9.79994 10.2431 9.65319 10.0402H10.6838C10.8238 10.0402 10.9581 9.98565 11.0571 9.88852C11.156 9.79139 11.2116 9.65966 11.2116 9.5223C11.2116 9.38495 11.156 9.25321 11.0571 9.15609C10.9581 9.05896 10.8238 9.00439 10.6838 9.00439H6.52256C6.38257 9.00439 6.24832 9.05896 6.14934 9.15609C6.05036 9.25321 5.99475 9.38495 5.99475 9.5223C5.99475 9.65966 6.05036 9.79139 6.14934 9.88852C6.24832 9.98565 6.38257 10.0402 6.52256 10.0402H7.71334C8.2184 10.0402 8.65458 10.2992 8.85446 10.7135H6.52256C6.38257 10.7135 6.24832 10.7681 6.14934 10.8652C6.05036 10.9623 5.99475 11.094 5.99475 11.2314C5.99475 11.3688 6.05036 11.5005 6.14934 11.5976C6.24832 11.6947 6.38257 11.7493 6.52256 11.7493H8.85446C8.65458 12.2154 8.2184 12.4744 7.71334 12.4744Z" />
</svg>
