<svg width="90" height="100" viewBox="0 0 90 100" fill="none" xmlns="http://www.w3.org/2000/svg">
<g clip-path="url(#clip0_922_2373)">
<path d="M31.2806 80.3232C31.9059 80.6605 32.6125 80.8161 33.3211 80.7725C34.0297 80.7289 34.7122 80.4878 35.2917 80.0764C35.8712 79.665 36.3249 79.0995 36.6018 78.4436C36.8786 77.7876 36.9676 77.0672 36.8587 76.3633C36.7498 75.6594 36.4474 74.9999 35.9855 74.459C35.5236 73.9181 34.9204 73.5172 34.2439 73.3013C33.5673 73.0855 32.8442 73.0633 32.1558 73.2372C31.4673 73.4112 30.8409 73.7743 30.3469 74.2859L33.4508 76.2132C33.5466 76.2644 33.6316 76.3339 33.7006 76.418C33.7697 76.502 33.8217 76.5989 33.8534 76.7031C33.8852 76.8073 33.8962 76.9167 33.8858 77.0252C33.8755 77.1336 33.8439 77.239 33.7929 77.3352C33.742 77.4314 33.6727 77.5166 33.5889 77.5859C33.5051 77.6552 33.4086 77.7073 33.3047 77.7392C33.2009 77.7711 33.0918 77.7822 32.9837 77.7717C32.8756 77.7613 32.7707 77.7297 32.6748 77.6785L29.3419 76.1928C29.1773 76.999 29.2772 77.837 29.6267 78.5815C29.9761 79.326 30.5563 79.937 31.2806 80.3232Z" fill="#FF4C00"/>
<path d="M33.5195 77.1833C33.5653 77.094 33.5837 76.9932 33.5726 76.8934C33.5615 76.7936 33.5214 76.6993 33.4572 76.6223C33.3929 76.5453 33.3075 76.4891 33.2116 76.4605C33.1157 76.432 33.0135 76.4324 32.9178 76.4619C32.8221 76.4913 32.7372 76.5484 32.6737 76.626C32.6102 76.7035 32.5709 76.7982 32.5607 76.8981C32.5506 76.998 32.57 77.0986 32.6165 77.1875C32.6631 77.2764 32.7347 77.3495 32.8224 77.3978C32.882 77.4305 32.9476 77.451 33.0152 77.4579C33.0828 77.4649 33.1511 77.4581 33.2161 77.4381C33.2811 77.4182 33.3414 77.3853 33.3935 77.3415C33.4456 77.2978 33.4885 77.244 33.5195 77.1833Z" fill="#FF4C00"/>
<path d="M40.5617 52.2249H2.21852C1.63052 52.2275 1.0674 52.4633 0.651854 52.8807C0.236309 53.2981 0.00200761 53.8634 0 54.4534V73.8418C0.0370291 74.5104 0.230163 75.161 0.56382 75.741C0.897477 76.321 1.36232 76.8142 1.92085 77.1808L30.1611 93.5441L40.8466 99.7372C41.9025 100.35 42.7675 99.8495 42.7675 98.6267V54.4636C42.7682 53.8741 42.5368 53.3081 42.1237 52.8888C41.7106 52.4695 41.1492 52.2309 40.5617 52.2249ZM38.8342 77.3901L38.2236 77.5382C38.1798 77.9175 38.0945 78.2907 37.9692 78.6512L38.4577 79.0495C38.5043 79.0904 38.5361 79.1456 38.5481 79.2066C38.56 79.2676 38.5515 79.3308 38.5238 79.3864L38.1524 80.0935C38.1212 80.1469 38.0736 80.1888 38.0167 80.2127C37.9598 80.2366 37.8967 80.2414 37.8369 80.2263L37.2365 80.045C37.0087 80.3522 36.7486 80.6338 36.4605 80.8849L36.6818 81.4746C36.7022 81.5331 36.7025 81.5968 36.6827 81.6556C36.6629 81.7143 36.6241 81.7647 36.5724 81.7988L35.9008 82.2226C35.8478 82.2541 35.7859 82.2672 35.7247 82.2598C35.6635 82.2524 35.6065 82.2249 35.5624 82.1817L35.1274 81.7222C34.7778 81.8743 34.4126 81.9873 34.0384 82.0592L33.9392 82.6821C33.9269 82.7424 33.8954 82.7971 33.8496 82.838C33.8037 82.8789 33.7459 82.9039 33.6848 82.9093L32.891 82.9399C32.829 82.9398 32.7688 82.9193 32.7196 82.8814C32.6704 82.8436 32.635 82.7906 32.6188 82.7306L32.4712 82.1204C32.0925 82.0761 31.7197 81.9905 31.3594 81.8652L30.9625 82.3553C30.9223 82.4019 30.8678 82.434 30.8075 82.4464C30.7473 82.4589 30.6846 82.4511 30.6293 82.4242L29.9245 82.049C29.8715 82.0181 29.8299 81.9708 29.8061 81.9142C29.7822 81.8575 29.7773 81.7946 29.7922 81.735L29.9729 81.13C29.6661 80.9022 29.3853 80.6411 29.1358 80.3514L28.5481 80.5735C28.4901 80.5946 28.4267 80.5955 28.368 80.5761C28.3094 80.5566 28.259 80.5179 28.225 80.4662L27.8027 79.7898C27.7712 79.7364 27.7583 79.6741 27.7661 79.6125C27.774 79.551 27.8021 79.4939 27.8459 79.4502L28.3013 79.0163C28.1501 78.6654 28.0375 78.299 27.9655 77.9237L27.3447 77.8241C27.2845 77.8121 27.2297 77.7807 27.1889 77.7346C27.148 77.6885 27.1232 77.6303 27.1183 77.5688L27.0878 76.7724C27.088 76.7103 27.1081 76.6499 27.1453 76.6003C27.1824 76.5506 27.2345 76.5143 27.2939 76.4967L27.907 76.3512C27.9368 76.103 27.9844 75.8573 28.0495 75.616L24.05 73.829C23.627 74.4022 23.1424 74.927 22.6049 75.3939L23.0222 76.4916C23.0593 76.6012 23.0595 76.7201 23.0227 76.8298C22.9859 76.9396 22.9142 77.0342 22.8187 77.0991L21.5618 77.893C21.4619 77.9509 21.3458 77.9743 21.2313 77.9596C21.1169 77.9448 21.0104 77.8927 20.9283 77.8114L20.1193 76.9562C19.4657 77.2393 18.7832 77.4499 18.084 77.5842L17.8957 78.7482C17.8736 78.8618 17.8147 78.9649 17.7282 79.0416C17.6417 79.1182 17.5325 79.164 17.4174 79.172L15.9367 79.2281C15.8212 79.2284 15.7088 79.1905 15.6169 79.1204C15.525 79.0503 15.4585 78.9518 15.4278 78.8401L15.1531 77.6965C14.4459 77.6143 13.7498 77.4551 13.077 77.2217L12.3367 78.133C12.2607 78.2201 12.1583 78.2798 12.0452 78.3029C11.9322 78.3259 11.8147 78.3111 11.7108 78.2606L10.4006 77.5612C10.2992 77.5049 10.2192 77.4166 10.1732 77.3099C10.1271 77.2032 10.1176 77.0842 10.1461 76.9715L10.482 75.8432C9.91013 75.4184 9.38707 74.9312 8.92241 74.3906L7.82587 74.8093C7.71666 74.8474 7.59791 74.848 7.48831 74.8111C7.3787 74.7741 7.28444 74.7016 7.22036 74.6051L6.42912 73.344C6.37141 73.2437 6.34812 73.1272 6.36283 73.0124C6.37754 72.8975 6.42943 72.7907 6.51053 72.7084L7.36283 71.8966C7.08065 71.2408 6.87079 70.5559 6.73696 69.8543L5.57682 69.6654C5.46412 69.6412 5.36238 69.5807 5.28707 69.4932C5.21176 69.4056 5.16699 69.2958 5.15958 69.1804L5.10615 67.6921C5.10575 67.5766 5.1431 67.4641 5.21248 67.3719C5.28187 67.2797 5.37946 67.2128 5.49032 67.1816L6.63265 66.9084C6.71327 66.1987 6.87197 65.5001 7.10587 64.8254L6.1976 64.0825C6.11061 64.0069 6.05096 63.9046 6.02795 63.7915C6.00495 63.6784 6.01987 63.5608 6.07039 63.4571L6.76495 62.1373C6.81895 62.0336 6.90678 61.9517 7.01376 61.9052C7.12074 61.8588 7.24037 61.8506 7.35265 61.882L8.47718 62.2164C8.89905 61.6415 9.38472 61.1165 9.92481 60.6516L9.50756 59.5488C9.46994 59.4398 9.46925 59.3214 9.5056 59.212C9.54194 59.1026 9.61329 59.0083 9.70855 58.9438L10.9806 58.1499C11.0806 58.092 11.1967 58.0686 11.3111 58.0833C11.4256 58.0981 11.532 58.1502 11.6141 58.2315L12.4206 59.0867C13.0743 58.8038 13.7568 58.5932 14.456 58.4587L14.6442 57.2921C14.6668 57.1787 14.7257 57.0758 14.8121 56.9993C14.8985 56.9227 15.0076 56.8767 15.1225 56.8684L16.6058 56.8148C16.722 56.8114 16.8359 56.848 16.9285 56.9186C17.0211 56.9892 17.0868 57.0895 17.1146 57.2028L17.3894 58.3464C18.0962 58.4258 18.7918 58.5851 19.4629 58.8212L20.2058 57.9073C20.2819 57.8212 20.384 57.7624 20.4965 57.7398C20.609 57.7172 20.7258 57.7321 20.8291 57.7823L22.1419 58.4792C22.243 58.5357 22.3227 58.6242 22.3687 58.7308C22.4147 58.8373 22.4244 58.9562 22.3963 59.0689L22.0605 60.1972C22.633 60.6212 23.1561 61.1084 23.6201 61.6497L24.7166 61.2311C24.7837 61.2107 24.8543 61.2046 24.9239 61.2129C24.9935 61.2213 25.0607 61.2439 25.1211 61.2796C25.2003 61.3133 25.2702 61.3659 25.3247 61.4327L26.1108 62.6964C26.1713 62.7952 26.1964 62.9117 26.1821 63.0268C26.1677 63.1418 26.1148 63.2486 26.0319 63.3294L25.1568 64.1616C25.4404 64.8172 25.6511 65.502 25.7852 66.2039L26.9453 66.3928C27.0587 66.4146 27.1617 66.4735 27.2381 66.5604C27.3146 66.6472 27.3601 66.7571 27.3676 66.8727L27.4236 68.361C27.4243 68.4769 27.3867 68.5899 27.3168 68.6822C27.2468 68.7746 27.1484 68.8411 27.0369 68.8715L25.8971 69.1472C25.8122 69.8549 25.6492 70.551 25.4112 71.2226L29.1511 73.5482C29.3073 73.354 29.4774 73.1714 29.6599 73.0019L29.436 72.4097C29.4163 72.3515 29.4163 72.2883 29.4361 72.2301C29.4559 72.172 29.4944 72.122 29.5454 72.088L30.2196 71.6617C30.2731 71.6304 30.3354 71.6179 30.3967 71.6262C30.458 71.6346 30.5148 71.6632 30.558 71.7077L30.9905 72.1646C31.3399 72.0121 31.7051 71.8991 32.0794 71.8276L32.1812 71.2048C32.1919 71.1434 32.2227 71.0875 32.2689 71.0458C32.315 71.0042 32.3737 70.9792 32.4356 70.975L33.2294 70.9469C33.2912 70.9464 33.3513 70.9664 33.4006 71.0038C33.4498 71.0412 33.4853 71.0939 33.5016 71.1537L33.6492 71.7664C34.028 71.8101 34.4009 71.8957 34.761 72.0217L35.1579 71.5315C35.1985 71.4853 35.2531 71.4538 35.3133 71.4418C35.3736 71.4298 35.4361 71.438 35.4912 71.4652L36.1959 71.8379C36.2494 71.8688 36.2914 71.9166 36.3153 71.9737C36.3392 72.0309 36.3437 72.0944 36.3282 72.1544L36.1501 72.7569C36.4556 72.9862 36.7354 73.2481 36.9846 73.538L37.5723 73.3134C37.6304 73.2931 37.6936 73.2926 37.752 73.312C37.8104 73.3314 37.8608 73.3696 37.8954 73.4206L38.3203 74.0971C38.3503 74.1513 38.3624 74.2137 38.3546 74.2752C38.3468 74.3368 38.3196 74.3942 38.277 74.4391L37.8191 74.8706C37.9711 75.222 38.0837 75.5893 38.1549 75.9657L38.7782 76.0653C38.8382 76.0774 38.8926 76.1089 38.9331 76.155C38.9735 76.2011 38.9978 76.2593 39.0021 76.3205L39.0327 77.117C39.0336 77.178 39.0148 77.2376 38.979 77.2869C38.9432 77.3362 38.8924 77.3724 38.8342 77.3901Z" fill="#FF4C00"/>
<path d="M40.8619 0.255201L1.92085 22.8192C1.3626 23.1861 0.897969 23.6794 0.564348 24.2593C0.230727 24.8393 0.0374269 25.4897 0 26.1582V45.5594C0.00201177 46.1491 0.236396 46.7141 0.652013 47.1312C1.06763 47.5482 1.63075 47.7834 2.21852 47.7854H40.5617C41.1497 47.7834 41.7131 47.5483 42.1291 47.1313C42.5451 46.7144 42.7801 46.1494 42.7828 45.5594V1.39629C42.7828 0.150537 41.9177 -0.35236 40.8619 0.255201Z" fill="#FF4C00"/>
<path d="M29.5606 43.0295H13.4738C11.408 43.03 9.42188 42.2297 7.93008 40.7959H16.476C16.6247 40.9929 16.8115 41.1578 17.0253 41.2806C17.2391 41.4035 17.4754 41.4817 17.72 41.5106C17.7948 41.5252 17.8705 41.5346 17.9465 41.5387C18.2622 41.5404 18.5731 41.4609 18.8495 41.3079C19.1259 41.1548 19.3587 40.9334 19.5257 40.6645C19.6927 40.3957 19.7883 40.0884 19.8035 39.772C19.8187 39.4556 19.7528 39.1406 19.6123 38.8569C19.4718 38.5732 19.2613 38.3304 19.0008 38.1514C18.7403 37.9725 18.4384 37.8635 18.124 37.8347C17.8096 37.8059 17.4931 37.8584 17.2046 37.987C16.9161 38.1157 16.6653 38.3164 16.476 38.5698H6.29928C5.78017 37.5403 5.4887 36.4104 5.44479 35.2574C5.40088 34.1044 5.60557 32.9555 6.04486 31.8892H16.476C16.7086 32.2013 17.0333 32.4319 17.4039 32.5484C17.7745 32.665 18.1723 32.6615 18.5408 32.5385C18.9094 32.4155 19.2299 32.1792 19.4571 31.8631C19.6843 31.547 19.8066 31.1672 19.8066 30.7775C19.8066 30.3878 19.6843 30.008 19.4571 29.6919C19.2299 29.3758 18.9094 29.1395 18.5408 29.0165C18.1723 28.8935 17.7745 28.89 17.4039 29.0065C17.0333 29.1231 16.7086 29.3537 16.476 29.6657H7.41362C8.56295 28.3354 10.1153 27.4198 11.8328 27.0594C12.6665 25.446 13.8877 24.0663 15.3859 23.0451C16.8841 22.0239 18.6123 21.3932 20.4143 21.21C22.2163 21.0268 24.0355 21.297 25.7074 21.996C27.3793 22.695 28.8513 23.8008 29.9906 25.2137H21.8213C21.5885 24.9028 21.2642 24.6732 20.8942 24.5574C20.5242 24.4417 20.1273 24.4456 19.7597 24.5687C19.392 24.6918 19.0723 24.9278 18.8458 25.2433C18.6192 25.5588 18.4973 25.9378 18.4973 26.3267C18.4973 26.7156 18.6192 27.0946 18.8458 27.4101C19.0723 27.7256 19.392 27.9616 19.7597 28.0847C20.1273 28.2078 20.5242 28.2118 20.8942 28.096C21.2642 27.9803 21.5885 27.7507 21.8213 27.4397H32.4788C33.8568 27.976 35.0607 28.883 35.9584 30.0612C36.8561 31.2393 37.4127 32.6429 37.5671 34.1178H21.8213C21.5884 33.8061 21.2637 33.5758 20.8931 33.4595C20.5226 33.3432 20.1249 33.3469 19.7566 33.4701C19.3882 33.5932 19.0678 33.8295 18.8408 34.1455C18.6138 34.4615 18.4916 34.8412 18.4916 35.2308C18.4916 35.6204 18.6138 36.0001 18.8408 36.3161C19.0678 36.6321 19.3882 36.8684 19.7566 36.9915C20.1249 37.1147 20.5226 37.1184 20.8931 37.0021C21.2637 36.8859 21.5884 36.6556 21.8213 36.3438H37.4781C37.1545 38.2154 36.1828 39.9122 34.7344 41.1353C33.286 42.3584 31.4537 43.0292 29.5606 43.0295Z" fill="white"/>
<path d="M88.0816 22.8194L49.1406 0.255355C48.0847 -0.357312 47.2197 0.145586 47.2197 1.36837V45.5493C47.2217 46.1395 47.4565 46.7049 47.8726 47.122C48.2888 47.5391 48.8526 47.774 49.4408 47.7753H87.784C88.3717 47.7733 88.9349 47.5381 89.3505 47.1211C89.7661 46.7041 90.0005 46.1391 90.0025 45.5493V26.1482C89.9635 25.4814 89.7695 24.833 89.4359 24.255C89.1024 23.6769 88.6386 23.1853 88.0816 22.8194Z" fill="#FF4C00"/>
<path d="M75.2769 25.1908L78.9507 23.0617C78.995 23.0357 79.0441 23.0187 79.0951 23.0118C79.146 23.0049 79.1978 23.0082 79.2475 23.0215C79.2972 23.0348 79.3437 23.0578 79.3845 23.0893C79.4252 23.1207 79.4594 23.1599 79.4849 23.2047C79.5364 23.2943 79.5509 23.4006 79.5252 23.5009C79.4995 23.6011 79.4358 23.6872 79.3476 23.7408L75.6712 25.8698C75.6112 25.903 75.5439 25.9205 75.4753 25.9208C75.3896 25.9199 75.3065 25.8908 75.2389 25.838C75.1712 25.7852 75.1226 25.7115 75.1007 25.6284C75.0788 25.5452 75.0846 25.4571 75.1173 25.3776C75.1501 25.2981 75.2079 25.2316 75.282 25.1882L75.2769 25.1908Z" fill="white"/>
<path d="M71.5675 21.76L73.6894 18.0712C73.7132 18.0231 73.7466 17.9803 73.7875 17.9456C73.8284 17.9109 73.876 17.885 73.9273 17.8695C73.9786 17.854 74.0325 17.8492 74.0857 17.8554C74.1389 17.8616 74.1903 17.8788 74.2367 17.9057C74.283 17.9326 74.3234 17.9688 74.3553 18.012C74.3871 18.0552 74.4098 18.1045 74.422 18.1569C74.4341 18.2092 74.4354 18.2635 74.4258 18.3164C74.4162 18.3693 74.3959 18.4197 74.3661 18.4643L72.2443 22.1531C72.21 22.2127 72.1607 22.2623 72.1013 22.2968C72.0419 22.3313 71.9745 22.3495 71.9059 22.3497C71.8371 22.349 71.7696 22.3306 71.71 22.2961C71.6209 22.2433 71.5561 22.1576 71.5294 22.0573C71.5028 21.957 71.5165 21.8502 71.5675 21.76Z" fill="white"/>
<path d="M66.647 16.3887C66.647 16.2845 66.6883 16.1845 66.7617 16.1107C66.8352 16.037 66.9349 15.9956 67.0388 15.9956C67.1427 15.9956 67.2423 16.037 67.3158 16.1107C67.3893 16.1845 67.4306 16.2845 67.4306 16.3887V20.6468C67.4306 20.751 67.3893 20.851 67.3158 20.9248C67.2423 20.9985 67.1427 21.0399 67.0388 21.0399C66.9349 21.0399 66.8352 20.9985 66.7617 20.9248C66.6883 20.851 66.647 20.751 66.647 20.6468V16.3887Z" fill="white"/>
<path d="M59.8566 17.928C59.9465 17.8768 60.0529 17.8631 60.1529 17.8898C60.2528 17.9166 60.3383 17.9816 60.3909 18.071L62.5127 21.7598C62.5647 21.8502 62.5787 21.9575 62.5517 22.0583C62.5248 22.1591 62.459 22.245 62.369 22.2971C62.2789 22.3493 62.1718 22.3634 62.0714 22.3363C61.971 22.3093 61.8854 22.2433 61.8334 22.1529L59.7141 18.4667C59.6623 18.3762 59.6481 18.2688 59.6748 18.1679C59.7015 18.067 59.7668 17.9808 59.8566 17.928Z" fill="white"/>
<path d="M54.7429 23.7409C54.696 23.7165 54.6545 23.6828 54.6209 23.6419C54.5873 23.601 54.5623 23.5537 54.5474 23.5028C54.5325 23.4519 54.528 23.3986 54.5342 23.3459C54.5404 23.2933 54.5571 23.2424 54.5834 23.1964C54.6096 23.1505 54.6449 23.1103 54.687 23.0783C54.7292 23.0463 54.7773 23.0232 54.8286 23.0104C54.8799 22.9976 54.9332 22.9953 54.9853 23.0037C55.0375 23.0121 55.0874 23.031 55.1321 23.0593L58.8059 25.1883C58.8809 25.2311 58.9396 25.2976 58.9728 25.3774C59.006 25.4572 59.0118 25.5459 58.9894 25.6294C58.967 25.7129 58.9176 25.7866 58.8489 25.8389C58.7803 25.8912 58.6962 25.9192 58.61 25.9184C58.5422 25.919 58.4754 25.9014 58.4167 25.8673L54.7429 23.7409Z" fill="white"/>
<path d="M67.1916 45.95H67.0848C65.7592 45.95 64.2429 45.322 64.2429 44.3774H69.9342C69.9342 45.2939 68.4917 45.9091 67.1916 45.95Z" fill="white"/>
<path d="M70.9517 43.3488C70.9464 43.479 70.8899 43.6018 70.7945 43.6904C70.6992 43.7789 70.5727 43.8259 70.4429 43.821H63.6373C63.5074 43.8259 63.381 43.7789 63.2856 43.6904C63.1902 43.6018 63.1337 43.479 63.1284 43.3488V43.0348C63.1341 42.9125 63.1854 42.7969 63.2721 42.7108C63.3588 42.6247 63.4746 42.5745 63.5965 42.5702C63.6118 42.5702 63.622 42.5702 63.6373 42.5702H70.4429C70.5727 42.5653 70.6992 42.6123 70.7945 42.7008C70.8899 42.7893 70.9464 42.9122 70.9517 43.0424V43.3488Z" fill="white"/>
<path d="M74.366 34.6744C72.2925 38.427 71.7404 37.6739 71.402 39.7136C71.3486 40.0917 71.2582 40.4637 71.1323 40.8241C71.209 40.8595 71.2744 40.9154 71.3215 40.9856C71.3686 41.0559 71.3956 41.1377 71.3995 41.2223V41.5388C71.3847 41.6766 71.3168 41.8031 71.2103 41.8913C71.1038 41.9796 70.9672 42.0226 70.8296 42.0111H63.248C63.1051 42.0117 62.9662 41.9641 62.8536 41.8758L62.8383 41.863L62.8053 41.8324C62.7281 41.7569 62.6825 41.6546 62.6781 41.5465V41.23C62.6811 41.1468 62.7062 41.066 62.751 40.9959C62.7957 40.9259 62.8584 40.8692 62.9325 40.8317C62.809 40.4706 62.7187 40.0989 62.6628 39.7213C62.3244 37.679 61.7749 38.4449 59.6988 34.6821C58.9701 33.3887 58.5822 31.9302 58.5718 30.4445C58.6102 28.2198 59.518 26.0993 61.0995 24.5397C62.6811 22.9801 64.8098 22.1062 67.0273 22.1062C69.2448 22.1062 71.3736 22.9801 72.9551 24.5397C74.5367 26.0993 75.4444 28.2198 75.4829 30.4445C75.4757 31.9269 75.0913 33.3829 74.366 34.6744Z" fill="white"/>
<path d="M87.784 52.2249H49.4408C48.8521 52.2262 48.288 52.4614 47.8717 52.8791C47.4555 53.2967 47.2211 53.8628 47.2197 54.4534V98.6165C47.2197 99.8393 48.0847 100.34 49.1406 99.727L59.6582 93.636L64.5201 90.828L73.6511 85.5361L88.0816 77.1783C88.2406 77.0822 88.3912 76.9729 88.5319 76.8515C89.3715 76.1265 90.0025 74.8833 90.0025 73.8392V54.4534C90.0005 53.8634 89.7662 53.2981 89.3506 52.8807C88.9351 52.4633 88.372 52.2275 87.784 52.2249Z" fill="#FF4C00"/>
<path d="M76.9307 76.0855C76.9307 77.8341 72.57 79.2484 67.189 79.2484C61.8081 79.2484 57.45 77.8316 57.45 76.0855V69.3359L66.1383 71.5084C66.8294 71.6785 67.5512 71.6785 68.2423 71.5084L76.9307 69.3359V76.0855Z" fill="white"/>
<path d="M83.0798 66.4923L81.7568 66.8216V75.3376C82.1108 75.7401 82.3014 76.2612 82.2911 76.7978C82.2911 77.87 81.5889 78.7405 80.729 78.7405C79.8691 78.7405 79.1669 77.87 79.1669 76.7978C79.1578 76.2618 79.3473 75.7415 79.6986 75.3376V67.3372L76.9305 68.0265L68.0387 70.2525C67.761 70.3236 67.4755 70.3596 67.1889 70.3597C66.9032 70.3584 66.6188 70.3224 66.3417 70.2525L57.4498 68.0265L51.3006 66.4948C51.1395 66.4506 50.9962 66.3569 50.891 66.2268C50.7838 66.1072 50.7047 65.965 50.6595 65.8107C50.5093 65.2516 50.7256 64.5522 51.3031 64.4092L66.3443 60.6438C66.6209 60.5718 66.9057 60.5358 67.1915 60.5366C67.478 60.5377 67.7633 60.5737 68.0412 60.6438L83.0824 64.4092C83.2188 64.4479 83.3437 64.5195 83.4462 64.6179C83.5486 64.7162 83.6255 64.8383 83.6701 64.9734C83.8914 65.535 83.7031 66.3365 83.0798 66.4923Z" fill="white"/>
<path d="M15.3949 67.5975C15.2819 67.8139 15.2583 68.0661 15.3293 68.2997C15.4002 68.5333 15.56 68.7295 15.774 68.8459C15.8798 68.9025 15.9959 68.9375 16.1154 68.9488C16.2349 68.9601 16.3554 68.9474 16.47 68.9116C16.5846 68.8757 16.6909 68.8174 16.7828 68.7399C16.8747 68.6624 16.9503 68.5674 17.0053 68.4604C17.1183 68.2441 17.1419 67.9918 17.0709 67.7582C17 67.5246 16.8402 67.3284 16.6263 67.2121C16.5202 67.1561 16.4042 67.1216 16.2849 67.1107C16.1655 67.0998 16.0452 67.1126 15.9308 67.1484C15.8164 67.1842 15.7102 67.2423 15.6183 67.3194C15.5263 67.3965 15.4504 67.491 15.3949 67.5975Z" fill="#FF4C00"/>
<path d="M21.4957 72.7364L15.2193 69.9104C14.7251 69.6439 14.3557 69.1926 14.1913 68.6543C14.027 68.1161 14.081 67.5345 14.3415 67.036C14.4689 66.7894 14.6437 66.5706 14.8559 66.3923C15.0681 66.2139 15.3134 66.0795 15.5777 65.9969C15.842 65.9143 16.12 65.8851 16.3956 65.911C16.6712 65.9368 16.9389 66.0173 17.1834 66.1477L23.0222 69.8083C23.4223 68.2585 23.2923 66.6187 22.6529 65.1518C22.0135 63.685 20.9018 62.4759 19.496 61.7186C18.6767 61.2808 17.779 61.0104 16.8549 60.9231C15.9308 60.8358 14.9985 60.9332 14.1122 61.2098C13.2259 61.4864 12.403 61.9366 11.6912 62.5345C10.9794 63.1323 10.3929 63.8658 9.96556 64.6926C9.08966 66.365 8.90698 68.3168 9.45721 70.1236C10.0074 71.9305 11.2461 73.4465 12.9041 74.3421C14.3057 75.0904 15.919 75.339 17.4798 75.0473C19.0407 74.7556 20.4566 73.9408 21.4957 72.7364Z" fill="#FF4C00"/>
</g>
<defs>
<clipPath id="clip0_922_2373">
<rect width="90" height="100" fill="white"/>
</clipPath>
</defs>
</svg>
