<svg width="77" height="77" viewBox="0 0 77 77" fill="none" xmlns="http://www.w3.org/2000/svg">
<path d="M2.93888 0H28.9627C29.7411 0.00330908 30.4867 0.315001 31.0371 0.867209C31.5875 1.41942 31.8982 2.16742 31.9015 2.94835V28.9177C31.9015 29.6997 31.5919 30.4496 31.0408 31.0026C30.4896 31.5555 29.7421 31.8661 28.9627 31.8661H2.93888C2.55312 31.8664 2.17114 31.7899 1.81509 31.641C1.45905 31.4921 1.13602 31.2737 0.864744 30.9986L0.808347 30.942C0.289838 30.3964 0.000402214 29.6716 0 28.9177L0 2.94835C0.00329844 2.16742 0.313988 1.41942 0.864421 0.867209C1.41485 0.315001 2.16045 0.00330908 2.93888 0V0ZM56.0454 38.9384C58.2335 38.9327 60.4012 39.36 62.4245 40.1957H62.4683C66.2684 41.7871 69.3472 44.7328 71.1115 48.4656C72.8759 52.1983 73.201 56.454 72.0244 60.4129C71.6262 61.7605 71.0576 63.0514 70.3325 64.254L76.7867 71.32C76.8582 71.397 76.9138 71.4875 76.9503 71.5861C76.9868 71.6848 77.0035 71.7897 76.9994 71.8949C76.9953 72.0001 76.9706 72.1034 76.9265 72.1989C76.8825 72.2944 76.8201 72.3803 76.7429 72.4515L71.9993 76.7892C71.8445 76.9321 71.6396 77.0076 71.4294 76.9994C71.2193 76.9911 71.0209 76.8997 70.8777 76.7452L64.6991 69.9244C63.503 70.659 62.2186 71.2378 60.8767 71.6469C59.3092 72.1179 57.6817 72.3572 56.0454 72.3572C53.8594 72.3629 51.6937 71.9356 49.6726 71.0999H49.6288C45.558 69.3918 42.3269 66.1363 40.6419 62.045C38.9569 57.9538 38.955 53.3597 40.6367 49.267V49.223C41.9047 46.1732 44.0451 43.5686 46.7875 41.7381C49.5299 39.9077 52.7515 38.9334 56.0454 38.9384ZM65.4448 46.2244C64.2079 44.985 62.7412 44.0005 61.1274 43.3263H61.0898C58.6621 42.3273 55.9941 42.0712 53.4217 42.5903C50.8493 43.1094 48.4874 44.3803 46.6335 46.2433L46.5896 46.2873C45.3724 47.5196 44.4061 48.978 43.7448 50.5809V50.6186C43.0905 52.2273 42.7542 53.9482 42.7547 55.6855C42.7589 57.8786 43.3009 60.037 44.3331 61.9702C45.3652 63.9035 46.8557 65.5523 48.6731 66.7711C50.4904 67.9899 52.5788 68.7413 54.7541 68.959C56.9293 69.1767 59.1246 68.8541 61.1462 68.0196C62.7588 67.3431 64.2251 66.3589 65.4636 65.1215L65.5075 65.0775C66.7267 63.8468 67.6933 62.388 68.3524 60.7839V60.7461C69.6809 57.4888 69.6809 53.8383 68.3524 50.5809C67.6798 48.9588 66.6962 47.485 65.4573 46.2433L65.4448 46.2244ZM2.93888 39.7305H28.9627C29.7422 39.7338 30.4887 40.0463 31.0393 40.5999C31.5899 41.1535 31.8999 41.9031 31.9015 42.6851V68.6734C31.9024 69.0608 31.8269 69.4445 31.6795 69.8026C31.5321 70.1607 31.3157 70.4861 31.0426 70.76C30.7695 71.034 30.4452 71.2511 30.0883 71.399C29.7314 71.5469 29.3488 71.6226 28.9627 71.6217H2.93888C2.15944 71.6217 1.41192 71.3111 0.860777 70.7582C0.309631 70.2052 0 69.4553 0 68.6734L0 42.6851C0.00164799 41.9031 0.311609 41.1535 0.86222 40.5999C1.41283 40.0463 2.15937 39.7338 2.93888 39.7305ZM43.0993 0H69.1231C69.9015 0.00330908 70.6471 0.315001 71.1976 0.867209C71.748 1.41942 72.0587 2.16742 72.062 2.94835V28.9177C72.0587 29.6987 71.748 30.4467 71.1976 30.9989C70.6471 31.5511 69.9015 31.8628 69.1231 31.8661H43.0993C42.3209 31.8628 41.5753 31.5511 41.0249 30.9989C40.4744 30.4467 40.1638 29.6987 40.1605 28.9177V2.94835C40.1609 2.16811 40.4696 1.41986 41.0189 0.867532L41.0816 0.810954C41.6254 0.290773 42.3479 0.000403511 43.0993 0V0Z" fill="url(#paint0_linear_584_2426)"/>
<defs>
<linearGradient id="paint0_linear_584_2426" x1="38.5" y1="0" x2="38.5" y2="77" gradientUnits="userSpaceOnUse">
<stop stop-color="#FF2E00"/>
<stop offset="1" stop-color="#FF4005"/>
</linearGradient>
</defs>
</svg>
