<svg width="106" height="107" viewBox="0 0 106 107" fill="none" xmlns="http://www.w3.org/2000/svg">
<path d="M104.917 64.6267C103.91 62.9406 99.7768 57.9359 88.8465 64.3228L69.5035 75.6271C68.5077 76.2087 67.4749 76.617 66.3922 76.8538C66.7992 76.2222 67.116 75.5015 67.3301 74.6996C68.312 71.0224 66.1329 67.1832 62.3692 65.9592C62.2978 65.9361 62.225 65.9178 62.1512 65.9042C56.5886 64.8975 51.0999 62.9066 46.6901 61.307C45.1582 60.7513 43.7111 60.2264 42.4814 59.8264C37.5442 58.2191 33.0814 60.2107 29.3664 62.3703L14.9345 70.7599L13.8694 68.8713C13.277 67.8212 12.3097 67.0645 11.1456 66.7408C9.98156 66.4168 8.76394 66.566 7.71732 67.1604L2.28989 70.2422C0.123747 71.4723 -0.641276 74.2415 0.584676 76.4149L16.5404 104.702C17.1327 105.752 18.1 106.509 19.2643 106.833C19.6669 106.945 20.0758 107 20.4817 107C21.2499 107 22.0078 106.802 22.6924 106.413L28.1196 103.331C29.1663 102.737 29.9205 101.766 30.2431 100.598C30.5659 99.4298 30.4172 98.2081 29.8246 97.1584L27.8362 93.6329L31.1777 91.6973L55.9722 98.3634C57.3669 98.7383 58.736 98.9256 60.0752 98.9256C62.7456 98.9254 65.2983 98.1812 67.7009 96.6974L102.804 75.0099C105.982 73.0472 106.989 68.0979 104.917 64.6267ZM27.0314 99.7053C26.9909 99.8555 26.9212 99.9961 26.8262 100.119C26.7312 100.242 26.6128 100.345 26.478 100.421L21.0507 103.503C20.9158 103.58 20.767 103.629 20.613 103.647C20.4591 103.666 20.303 103.653 20.1539 103.611C20.0042 103.57 19.8641 103.5 19.7416 103.405C19.619 103.31 19.5166 103.191 19.4401 103.056L3.4846 74.7679C3.33061 74.4942 3.29115 74.1703 3.37487 73.8674C3.45859 73.5644 3.65864 73.3072 3.93115 73.1521L9.35858 70.0703C9.53371 69.9707 9.73154 69.9184 9.93282 69.9183C10.0403 69.9183 10.1484 69.9332 10.2554 69.9628C10.4051 70.0034 10.5452 70.0734 10.6677 70.1687C10.7902 70.2641 10.8926 70.3828 10.969 70.5181L26.9247 98.8056C27.0009 98.941 27.0496 99.0903 27.0679 99.2447C27.0862 99.3992 27.0738 99.5557 27.0314 99.7053ZM101.057 72.163L65.9538 93.8505C63.1576 95.5773 60.0898 96.0092 56.8347 95.134L31.3734 88.2886C31.1621 88.2317 30.9416 88.2171 30.7247 88.2458C30.5077 88.2745 30.2986 88.3459 30.1092 88.4558L26.1947 90.7233L16.5756 73.6702L31.0369 65.2635C34.2709 63.3833 37.7719 61.8086 41.4529 63.0071C42.6301 63.3899 43.9864 63.8821 45.5567 64.4516C50.0537 66.0829 55.6425 68.11 61.4395 69.1731C63.4885 69.8893 64.6341 71.8754 64.1109 73.8344C63.474 76.2195 61.594 76.6703 59.9734 76.5702C56.8018 75.9508 53.9509 75.1393 50.9628 74.2892C49.6782 73.9237 48.3497 73.5454 46.9528 73.1701C46.5259 73.0553 46.0711 73.1154 45.6884 73.3371C45.3057 73.5588 45.0264 73.924 44.912 74.3523C44.7976 74.7806 44.8575 75.2369 45.0785 75.6209C45.2995 76.0049 45.6634 76.2851 46.0903 76.3999C47.4637 76.7691 48.7802 77.1439 50.0533 77.506C52.8963 78.315 55.618 79.0897 58.632 79.7114C58.7849 79.7805 58.9473 79.826 59.1138 79.8464C59.2525 79.8637 59.39 79.878 59.5266 79.8895C60.1679 80.0126 60.811 80.126 61.4557 80.2297C65.0409 80.805 68.222 80.2445 71.1802 78.5167L90.5234 67.2124C96.1181 63.9431 100.43 63.619 102.057 66.3449C103.181 68.2266 102.676 71.1626 101.057 72.163ZM10.6389 75.012C10.6757 75.2647 10.6625 75.5221 10.6002 75.7696C10.5378 76.0172 10.4274 76.2499 10.2754 76.4547C10.1234 76.6594 9.93265 76.8321 9.7141 76.9629C9.49556 77.0937 9.25348 77.18 9.00169 77.2169C8.7499 77.2538 8.49333 77.2406 8.24663 77.178C7.99993 77.1154 7.76793 77.0047 7.56387 76.8522C7.35982 76.6996 7.1877 76.5083 7.05736 76.289C6.92702 76.0697 6.84099 75.8268 6.80421 75.5742C6.72991 75.064 6.86066 74.545 7.16769 74.1315C7.47473 73.7181 7.9329 73.4439 8.44141 73.3693C8.94992 73.2948 9.46712 73.426 9.87923 73.734C10.2913 74.0421 10.5646 74.5018 10.6389 75.012ZM45.304 32.0939C45.2043 31.6662 45.2763 31.2163 45.5044 30.8414C45.7326 30.4665 46.0987 30.1968 46.5235 30.0905C46.9483 29.9843 47.3977 30.05 47.7746 30.2735C48.1514 30.497 48.4255 30.8603 48.5376 31.285C49.0977 33.5401 51.4009 34.2876 53.2085 34.2464C54.7805 34.2088 56.2459 33.6625 56.9424 32.8546C57.3298 32.4051 57.4733 31.8879 57.3934 31.2271C57.2607 30.1314 56.6129 28.7922 52.7482 28.1555C47.2739 27.2537 45.9963 24.4097 45.8887 22.1826C45.7393 19.1007 47.8717 16.5219 51.1953 15.7654C51.2413 15.7549 51.288 15.7461 51.3344 15.7365V14.5409C51.3344 14.0975 51.51 13.6723 51.8225 13.3588C52.1349 13.0452 52.5588 12.8691 53.0007 12.8691C53.4426 12.8691 53.8664 13.0452 54.1789 13.3588C54.4914 13.6723 54.6669 14.0975 54.6669 14.5409V15.7213C56.8835 16.1587 59.0184 17.5258 60.1167 20.1504C60.2877 20.5592 60.29 21.0194 60.1229 21.4299C59.9558 21.8403 59.633 22.1674 59.2256 22.3391C58.8181 22.5107 58.3594 22.5129 57.9503 22.3453C57.5412 22.1776 57.2152 21.8537 57.0441 21.4448C56.0987 19.186 53.7974 18.6019 51.9324 19.0263C50.565 19.3375 49.1335 20.2875 49.2172 22.0204C49.2462 22.6172 49.3228 24.2026 53.2881 24.8561C57.8185 25.6023 60.3126 27.6102 60.7015 30.8241C60.8946 32.4195 60.4664 33.878 59.4631 35.042C58.3846 36.2932 56.6502 37.1567 54.6671 37.466V38.6075C54.6671 39.0509 54.4916 39.4761 54.1791 39.7896C53.8666 40.1032 53.4428 40.2793 53.0009 40.2793C52.559 40.2793 52.1351 40.1032 51.8227 39.7896C51.5102 39.4761 51.3346 39.0509 51.3346 38.6075V37.4399C48.3212 36.8909 46.0001 34.8949 45.304 32.0939ZM53.0007 47.2618C64.3696 47.2618 73.619 37.9813 73.619 26.5743C73.619 15.1673 64.3696 5.8868 53.0007 5.8868C41.6318 5.8868 32.3824 15.1673 32.3824 26.5743C32.3824 37.9813 41.6318 47.2618 53.0007 47.2618ZM53.0007 9.2305C62.5321 9.2305 70.2865 17.0109 70.2865 26.5743C70.2865 36.1377 62.5321 43.9181 53.0007 43.9181C43.4692 43.9181 35.7149 36.1377 35.7149 26.5743C35.7149 17.0109 43.4692 9.2305 53.0007 9.2305ZM53.0007 53.1488C67.6048 53.1488 79.4861 41.2277 79.4861 26.5743C79.4861 11.9211 67.6048 0 53.0007 0C38.3965 0 26.5152 11.9211 26.5152 26.5743C26.5152 41.2275 38.3965 53.1488 53.0007 53.1488ZM53.0007 3.3437C65.7674 3.3437 76.1536 13.765 76.1536 26.5743C76.1536 39.3838 65.7674 49.8051 53.0007 49.8051C40.234 49.8051 29.8478 39.3838 29.8478 26.5743C29.8478 13.765 40.234 3.3437 53.0007 3.3437Z" fill="url(#paint0_linear_584_2421)"/>
<defs>
<linearGradient id="paint0_linear_584_2421" x1="53" y1="0" x2="53" y2="107" gradientUnits="userSpaceOnUse">
<stop stop-color="#FF4005"/>
<stop offset="1" stop-color="#FF2E00"/>
</linearGradient>
</defs>
</svg>
