<svg width="89" height="95" viewBox="0 0 89 95" fill="none" xmlns="http://www.w3.org/2000/svg">
<path d="M88.9507 30.9538L82.64 0.863472C82.5648 0.4845 82.3395 0.257117 82.1141 0.181323C81.9638 0.0297345 81.6633 -0.0460598 81.2125 0.0297345C81.0623 0.0297345 80.9872 0.105529 80.8369 0.181323L54.8429 15.8707C54.317 16.1739 54.0916 16.9319 54.4673 17.4624C54.6175 17.6898 54.7678 17.8414 54.9931 17.9172L62.1302 21.0248L60.7028 24.7387C60.252 26.0272 49.3586 53.9953 5.93505 53.9953C4.28225 53.9953 2.4792 53.9195 0.751272 53.8437H0.525891C0.375636 53.8437 0.300509 53.9195 0.150254 53.9953C0.0751271 54.0711 0 54.2227 0 54.3743C0 54.6016 0.150254 54.829 0.375636 54.9048L0.525891 54.9806C9.9168 58.164 19.6833 59.8314 29.6001 59.983C65.4358 59.983 78.2826 33.076 78.4328 32.7729L80.1608 29.059L87.4481 32.2423C87.7486 32.3939 88.1243 32.3181 88.2745 32.2423C88.4999 32.1665 88.7253 32.0149 88.8755 31.636C89.0258 31.4086 89.0258 31.1812 88.9507 30.9538ZM5.10865 95H23.8153V67.6383C17.5046 67.1835 11.2691 66.1982 5.10865 64.6065V95ZM65.1353 58.0124V95H83.842V39.2912H83.7669C81.0623 43.6115 75.1272 51.5699 65.1353 58.0124ZM35.0844 95H53.7911V63.697C48.3819 65.7434 42.2215 67.1835 35.0844 67.7141V95Z" fill="url(#paint0_linear_584_2414)"/>
<defs>
<linearGradient id="paint0_linear_584_2414" x1="44.5" y1="0" x2="44.5" y2="95" gradientUnits="userSpaceOnUse">
<stop stop-color="#FF6B00"/>
<stop offset="1" stop-color="#FF2E00"/>
</linearGradient>
</defs>
</svg>
