<svg width="125" height="103" viewBox="0 0 125 103" fill="none" xmlns="http://www.w3.org/2000/svg">
<path fill-rule="evenodd" clip-rule="evenodd" d="M88.2598 45.8423C91.5343 45.8423 94.444 47.4311 96.2587 49.8755C98.0734 47.4209 100.983 45.8423 104.258 45.8423C109.763 45.8423 114.223 50.3236 114.223 55.854C114.223 61.3845 109.763 65.8658 104.258 65.8658C100.983 65.8658 98.0734 64.277 96.2587 61.8326C94.444 64.2872 91.5343 65.8658 88.2598 65.8658C82.7548 65.8658 78.2941 61.3845 78.2941 55.854C78.2941 50.3236 82.7548 45.8423 88.2598 45.8423ZM40.1446 37.6129C51.185 44.6405 61.1608 47.9709 69.7173 47.1867C70.2647 58.329 69.109 67.8009 66.4528 75.6841H118.157C118.948 75.6841 119.667 75.3582 120.195 74.8285C120.722 74.2989 121.046 73.5758 121.046 72.7814V34.6185H4.3878V72.7814C4.3878 73.5758 4.71222 74.2989 5.23939 74.8285C5.76657 75.3582 6.48637 75.6841 7.27714 75.6841H14.2622C11.6466 67.8009 10.3895 58.2169 10.6835 46.7182C20.7303 47.258 30.5946 45.0682 40.1446 37.6129ZM64.9321 79.6664C60.0051 91.0837 51.5297 98.7325 40.2562 103C29.1854 98.9362 20.7404 91.4605 15.7525 79.6664H7.27714C5.39147 79.6664 3.67814 78.8923 2.4413 77.6498C1.19432 76.4072 0.423828 74.6859 0.423828 72.7916V6.885C0.423828 4.99061 1.19432 3.26936 2.43116 2.01661C3.67814 0.774053 5.39147 0 7.27714 0H118.157C120.042 0 121.756 0.774053 122.993 2.01661C124.23 3.25917 125 4.99061 125 6.87481V72.7712C125 74.6656 124.23 76.3868 122.993 77.6294C121.756 78.8719 120.042 79.6562 118.157 79.6562H64.9321V79.6664ZM40.1649 43.7034C49.3398 49.5496 57.6328 52.3097 64.7395 51.6579C65.2261 61.4761 64.111 69.6444 61.6069 76.3359L61.5359 76.5192C61.4548 76.7229 61.3838 76.9266 61.3027 77.1201L61.2115 77.3442C61.1405 77.5275 61.0594 77.7109 60.9884 77.8942L60.8972 78.1081C60.8161 78.2914 60.735 78.4747 60.6539 78.6581L60.5424 78.9127C60.4714 79.0655 60.4004 79.2182 60.3295 79.371L60.1774 79.6766C56.0107 88.3134 49.1878 94.0984 40.246 97.4798C31.4462 94.2512 24.6436 88.6087 20.4363 79.6766L20.4059 79.6154L20.3958 79.5441L20.3653 79.483C20.2944 79.3201 20.2234 79.1673 20.1524 79.0043L20.122 78.9432L20.0916 78.8821L20.0612 78.821L20.0308 78.7599L20.0004 78.6988C19.9294 78.5358 19.8584 78.3729 19.7875 78.2099L19.7571 78.1488L19.7266 78.0877L19.6962 78.0266C19.5949 77.7822 19.4935 77.5275 19.3921 77.2831L19.3718 77.222L19.3515 77.1609C19.2806 76.9674 19.1995 76.784 19.1285 76.5905L19.1082 76.5294L19.088 76.4683L19.0677 76.4072L19.0474 76.3461C18.9764 76.1526 18.9055 75.9591 18.8345 75.7655L18.8142 75.7044C16.523 69.1454 15.4078 61.0891 15.6613 51.281C24.0353 51.7088 32.2268 49.8959 40.1649 43.7034ZM4.3878 14.8292H121.036V6.885C121.036 6.09058 120.712 5.36745 120.184 4.83783C119.657 4.30822 118.937 3.9823 118.147 3.9823H7.27714C6.48637 3.9823 5.76657 4.30822 5.23939 4.83783C4.71222 5.36745 4.3878 6.09058 4.3878 6.885V14.8292Z" fill="#FF4C00"/>
<path d="M25.3864 68.5852L30.6277 68.514L31.0231 68.6158C32.0775 69.2269 33.0811 69.9297 34.0138 70.7241C34.6829 71.2944 35.3318 71.9157 35.9401 72.5981C37.8257 69.5528 39.8229 66.7621 41.9418 64.1956C44.2634 61.3845 46.7269 58.8281 49.3121 56.4958L49.819 56.3022H55.547L54.3913 57.5855C50.843 61.5475 47.6292 65.6316 44.7196 69.8584C41.81 74.0851 39.2146 78.4442 36.9032 82.9256L36.1834 84.3209L35.5244 82.9052C34.3078 80.2775 32.848 77.8637 31.1042 75.7045C29.3605 73.5453 27.3329 71.6305 24.9707 70.001L25.3864 68.5852Z" fill="#06593B"/>
</svg>
