<svg width="75" height="98" viewBox="0 0 75 98" fill="none" xmlns="http://www.w3.org/2000/svg">
<path fill-rule="evenodd" clip-rule="evenodd" d="M4.99096 9.47341H16.9569L16.4365 14.3522H8.38872C6.13551 14.3522 4.17741 16.3193 4.17741 18.5786V89.4911C4.17741 91.7384 6.07569 93.7216 8.38872 93.7216H44.8289C45.4331 95.2364 46.1968 96.6692 47.0961 98H4.99096C2.26517 98 0 95.7487 0 92.9931V14.4823C0 11.7267 2.24523 9.47341 4.99096 9.47341ZM22.578 39.7187H14.8193V27.5557H18.6997V36.6049H22.578V39.7187ZM23.6448 33.6472C23.6448 31.428 24.0575 29.809 24.885 28.7905C25.7125 27.7719 27.206 27.2616 29.3655 27.2616C31.523 27.2616 33.0165 27.7719 33.846 28.7905C34.6715 29.809 35.0863 31.428 35.0863 33.6472C35.0863 34.7499 34.9985 35.6764 34.8251 36.4288C34.6496 37.1812 34.3485 37.8376 33.9218 38.3959C33.4971 38.9523 32.9068 39.3625 32.1571 39.6206C31.4074 39.8808 30.4762 40.0109 29.3655 40.0109C28.2529 40.0109 27.3217 39.8808 26.5719 39.6206C25.8222 39.3625 25.234 38.9523 24.8072 38.3959C24.3805 37.8376 24.0794 37.1812 23.906 36.4288C23.7305 35.6764 23.6448 34.7499 23.6448 33.6472ZM27.8142 31.6221V36.683H29.4233C29.9537 36.683 30.3366 36.6209 30.5759 36.4969C30.8171 36.3748 30.9368 36.0906 30.9368 35.6504V30.5915H29.3077C28.7892 30.5915 28.4104 30.6535 28.1731 30.7756C27.9338 30.8997 27.8142 31.1798 27.8142 31.6221ZM39.9157 39.7187H35.8241L38.9646 27.5557H44.9565L48.0991 39.7187H44.0074L43.5607 37.7916H40.3604L39.9157 39.7187ZM41.4391 31.0297L40.7991 34.958H43.1021L42.484 31.0297H41.4391ZM56.5356 39.7187L53.5666 35.3982C53.4649 35.2561 53.3991 34.944 53.3732 34.4637H53.2974V39.7187H49.4171V27.5557H53.0641L56.0312 31.8762C56.1348 32.0183 56.1987 32.3285 56.2246 32.8107H56.3023V27.5557H60.1807V39.7187H56.5356ZM70.8106 63.4282V18.5786C70.8106 16.2593 68.8505 14.3522 66.5973 14.3522H58.0431V9.47341H70.009C72.7548 9.47341 75 11.7507 75 14.4823V64.8671C73.6544 64.2496 72.2511 63.7676 70.8106 63.4282ZM14.9529 84.1201C13.9859 84.1201 13.1982 83.3316 13.1982 82.3591C13.1982 81.3885 13.9859 80.6001 14.9529 80.6001H43.7382C43.4909 81.7447 43.3334 82.9194 43.2676 84.1201H14.9529ZM14.9529 73.482C13.9859 73.482 13.1982 72.6935 13.1982 71.721C13.1982 70.7504 13.9859 69.962 14.9529 69.962H49.3014C48.2911 71.0437 47.3895 72.2228 46.6096 73.482H14.9529ZM14.9529 62.8439C13.9859 62.8439 13.1982 62.0555 13.1982 61.0849C13.1982 60.1144 13.9859 59.3259 14.9529 59.3259H50.6733C51.6404 59.3259 52.426 60.1144 52.426 61.0849C52.426 62.0555 51.6404 62.8439 50.6733 62.8439H14.9529ZM14.9529 52.2058C13.9859 52.2058 13.1982 51.4174 13.1982 50.4468C13.1982 49.4763 13.9859 48.6878 14.9529 48.6878H60.049C61.0161 48.6878 61.8018 49.4763 61.8018 50.4468C61.8018 51.4174 61.0161 52.2058 60.049 52.2058H14.9529ZM23.8681 6.994H29.523C29.9996 3.04974 33.172 0 37.0184 0C40.8389 0 43.9974 3.00972 44.5079 6.91195L51.1259 6.994C51.5885 6.994 51.9594 7.36621 51.9594 7.82847V16.7976C51.9594 17.2599 51.5885 17.6321 51.1259 17.6321H23.8741C23.4234 17.6321 23.0426 17.2599 23.0426 16.7976V7.82847C23.0346 7.36621 23.4055 6.994 23.8681 6.994ZM33.9218 10.424C34.4322 11.1264 35.164 11.8208 35.9397 12.177C36.5738 12.3691 37.2657 12.3851 37.9058 12.209C38.9147 11.7467 39.836 10.6321 40.2647 9.69754C40.3125 9.43339 40.3484 9.16124 40.3484 8.86306C40.3484 6.88594 38.839 5.28302 36.9766 5.28302C35.1162 5.28302 33.6067 6.88594 33.6067 8.86306C33.6187 9.4574 33.7224 9.98571 33.9218 10.424Z" fill="#FF4C00"/>
</svg>
