<svg width="109" height="100" viewBox="0 0 109 100" fill="none" xmlns="http://www.w3.org/2000/svg">
<path d="M107.07 96.8153H103.567V52.4416H107.07C107.651 52.4416 108.186 52.1251 108.466 51.6155C108.746 51.1059 108.726 50.4845 108.414 49.9943L96.5241 31.3106C96.2317 30.8512 95.7252 30.573 95.1806 30.573H63.5683L56.0086 23.0136V16.7728H71.4014C71.9886 16.7728 72.5283 16.4497 72.8054 15.9318C73.0825 15.4142 73.0521 14.7858 72.7262 14.2972L69.9182 10.0849L72.7264 5.87261C73.0523 5.38408 73.0825 4.75563 72.8056 4.238C72.5283 3.72017 71.9886 3.39703 71.4014 3.39703H56.0086V1.59236C56.0086 0.712951 55.2956 0 54.4162 0C53.5368 0 52.8239 0.712951 52.8239 1.59236V23.0136L45.2642 30.5732H13.6519C13.1075 30.5732 12.6007 30.8514 12.3084 31.3108L0.418793 49.9945C0.106904 50.4847 0.0867339 51.1062 0.366352 51.6157C0.646182 52.125 1.18121 52.4416 1.76232 52.4416H5.2655V96.8153H1.76232C0.882912 96.8153 0.169961 97.5282 0.169961 98.4076C0.169961 99.287 0.882912 100 1.76232 100H107.07C107.95 100 108.663 99.287 108.663 98.4076C108.663 97.5282 107.95 96.8153 107.07 96.8153ZM94.3065 33.758L104.17 49.2569H82.2519L66.753 33.758H94.3065ZM68.426 6.58174L66.6793 9.2017C66.3226 9.73652 66.3226 10.4333 66.6793 10.9682L68.426 13.5881H56.0086V6.58174H68.426ZM14.526 33.758H42.0793L26.5804 49.2569H4.66317L14.526 33.758ZM8.45021 52.4416H27.2396C27.2923 52.4416 27.3449 52.4389 27.3976 52.4335C27.4201 52.4314 27.4421 52.4272 27.4644 52.424C27.4935 52.4197 27.5226 52.4163 27.5517 52.4106C27.5776 52.4055 27.6027 52.3983 27.6281 52.3919C27.653 52.3858 27.678 52.38 27.7027 52.3728C27.7277 52.3652 27.7521 52.3556 27.7768 52.3469C27.8012 52.3382 27.8256 52.3302 27.8498 52.3202C27.8729 52.3106 27.895 52.2994 27.9175 52.2887C27.9419 52.2771 27.9668 52.2662 27.9908 52.2533C28.0126 52.2416 28.0332 52.2282 28.0545 52.2157C28.0778 52.2019 28.1016 52.1885 28.1243 52.1732C28.1481 52.1573 28.1704 52.1397 28.1931 52.1225C28.2118 52.1085 28.2311 52.0955 28.2492 52.0805C28.2899 52.0471 28.329 52.0119 28.3661 51.9745L54.4162 25.9248L80.4663 51.9747C80.5035 52.0119 80.5428 52.0471 80.5833 52.0807C80.6014 52.0955 80.6205 52.1085 80.6392 52.1225C80.6621 52.1397 80.6846 52.1575 80.7084 52.1735C80.7309 52.1885 80.7544 52.2017 80.7776 52.2155C80.799 52.2284 80.8198 52.2418 80.8419 52.2535C80.8657 52.2662 80.8901 52.2771 80.9145 52.2885C80.9373 52.2994 80.9598 52.3106 80.9831 52.3204C81.0069 52.3301 81.0311 52.338 81.0551 52.3467C81.0799 52.3556 81.1046 52.3652 81.13 52.373C81.1542 52.3805 81.1789 52.3858 81.2033 52.3919C81.2292 52.3985 81.2547 52.4057 81.281 52.4108C81.309 52.4163 81.3373 52.4197 81.3655 52.4238C81.3886 52.4272 81.4116 52.4314 81.4351 52.4338C81.4874 52.4389 81.5398 52.4416 81.5922 52.4416H100.382V96.8153H66.1997V74.6284C66.1997 71.8773 63.9615 69.6391 61.2103 69.6391H47.6222C44.871 69.6391 42.6328 71.8773 42.6328 74.6284V96.8153H8.45021V52.4416ZM63.015 76.4331H45.8175V74.6284C45.8175 73.6333 46.6271 72.8238 47.6222 72.8238H61.2103C62.2054 72.8238 63.015 73.6333 63.015 74.6284V76.4331ZM45.8175 79.6178H52.8239V96.8153H45.8175V79.6178ZM56.0086 79.6178H63.015V96.8153H56.0086V79.6178Z" fill="#FF4C00"/>
<path d="M54.4172 64.3315C60.9147 64.3315 66.2007 59.0455 66.2007 52.5481C66.2007 46.0506 60.9147 40.7646 54.4172 40.7646C47.9198 40.7646 42.6338 46.0506 42.6338 52.5481C42.6338 59.0455 47.9198 64.3315 54.4172 64.3315ZM54.4172 43.9494C59.1586 43.9494 63.016 47.8067 63.016 52.5481C63.016 57.2895 59.1586 61.1468 54.4172 61.1468C49.6758 61.1468 45.8185 57.2895 45.8185 52.5481C45.8185 47.8067 49.6758 43.9494 54.4172 43.9494Z" fill="#FF4C00"/>
<path d="M54.4184 54.1396C55.2978 54.1396 56.0107 53.4267 56.0107 52.5473V47.4517C56.0107 46.5723 55.2978 45.8594 54.4184 45.8594C53.539 45.8594 52.826 46.5723 52.826 47.4517V50.9549H49.3228C48.4434 50.9549 47.7305 51.6679 47.7305 52.5473C47.7305 53.4267 48.4434 54.1396 49.3228 54.1396H54.4184Z" fill="#FF4C00"/>
<path d="M37.4326 78.1313H28.94C28.0606 78.1313 27.3477 78.8443 27.3477 79.7237V89.9148C27.3477 90.7942 28.0606 91.5071 28.94 91.5071H37.4326C38.312 91.5071 39.0249 90.7942 39.0249 89.9148V79.7237C39.0249 78.8443 38.312 78.1313 37.4326 78.1313ZM35.8402 81.3161V83.2269H30.5324V81.3161H35.8402ZM30.5324 88.3224V86.4116H35.8402V88.3224H30.5324Z" fill="#FF4C00"/>
<path d="M22.1445 78.1313H13.6519C12.7725 78.1313 12.0596 78.8443 12.0596 79.7237V89.9148C12.0596 90.7942 12.7725 91.5071 13.6519 91.5071H22.1445C23.0239 91.5071 23.7369 90.7942 23.7369 89.9148V79.7237C23.7369 78.8443 23.0239 78.1313 22.1445 78.1313ZM20.5521 81.3161V83.2269H15.2443V81.3161H20.5521ZM15.2443 88.3224V86.4116H20.5521V88.3224H15.2443Z" fill="#FF4C00"/>
<path d="M36.9018 57.75H29.4708C28.3001 57.75 27.3477 58.7024 27.3477 59.8731V71.232C27.3477 72.1114 28.0606 72.8243 28.94 72.8243H37.4326C38.312 72.8243 39.0249 72.1114 39.0249 71.232V59.8731C39.0249 58.7024 38.0725 57.75 36.9018 57.75ZM35.8402 60.9347V64.5441H30.5324V60.9347H35.8402ZM30.5324 69.6396V67.7288H35.8402V69.6396H30.5324Z" fill="#FF4C00"/>
<path d="M21.6137 57.75H14.1827C13.012 57.75 12.0596 58.7024 12.0596 59.8731V71.232C12.0596 72.1114 12.7725 72.8243 13.6519 72.8243H22.1445C23.0239 72.8243 23.7369 72.1114 23.7369 71.232V59.8731C23.7369 58.7024 22.7844 57.75 21.6137 57.75ZM20.5521 60.9347V64.5441H15.2443V60.9347H20.5521ZM15.2443 69.6396V67.7288H20.5521V69.6396H15.2443Z" fill="#FF4C00"/>
<path d="M86.6871 91.5071H95.1797C96.0591 91.5071 96.772 90.7942 96.772 89.9148V79.7237C96.772 78.8443 96.0591 78.1313 95.1797 78.1313H86.6871C85.8077 78.1313 85.0947 78.8443 85.0947 79.7237V89.9148C85.0947 90.7942 85.8077 91.5071 86.6871 91.5071ZM88.2794 88.3224V86.4116H93.5873V88.3224H88.2794ZM93.5873 81.3161V83.2269H88.2794V81.3161H93.5873Z" fill="#FF4C00"/>
<path d="M71.4019 91.5071H79.8945C80.7739 91.5071 81.4869 90.7942 81.4869 89.9148V79.7237C81.4869 78.8443 80.7739 78.1313 79.8945 78.1313H71.4019C70.5225 78.1313 69.8096 78.8443 69.8096 79.7237V89.9148C69.8096 90.7942 70.5225 91.5071 71.4019 91.5071ZM72.9943 88.3224V86.4116H78.3021V88.3224H72.9943ZM78.3021 81.3161V83.2269H72.9943V81.3161H78.3021Z" fill="#FF4C00"/>
<path d="M86.6871 72.8243H95.1797C96.0591 72.8243 96.772 72.1114 96.772 71.232V59.8731C96.772 58.7024 95.8196 57.75 94.6489 57.75H87.2179C86.0472 57.75 85.0947 58.7024 85.0947 59.8731V71.232C85.0947 72.1114 85.8077 72.8243 86.6871 72.8243ZM88.2794 69.6396V67.7288H93.5873V69.6396H88.2794ZM93.5873 60.9347V64.5441H88.2794V60.9347H93.5873Z" fill="#FF4C00"/>
<path d="M71.4019 72.8243H79.8945C80.7739 72.8243 81.4869 72.1114 81.4869 71.232V59.8731C81.4869 58.7024 80.5344 57.75 79.3637 57.75H71.9327C70.762 57.75 69.8096 58.7024 69.8096 59.8731V71.232C69.8096 72.1114 70.5225 72.8243 71.4019 72.8243ZM72.9943 69.6396V67.7288H78.3021V69.6396H72.9943ZM78.3021 60.9347V64.5441H72.9943V60.9347H78.3021Z" fill="#FF4C00"/>
</svg>
