<svg width="114" height="108" viewBox="0 0 114 108" fill="none" xmlns="http://www.w3.org/2000/svg">
<path d="M42.4862 23.7154C50.7224 23.6747 58.7842 26.0736 65.6445 30.6066C66.3296 31.0567 66.5745 31.0136 66.9589 30.2674C69.4391 25.4759 70.9891 20.3206 72.8709 15.3041C74.3063 11.5054 75.6611 7.67597 77.0624 3.85883C77.7413 2.00884 78.6806 1.80226 80.1005 3.20825C82.7853 5.86606 85.47 8.52388 88.1269 11.2064C88.6229 11.7059 88.9484 11.8693 89.6614 11.4592C91.4865 10.4051 93.6112 9.98174 95.7037 10.2551C97.7963 10.5285 99.7389 11.4832 101.228 12.9702C102.718 14.4573 103.671 16.393 103.937 18.4752C104.204 20.5574 103.771 22.6688 102.704 24.48C102.329 25.1275 102.422 25.4328 102.902 25.9045C105.63 28.5747 108.328 31.2726 111.031 33.9643C112.42 35.3487 112.2 36.2891 110.33 36.9705C102.989 39.6468 95.6416 42.3046 88.3191 45.0025C86.0535 45.8745 83.8654 46.9338 81.7777 48.1691C81.291 48.4466 81.1577 48.6532 81.3809 49.2329C81.8738 50.4662 82.4442 51.5793 83.4797 52.4673C84.3228 53.202 85.1113 53.9965 85.8389 54.8445C86.6621 55.7633 87.2951 56.8346 87.7015 57.997C88.108 59.1594 88.28 60.3901 88.2078 61.6187C88.1355 62.8473 87.8203 64.0496 87.2803 65.1569C86.7403 66.2642 85.9861 67.2548 85.0608 68.0719C84.9397 68.1879 84.8459 68.3289 84.7859 68.4851C84.7258 68.6412 84.7012 68.8086 84.7136 68.9753C83.7835 79.8841 79.4123 89.1988 71.3395 96.6326C62.0576 105.17 51.0179 109.034 38.4002 107.763C19.8736 105.913 5.48269 93.2502 1.11456 75.2622C-3.7341 55.3101 7.6652 33.8841 26.9885 26.5983C31.9306 24.6918 37.1855 23.7143 42.4862 23.7154ZM34.5064 104.384C34.6149 104.514 34.8164 104.538 34.8629 104.433C34.9249 104.264 34.7234 104.298 34.6087 104.282C34.6087 104.245 34.6087 104.19 34.587 104.171C28.6192 99.5741 24.3224 93.7374 21.5291 86.7845C21.2966 86.2018 21.0455 86.4145 20.7045 86.6396C18.2557 88.2464 15.9851 90.1068 13.9306 92.1896C13.5276 92.5966 13.5679 92.8062 13.9306 93.1855C15.1141 94.3976 16.3721 95.5355 17.6973 96.5926C22.6917 100.508 28.2317 103.234 34.5064 104.384ZM79.1488 6.33473C79.0465 6.58756 78.9287 6.86814 78.8388 7.15181C77.3104 11.3235 75.7386 15.4767 74.266 19.6731C71.8944 26.4225 69.3058 33.0609 64.8136 38.7619C64.361 39.3385 64.7237 39.5543 65.0461 39.8719C68.0502 42.8627 71.0697 45.835 74.0366 48.8536C74.6008 49.4271 74.9418 49.3809 75.5464 48.9276C78.8055 46.4687 82.3689 44.4366 86.1489 42.8812C92.5353 40.2943 99.0828 38.1483 105.537 35.7434C106.306 35.4566 107.14 35.2963 107.813 34.8184L79.1488 6.33473ZM74.6876 67.2271C72.4865 67.2271 70.2854 67.2271 68.0843 67.2271C67.4922 67.2271 67.1542 67.3103 67.1542 68.0164C67.0407 73.0843 66.2195 78.1119 64.7144 82.955C64.578 83.4021 64.6338 83.6426 65.0244 83.88C67.847 85.6197 70.4331 87.7129 72.719 90.1083C73.1376 90.5431 73.3391 90.4598 73.6677 90.0282C78.6174 83.7303 81.5074 76.075 81.9482 68.0935C81.9947 67.335 81.7281 67.2024 81.0461 67.2147C78.9349 67.2517 76.8113 67.2271 74.6876 67.2271ZM2.86925 67.9732C3.31418 75.9804 6.19911 83.6633 11.1405 90.0004C11.6303 90.6356 11.8628 90.3735 12.2596 89.9696C14.4696 87.7096 16.9471 85.7249 19.638 84.0589C20.2147 83.7012 20.2891 83.3775 20.1 82.7577C18.6256 77.979 17.8131 73.0227 17.6849 68.0257C17.6849 67.4706 17.5733 67.2147 16.9254 67.2178C12.4798 67.2445 8.03619 67.2445 3.59469 67.2178C2.96536 67.2147 2.73594 67.4275 2.86925 67.9732ZM10.1267 64.4552C12.3651 64.4552 14.6065 64.4305 16.8448 64.4706C17.5051 64.4706 17.6725 64.2856 17.688 63.6443C17.8133 58.6533 18.6291 53.7033 20.1124 48.9338C20.3139 48.2832 20.1496 47.9903 19.6008 47.6511C16.9438 46.0002 14.4994 44.0328 12.3216 41.7928C11.807 41.2625 11.5466 41.1762 11.0382 41.8329C6.19826 48.1151 3.35097 55.6895 2.85995 63.5888C2.80415 64.375 3.09556 64.4644 3.7528 64.4552C5.87641 64.4336 8.00312 64.4552 10.1267 64.4552ZM41.054 39.2491C41.054 35.4443 41.0323 31.6395 41.0726 27.8408C41.0726 26.9405 40.868 26.8819 40.1425 27.2982C32.4169 31.6426 27.283 38.1607 23.9783 46.2297C23.7768 46.723 23.8791 46.9481 24.3658 47.1917C29.2994 49.6814 34.6946 51.137 40.2169 51.4683C41.0292 51.5207 41.0695 51.1815 41.0664 50.5433C41.0447 46.7816 41.054 43.0169 41.054 39.2491ZM40.9703 104.856C41.0067 104.696 41.0336 104.535 41.0509 104.372C41.0509 96.608 41.0509 88.8442 41.0757 81.0804C41.0757 80.2541 40.7222 80.2479 40.1022 80.2849C34.6586 80.6033 29.3382 82.0262 24.4681 84.4659C23.8109 84.7927 23.8326 85.1103 24.0744 85.6992C25.2388 88.5829 26.7281 91.3261 28.5138 93.8762C31.7111 98.4849 35.9857 102.253 40.9703 104.856ZM43.841 104.655C44.1696 104.794 44.3122 104.628 44.461 104.541C52.3355 100.203 57.5592 93.6171 60.8919 85.4248C61.1213 84.8575 60.9074 84.7033 60.4765 84.4998C55.6832 82.0765 50.4439 80.6497 45.078 80.3065C44.0921 80.2417 43.7945 80.4175 43.8038 81.4812C43.8596 88.8596 43.8317 96.2411 43.8317 103.622L43.841 104.655ZM43.841 26.8634C43.841 34.988 43.841 42.8966 43.841 50.8053C43.841 51.3943 44.0487 51.496 44.5758 51.4713C48.5785 51.2674 52.5273 50.4628 56.2882 49.0849C56.5982 48.9677 56.8524 48.8875 56.6726 48.3757C55.8417 45.9985 56.3812 43.9111 58.2227 42.2091C58.7156 41.7497 58.5513 41.4167 58.2847 40.9511C56.4337 37.6654 54.0875 34.6811 51.3279 32.102C49.0983 30.0085 46.578 28.2443 43.8441 26.8634H43.841ZM30.656 67.2271C27.5559 67.2271 24.4743 67.2548 21.3834 67.2116C20.6084 67.2116 20.4131 67.4213 20.4534 68.1767C20.648 72.5884 21.3406 76.9644 22.5181 81.2222C22.7661 82.1195 23.0327 82.1195 23.7892 81.7495C28.8735 79.2188 34.4376 77.7836 40.1177 77.5377C40.8711 77.5038 41.0912 77.2848 41.0788 76.5356C41.0354 73.7606 41.0292 70.9856 41.0788 68.2353C41.0943 67.4275 40.8649 67.1993 40.0495 67.2086C36.9152 67.2548 33.7841 67.2271 30.656 67.2271ZM54.1429 67.2271C51.0148 67.2271 47.8898 67.2456 44.7618 67.2271C44.0921 67.2271 43.81 67.3381 43.8317 68.0935C43.8782 70.9332 43.8627 73.776 43.8317 76.6158C43.8317 77.1985 43.903 77.5099 44.6191 77.5407C50.4119 77.748 56.0905 79.2018 61.2639 81.8019C61.9677 82.1503 62.1227 81.9838 62.3149 81.3055C63.5274 77.0212 64.2247 72.609 64.392 68.1613C64.4261 67.3042 64.082 67.2363 63.4061 67.2363C60.3184 67.2425 57.2182 67.2271 54.1429 67.2271ZM22.8343 49.5258C21.3988 54.1754 20.5959 58.9954 20.4472 63.857C20.4193 64.5662 20.8533 64.4459 21.2625 64.4459C27.5652 64.4459 33.8647 64.4459 40.1735 64.4613C40.8897 64.4613 41.085 64.2609 41.0757 63.5363C41.0364 60.7305 41.0364 57.9247 41.0757 55.1189C41.0757 54.4282 40.9145 54.1939 40.189 54.1785C38.0269 54.0982 35.8762 53.8268 33.7624 53.3676C29.9627 52.5809 26.287 51.2887 22.8343 49.5258ZM54.0809 64.4459C57.2461 64.4459 60.4114 64.4305 63.5736 64.4459C64.2339 64.4459 64.4416 64.2702 64.3765 63.6042C64.2184 61.9639 64.082 60.3174 64.0138 58.6709C63.9363 56.7746 63.2883 55.2237 61.7321 54.0305C60.9258 53.3736 60.1856 52.6404 59.5216 51.8413C58.9884 51.2247 58.5079 51.1322 57.736 51.4405C53.5799 53.1033 49.1643 54.033 44.6874 54.1877C43.9309 54.2186 43.8224 54.4961 43.8286 55.1374C43.8596 57.9371 43.8782 60.7398 43.8286 63.5425C43.81 64.3688 44.1386 64.4675 44.8269 64.4459C47.9177 64.4367 50.9931 64.4552 54.0809 64.4552V64.4459ZM50.1746 104.187C50.6118 104.458 50.9962 104.319 51.3496 104.233C58.7213 102.519 65.4496 98.7522 70.7473 93.3736C71.2682 92.8525 71.324 92.5627 70.7752 92.0169C68.8499 90.1285 66.7765 88.3954 64.5749 86.8339C63.7224 86.2172 63.4805 86.3991 63.1054 87.2902C60.2967 94.0149 56.1239 99.719 50.1746 104.196V104.187ZM34.4351 27.6343C34.2528 27.5407 34.0534 27.4848 33.8488 27.4699C33.6442 27.4551 33.4387 27.4816 33.2447 27.5479C25.9668 29.2955 19.3298 33.0436 14.0918 38.3642C13.5586 38.9038 13.5679 39.1905 14.0918 39.7116C16.0484 41.621 18.1607 43.3659 20.4069 44.9286C21.1881 45.4774 21.3896 45.2554 21.7089 44.4876C24 38.9993 27.2241 34.1339 31.6295 30.0793C32.5254 29.2468 33.4617 28.4698 34.4351 27.6343ZM59.1031 46.4085C59.0969 46.7748 59.1669 47.1384 59.3089 47.4764C59.4508 47.8144 59.6615 48.1195 59.9278 48.3726C61.8096 50.2504 63.6759 52.1435 65.5856 53.9904C66.8473 55.2083 68.2703 55.1806 69.5972 53.9904C70.4001 53.2689 71.1473 52.4981 71.9874 51.8074C72.4586 51.4158 72.4741 51.1908 72.0277 50.7437C69.0577 47.831 66.1085 44.8977 63.1798 41.9439C62.7582 41.5215 62.5598 41.5924 62.2002 41.9994C61.4685 42.8411 60.6873 43.6397 59.9185 44.4506C59.6588 44.7043 59.4529 45.0072 59.3128 45.3414C59.1728 45.6755 59.1015 46.0342 59.1031 46.3962V46.4085ZM84.4067 64.5816C85.211 63.3263 85.5611 61.8359 85.3994 60.3562C85.2377 58.8764 84.5736 57.4957 83.5169 56.4416C81.8149 54.6657 80.0261 52.9698 78.2993 51.2154C77.9428 50.8516 77.701 50.756 77.2577 51.1013C76.0176 52.0695 74.7465 53.0068 73.7545 53.9442L84.4067 64.5816ZM80.0106 64.4706C77.1616 61.637 74.5202 59.0162 71.8882 56.3861C71.6216 56.121 71.4387 56.0778 71.1255 56.3368C70.0626 57.2513 68.6849 57.7209 67.2813 57.6472C66.8504 57.6472 66.6768 57.6996 66.7264 58.2084C66.9062 60.0255 67.0437 61.859 67.1387 63.709C67.1728 64.3257 67.3992 64.4737 67.982 64.4706C71.8944 64.4459 75.7944 64.4583 80.0106 64.4583V64.4706ZM60.6842 39.4958C62.0701 37.8743 63.3579 36.1724 64.5408 34.399C64.9779 33.7824 64.9996 33.474 64.2866 33.0085C60.4138 30.4809 56.1364 28.6281 51.6379 27.5294C51.1713 27.362 50.6581 27.3774 50.2025 27.5726C54.4773 30.7897 58.0444 34.8432 60.6842 39.4834V39.4958ZM90.9139 14.006C93.8746 16.9413 96.8321 19.8643 99.7618 22.7904C100.32 23.3484 100.425 22.9044 100.614 22.5283C101.854 20.0185 101.182 16.6885 99.0115 14.7275C97.936 13.7271 96.5558 13.1118 95.0893 12.9789C93.6228 12.846 92.1535 13.2031 90.9139 13.9937V14.006Z" fill="url(#paint0_linear_914_2166)"/>
<path d="M99.5126 0.219162C109.609 0.219162 116.662 10.4111 113.036 19.7177C112.635 20.747 111.925 21.1881 111.127 20.8144C110.24 20.4008 110.084 19.6748 110.451 18.8017C110.509 18.6639 110.539 18.5107 110.588 18.3667C111.509 15.6291 111.383 12.647 110.234 9.99712C109.086 7.34725 106.997 5.21788 104.371 4.02083C101.681 2.77029 98.6122 2.6068 95.8043 3.56439C95.6238 3.62566 95.4433 3.68081 95.2658 3.75126C94.4091 4.09743 93.7054 3.84929 93.3903 3.01911C93.0507 2.12153 93.4729 1.48741 94.3785 1.15043C96.0162 0.519739 97.758 0.203801 99.5126 0.219162Z" fill="url(#paint1_linear_914_2166)"/>
<path d="M99.1867 4.8829C106.218 4.90431 111.003 11.6323 108.79 18.0148C108.346 19.2962 107.323 19.7671 106.48 19.0668C105.801 18.5041 105.962 17.8191 106.175 17.0851C107.472 12.8801 105.122 8.72093 100.897 7.77901C99.5923 7.49164 98.233 7.58177 96.9769 8.03896C95.8811 8.41817 95.1658 8.13376 94.9041 7.31111C94.6423 6.48845 95.041 5.7973 96.0881 5.43643C97.0769 5.05702 98.1283 4.8692 99.1867 4.8829Z" fill="url(#paint2_linear_914_2166)"/>
<defs>
<linearGradient id="paint0_linear_914_2166" x1="55.9634" y1="2.29138" x2="55.9634" y2="108" gradientUnits="userSpaceOnUse">
<stop stop-color="#FF4005"/>
<stop offset="1" stop-color="#FF2E00"/>
</linearGradient>
<linearGradient id="paint1_linear_914_2166" x1="103.637" y1="0.218628" x2="103.637" y2="20.9458" gradientUnits="userSpaceOnUse">
<stop stop-color="#FF4005"/>
<stop offset="1" stop-color="#FF2E00"/>
</linearGradient>
<linearGradient id="paint2_linear_914_2166" x1="102.081" y1="4.8822" x2="102.081" y2="19.3912" gradientUnits="userSpaceOnUse">
<stop stop-color="#FF4005"/>
<stop offset="1" stop-color="#FF2E00"/>
</linearGradient>
</defs>
</svg>
