<svg width="19" height="19" viewBox="0 0 19 19" fill="none" xmlns="http://www.w3.org/2000/svg">
<path d="M8.41308 8.80972H9.49999C9.64413 8.80972 9.78236 8.74945 9.88428 8.64217C9.98619 8.53489 10.0435 8.38938 10.0435 8.23766V7.09354C10.0435 6.94182 9.98619 6.79632 9.88428 6.68904C9.78236 6.58175 9.64413 6.52148 9.49999 6.52148H8.41308C8.26895 6.52148 8.13072 6.58175 8.0288 6.68904C7.92688 6.79632 7.86962 6.94182 7.86962 7.09354V8.23766C7.86962 8.38938 7.92688 8.53489 8.0288 8.64217C8.13072 8.74945 8.26895 8.80972 8.41308 8.80972ZM8.41308 7.09354H9.49999V8.23766H8.41308V7.09354ZM11.1304 8.80972H12.2173C12.3614 8.80972 12.4996 8.74945 12.6016 8.64217C12.7035 8.53489 12.7607 8.38938 12.7607 8.23766V7.09354C12.7607 6.94182 12.7035 6.79632 12.6016 6.68904C12.4996 6.58175 12.3614 6.52148 12.2173 6.52148H11.1304C10.9862 6.52148 10.848 6.58175 10.7461 6.68904C10.6442 6.79632 10.5869 6.94182 10.5869 7.09354V8.23766C10.5869 8.38938 10.6442 8.53489 10.7461 8.64217C10.848 8.74945 10.9862 8.80972 11.1304 8.80972ZM11.1304 7.09354H12.2173V8.23766H11.1304V7.09354ZM13.8476 8.80972H14.9346C15.0787 8.80972 15.2169 8.74945 15.3188 8.64217C15.4208 8.53489 15.478 8.38938 15.478 8.23766V7.09354C15.478 6.94182 15.4208 6.79632 15.3188 6.68904C15.2169 6.58175 15.0787 6.52148 14.9346 6.52148H13.8476C13.7035 6.52148 13.5653 6.58175 13.4634 6.68904C13.3614 6.79632 13.3042 6.94182 13.3042 7.09354V8.23766C13.3042 8.38938 13.3614 8.53489 13.4634 8.64217C13.5653 8.74945 13.7035 8.80972 13.8476 8.80972ZM13.8476 7.09354H14.9346V8.23766H13.8476V7.09354ZM2.97852 11.67H4.06543C4.20956 11.67 4.34779 11.6098 4.44971 11.5025C4.55163 11.3952 4.60889 11.2497 4.60889 11.098V9.95384C4.60889 9.80212 4.55163 9.65662 4.44971 9.54933C4.34779 9.44205 4.20956 9.38178 4.06543 9.38178H2.97852C2.83438 9.38178 2.69615 9.44205 2.59423 9.54933C2.49232 9.65662 2.43506 9.80212 2.43506 9.95384V11.098C2.43506 11.2497 2.49232 11.3952 2.59423 11.5025C2.69615 11.6098 2.83438 11.67 2.97852 11.67ZM2.97852 9.95384H4.06543V11.098H2.97852V9.95384ZM5.6958 11.67H6.78271C6.92685 11.67 7.06508 11.6098 7.16699 11.5025C7.26891 11.3952 7.32617 11.2497 7.32617 11.098V9.95384C7.32617 9.80212 7.26891 9.65662 7.16699 9.54933C7.06508 9.44205 6.92685 9.38178 6.78271 9.38178H5.6958C5.55166 9.38178 5.41343 9.44205 5.31152 9.54933C5.2096 9.65662 5.15234 9.80212 5.15234 9.95384V11.098C5.15234 11.2497 5.2096 11.3952 5.31152 11.5025C5.41343 11.6098 5.55166 11.67 5.6958 11.67ZM5.6958 9.95384H6.78271V11.098H5.6958V9.95384ZM8.41308 11.67H9.49999C9.64413 11.67 9.78236 11.6098 9.88428 11.5025C9.98619 11.3952 10.0435 11.2497 10.0435 11.098V9.95384C10.0435 9.80212 9.98619 9.65662 9.88428 9.54933C9.78236 9.44205 9.64413 9.38178 9.49999 9.38178H8.41308C8.26895 9.38178 8.13072 9.44205 8.0288 9.54933C7.92688 9.65662 7.86962 9.80212 7.86962 9.95384V11.098C7.86962 11.2497 7.92688 11.3952 8.0288 11.5025C8.13072 11.6098 8.26895 11.67 8.41308 11.67ZM8.41308 9.95384H9.49999V11.098H8.41308V9.95384ZM11.1304 11.67H12.2173C12.3614 11.67 12.4996 11.6098 12.6016 11.5025C12.7035 11.3952 12.7607 11.2497 12.7607 11.098V9.95384C12.7607 9.80212 12.7035 9.65662 12.6016 9.54933C12.4996 9.44205 12.3614 9.38178 12.2173 9.38178H11.1304C10.9862 9.38178 10.848 9.44205 10.7461 9.54933C10.6442 9.65662 10.5869 9.80212 10.5869 9.95384V11.098C10.5869 11.2497 10.6442 11.3952 10.7461 11.5025C10.848 11.6098 10.9862 11.67 11.1304 11.67ZM11.1304 9.95384H12.2173V11.098H11.1304V9.95384ZM13.8476 11.67H14.9346C15.0787 11.67 15.2169 11.6098 15.3188 11.5025C15.4208 11.3952 15.478 11.2497 15.478 11.098V9.95384C15.478 9.80212 15.4208 9.65662 15.3188 9.54933C15.2169 9.44205 15.0787 9.38178 14.9346 9.38178H13.8476C13.7035 9.38178 13.5653 9.44205 13.4634 9.54933C13.3614 9.65662 13.3042 9.80212 13.3042 9.95384V11.098C13.3042 11.2497 13.3614 11.3952 13.4634 11.5025C13.5653 11.6098 13.7035 11.67 13.8476 11.67ZM13.8476 9.95384H14.9346V11.098H13.8476V9.95384ZM2.97852 14.5303H4.06543C4.20956 14.5303 4.34779 14.47 4.44971 14.3628C4.55163 14.2555 4.60889 14.11 4.60889 13.9583V12.8141C4.60889 12.6624 4.55163 12.5169 4.44971 12.4096C4.34779 12.3024 4.20956 12.2421 4.06543 12.2421H2.97852C2.83438 12.2421 2.69615 12.3024 2.59423 12.4096C2.49232 12.5169 2.43506 12.6624 2.43506 12.8141V13.9583C2.43506 14.11 2.49232 14.2555 2.59423 14.3628C2.69615 14.47 2.83438 14.5303 2.97852 14.5303ZM2.97852 12.8141H4.06543V13.9583H2.97852V12.8141ZM5.6958 14.5303H6.78271C6.92685 14.5303 7.06508 14.47 7.16699 14.3628C7.26891 14.2555 7.32617 14.11 7.32617 13.9583V12.8141C7.32617 12.6624 7.26891 12.5169 7.16699 12.4096C7.06508 12.3024 6.92685 12.2421 6.78271 12.2421H5.6958C5.55166 12.2421 5.41343 12.3024 5.31152 12.4096C5.2096 12.5169 5.15234 12.6624 5.15234 12.8141V13.9583C5.15234 14.11 5.2096 14.2555 5.31152 14.3628C5.41343 14.47 5.55166 14.5303 5.6958 14.5303ZM5.6958 12.8141H6.78271V13.9583H5.6958V12.8141ZM8.41308 14.5303H9.49999C9.64413 14.5303 9.78236 14.47 9.88428 14.3628C9.98619 14.2555 10.0435 14.11 10.0435 13.9583V12.8141C10.0435 12.6624 9.98619 12.5169 9.88428 12.4096C9.78236 12.3024 9.64413 12.2421 9.49999 12.2421H8.41308C8.26895 12.2421 8.13072 12.3024 8.0288 12.4096C7.92688 12.5169 7.86962 12.6624 7.86962 12.8141V13.9583C7.86962 14.11 7.92688 14.2555 8.0288 14.3628C8.13072 14.47 8.26895 14.5303 8.41308 14.5303ZM8.41308 12.8141H9.49999V13.9583H8.41308V12.8141ZM11.1304 14.5303H12.2173C12.3614 14.5303 12.4996 14.47 12.6016 14.3628C12.7035 14.2555 12.7607 14.11 12.7607 13.9583V12.8141C12.7607 12.6624 12.7035 12.5169 12.6016 12.4096C12.4996 12.3024 12.3614 12.2421 12.2173 12.2421H11.1304C10.9862 12.2421 10.848 12.3024 10.7461 12.4096C10.6442 12.5169 10.5869 12.6624 10.5869 12.8141V13.9583C10.5869 14.11 10.6442 14.2555 10.7461 14.3628C10.848 14.47 10.9862 14.5303 11.1304 14.5303ZM11.1304 12.8141H12.2173V13.9583H11.1304V12.8141ZM13.8476 14.5303H14.9346C15.0787 14.5303 15.2169 14.47 15.3188 14.3628C15.4208 14.2555 15.478 14.11 15.478 13.9583V12.8141C15.478 12.6624 15.4208 12.5169 15.3188 12.4096C15.2169 12.3024 15.0787 12.2421 14.9346 12.2421H13.8476C13.7035 12.2421 13.5653 12.3024 13.4634 12.4096C13.3614 12.5169 13.3042 12.6624 13.3042 12.8141V13.9583C13.3042 14.11 13.3614 14.2555 13.4634 14.3628C13.5653 14.47 13.7035 14.5303 13.8476 14.5303ZM13.8476 12.8141H14.9346V13.9583H13.8476V12.8141ZM2.97852 17.3906H4.06543C4.20956 17.3906 4.34779 17.3303 4.44971 17.2231C4.55163 17.1158 4.60889 16.9703 4.60889 16.8186V15.6744C4.60889 15.5227 4.55163 15.3772 4.44971 15.2699C4.34779 15.1626 4.20956 15.1024 4.06543 15.1024H2.97852C2.83438 15.1024 2.69615 15.1626 2.59423 15.2699C2.49232 15.3772 2.43506 15.5227 2.43506 15.6744V16.8186C2.43506 16.9703 2.49232 17.1158 2.59423 17.2231C2.69615 17.3303 2.83438 17.3906 2.97852 17.3906ZM2.97852 15.6744H4.06543V16.8186H2.97852V15.6744ZM5.6958 17.3906H6.78271C6.92685 17.3906 7.06508 17.3303 7.16699 17.2231C7.26891 17.1158 7.32617 16.9703 7.32617 16.8186V15.6744C7.32617 15.5227 7.26891 15.3772 7.16699 15.2699C7.06508 15.1626 6.92685 15.1024 6.78271 15.1024H5.6958C5.55166 15.1024 5.41343 15.1626 5.31152 15.2699C5.2096 15.3772 5.15234 15.5227 5.15234 15.6744V16.8186C5.15234 16.9703 5.2096 17.1158 5.31152 17.2231C5.41343 17.3303 5.55166 17.3906 5.6958 17.3906ZM5.6958 15.6744H6.78271V16.8186H5.6958V15.6744ZM8.41308 17.3906H9.49999C9.64413 17.3906 9.78236 17.3303 9.88428 17.2231C9.98619 17.1158 10.0435 16.9703 10.0435 16.8186V15.6744C10.0435 15.5227 9.98619 15.3772 9.88428 15.2699C9.78236 15.1626 9.64413 15.1024 9.49999 15.1024H8.41308C8.26895 15.1024 8.13072 15.1626 8.0288 15.2699C7.92688 15.3772 7.86962 15.5227 7.86962 15.6744V16.8186C7.86962 16.9703 7.92688 17.1158 8.0288 17.2231C8.13072 17.3303 8.26895 17.3906 8.41308 17.3906ZM8.41308 15.6744H9.49999V16.8186H8.41308V15.6744ZM11.1304 17.3906H12.2173C12.3614 17.3906 12.4996 17.3303 12.6016 17.2231C12.7035 17.1158 12.7607 16.9703 12.7607 16.8186V15.6744C12.7607 15.5227 12.7035 15.3772 12.6016 15.2699C12.4996 15.1626 12.3614 15.1024 12.2173 15.1024H11.1304C10.9862 15.1024 10.848 15.1626 10.7461 15.2699C10.6442 15.3772 10.5869 15.5227 10.5869 15.6744V16.8186C10.5869 16.9703 10.6442 17.1158 10.7461 17.2231C10.848 17.3303 10.9862 17.3906 11.1304 17.3906ZM11.1304 15.6744H12.2173V16.8186H11.1304V15.6744Z" fill="#222222"/>
<path d="M17.5839 1.01049H16.2847V0.288711C16.2847 0.21214 16.2543 0.138705 16.2001 0.0845616C16.146 0.0304177 16.0726 0 15.996 0C15.9194 0 15.846 0.0304177 15.7918 0.0845616C15.7377 0.138705 15.7073 0.21214 15.7073 0.288711V2.5984C15.7073 2.71326 15.6617 2.82341 15.5804 2.90463C15.4992 2.98584 15.3891 3.03147 15.2742 3.03147C15.1594 3.03147 15.0492 2.98584 14.968 2.90463C14.8868 2.82341 14.8412 2.71326 14.8412 2.5984V0.288711C14.8412 0.21214 14.8107 0.138705 14.7566 0.0845616C14.7024 0.0304177 14.629 0 14.5524 0C14.4759 0 14.4024 0.0304177 14.3483 0.0845616C14.2941 0.138705 14.2637 0.21214 14.2637 0.288711V1.01049H10.5105V0.288711C10.5105 0.21214 10.4801 0.138705 10.4259 0.0845616C10.3718 0.0304177 10.2983 0 10.2218 0C10.1452 0 10.0718 0.0304177 10.0176 0.0845616C9.96348 0.138705 9.93306 0.21214 9.93306 0.288711V2.5984C9.93306 2.71326 9.88743 2.82341 9.80622 2.90463C9.725 2.98584 9.61485 3.03147 9.49999 3.03147C9.38514 3.03147 9.27498 2.98584 9.19377 2.90463C9.11255 2.82341 9.06693 2.71326 9.06693 2.5984V0.288711C9.06693 0.21214 9.03651 0.138705 8.98236 0.0845616C8.92822 0.0304177 8.85479 0 8.77821 0C8.70164 0 8.62821 0.0304177 8.57406 0.0845616C8.51992 0.138705 8.4895 0.21214 8.4895 0.288711V1.01049H4.73626V0.288711C4.73626 0.21214 4.70584 0.138705 4.65169 0.0845616C4.59755 0.0304177 4.52412 0 4.44754 0C4.37097 0 4.29754 0.0304177 4.24339 0.0845616C4.18925 0.138705 4.15883 0.21214 4.15883 0.288711V2.5984C4.15883 2.71326 4.11321 2.82341 4.03199 2.90463C3.95078 2.98584 3.84062 3.03147 3.72577 3.03147C3.61091 3.03147 3.50076 2.98584 3.41954 2.90463C3.33833 2.82341 3.2927 2.71326 3.2927 2.5984V0.288711C3.2927 0.21214 3.26228 0.138705 3.20814 0.0845616C3.15399 0.0304177 3.08056 0 3.00399 0C2.92742 0 2.85398 0.0304177 2.79984 0.0845616C2.74569 0.138705 2.71528 0.21214 2.71528 0.288711V1.01049H1.41608C1.10979 1.01049 0.816052 1.13216 0.599477 1.34874C0.382901 1.56531 0.26123 1.85905 0.26123 2.16533L0.26123 17.3227C0.262144 17.6287 0.384109 17.9219 0.600486 18.1383C0.816864 18.3546 1.11007 18.4766 1.41608 18.4775H17.5839C17.8902 18.4775 18.1839 18.3559 18.4005 18.1393C18.6171 17.9227 18.7388 17.629 18.7388 17.3227V2.16533C18.7388 1.85905 18.6171 1.56531 18.4005 1.34874C18.1839 1.13216 17.8902 1.01049 17.5839 1.01049ZM14.4139 3.12573C14.5038 3.27328 14.6302 3.39522 14.7808 3.47984C14.9315 3.56445 15.1014 3.60889 15.2742 3.60889C15.447 3.60889 15.6169 3.56445 15.7676 3.47984C15.9183 3.39522 16.0446 3.27328 16.1346 3.12573C16.1367 3.15027 16.1404 3.17467 16.1404 3.19993C16.1404 3.42964 16.0491 3.64995 15.8867 3.81238C15.7242 3.97481 15.5039 4.06607 15.2742 4.06607C15.0445 4.06607 14.8242 3.97481 14.6618 3.81238C14.4993 3.64995 14.4081 3.42964 14.4081 3.19993C14.4081 3.17467 14.4117 3.15042 14.4139 3.12573V3.12573ZM8.63963 3.12573C8.72957 3.27328 8.85595 3.39522 9.00662 3.47984C9.15729 3.56445 9.32719 3.60889 9.49999 3.60889C9.67279 3.60889 9.84269 3.56445 9.99336 3.47984C10.144 3.39522 10.2704 3.27328 10.3604 3.12573C10.3625 3.15027 10.3661 3.17467 10.3661 3.19993C10.3661 3.42964 10.2749 3.64995 10.1124 3.81238C9.95001 3.97481 9.72971 4.06607 9.49999 4.06607C9.27028 4.06607 9.04997 3.97481 8.88754 3.81238C8.72511 3.64995 8.63386 3.42964 8.63386 3.19993C8.63386 3.17467 8.63747 3.15042 8.63963 3.12573V3.12573ZM2.86541 3.12573C2.95535 3.27328 3.08173 3.39522 3.2324 3.47984C3.38307 3.56445 3.55296 3.60889 3.72577 3.60889C3.89857 3.60889 4.06847 3.56445 4.21914 3.47984C4.36981 3.39522 4.49618 3.27328 4.58613 3.12573C4.58829 3.15027 4.5919 3.17467 4.5919 3.19993C4.5919 3.42964 4.50065 3.64995 4.33822 3.81238C4.17578 3.97481 3.95548 4.06607 3.72577 4.06607C3.49605 4.06607 3.27575 3.97481 3.11332 3.81238C2.95089 3.64995 2.85963 3.42964 2.85963 3.19993C2.85963 3.17467 2.86324 3.15042 2.86541 3.12573ZM18.1613 17.3227C18.1611 17.4758 18.1002 17.6225 17.992 17.7308C17.8838 17.839 17.737 17.8999 17.5839 17.9001H1.41608C1.26299 17.8999 1.11623 17.839 1.00799 17.7308C0.899741 17.6225 0.838844 17.4758 0.838653 17.3227V5.77423H18.1613V17.3227ZM18.1613 5.1968H0.838653V2.16533C0.838844 2.01225 0.899741 1.86549 1.00799 1.75725C1.11623 1.649 1.26299 1.5881 1.41608 1.58791H2.71528V2.17212C2.5105 2.37284 2.37015 2.62999 2.3121 2.91079C2.25405 3.19159 2.28094 3.48332 2.38935 3.74877C2.49775 4.01423 2.68276 4.24139 2.92077 4.40129C3.15879 4.56119 3.43903 4.64658 3.72577 4.64658C4.0125 4.64658 4.29275 4.56119 4.53076 4.40129C4.76878 4.24139 4.95378 4.01423 5.06218 3.74877C5.17059 3.48332 5.19748 3.19159 5.13943 2.91079C5.08139 2.62999 4.94103 2.37284 4.73626 2.17212V1.58791H8.4895V2.17212C8.28473 2.37284 8.14437 2.62999 8.08633 2.91079C8.02828 3.19159 8.05517 3.48332 8.16357 3.74877C8.27198 4.01423 8.45698 4.24139 8.695 4.40129C8.93301 4.56119 9.21325 4.64658 9.49999 4.64658C9.78673 4.64658 10.067 4.56119 10.305 4.40129C10.543 4.24139 10.728 4.01423 10.8364 3.74877C10.9448 3.48332 10.9717 3.19159 10.9137 2.91079C10.8556 2.62999 10.7153 2.37284 10.5105 2.17212V1.58791H14.2637V2.17212C14.059 2.37284 13.9186 2.62999 13.8606 2.91079C13.8025 3.19159 13.8294 3.48332 13.9378 3.74877C14.0462 4.01423 14.2312 4.24139 14.4692 4.40129C14.7072 4.56119 14.9875 4.64658 15.2742 4.64658C15.561 4.64658 15.8412 4.56119 16.0792 4.40129C16.3172 4.24139 16.5022 4.01423 16.6106 3.74877C16.719 3.48332 16.7459 3.19159 16.6879 2.91079C16.6298 2.62999 16.4895 2.37284 16.2847 2.17212V1.58791H17.5839C17.737 1.5881 17.8838 1.649 17.992 1.75725C18.1002 1.86549 18.1611 2.01225 18.1613 2.16533V5.1968Z" />
</svg>
