<svg width="22" height="22" viewBox="0 0 22 22" fill="none" xmlns="http://www.w3.org/2000/svg">
<path d="M6.32344 12.6889C6.11373 12.6889 5.90401 12.6955 5.69648 12.6867C5.32292 12.6714 5.11976 12.4858 5.06733 12.1187C5.03456 11.8894 5.0018 11.66 4.9865 11.4284C4.97777 11.3039 4.92752 11.2515 4.81393 11.2078C4.5212 11.0964 4.23939 10.9588 3.94666 10.8517C3.87457 10.8255 3.75879 10.8386 3.69326 10.8801C3.50757 11.0046 3.34154 11.1575 3.16241 11.293C2.84565 11.5311 2.56603 11.5136 2.28204 11.234C1.98931 10.95 1.70314 10.666 1.42133 10.3777C1.14389 10.0937 1.1286 9.81187 1.36672 9.49511C1.50653 9.30943 1.66163 9.13685 1.7927 8.94679C1.83203 8.88999 1.84295 8.78295 1.81673 8.71523C1.70969 8.42906 1.59173 8.14725 1.46065 7.872C1.42789 7.80209 1.33395 7.73656 1.25531 7.72126C1.02811 7.67757 0.796552 7.66447 0.567175 7.62951C0.219833 7.57927 0.0254089 7.38484 0.0123017 7.03532C-0.00517466 6.59404 -0.00299012 6.15276 0.0123017 5.71367C0.0254089 5.35322 0.21328 5.16098 0.578098 5.10637C0.78563 5.07578 0.993161 5.04302 1.20069 5.03209C1.32521 5.02554 1.38201 4.97966 1.42352 4.86388C1.53711 4.54931 1.67255 4.24129 1.78615 3.92671C1.81018 3.85899 1.79707 3.75414 1.75775 3.69515C1.6376 3.51602 1.49124 3.35436 1.36016 3.18179C1.13079 2.87377 1.14389 2.59414 1.41259 2.31671C1.70314 2.01524 1.99805 1.71814 2.3017 1.42978C2.5704 1.17201 2.84784 1.16327 3.1493 1.38609C3.31096 1.50624 3.45951 1.64387 3.62772 1.75528C3.68452 1.7946 3.79156 1.80552 3.8571 1.77931C4.20444 1.64387 4.54741 1.4975 4.88383 1.3424C4.95374 1.30963 5.02583 1.22225 5.0433 1.14579C5.08481 0.964475 5.09355 0.776605 5.11539 0.590919C5.16345 0.204255 5.37972 0.0076459 5.77294 0.00327681C6.18363 -0.00109227 6.59433 -0.00109227 7.00721 0.00327681C7.37202 0.0076459 7.57737 0.17804 7.64509 0.536305C7.68223 0.735098 7.70407 0.936076 7.71718 1.13705C7.72592 1.26157 7.77835 1.31182 7.89195 1.35551C8.21963 1.48003 8.54294 1.61328 8.8597 1.76183C8.97548 1.81645 9.04538 1.80771 9.13495 1.72907C9.27695 1.60673 9.42331 1.49095 9.57404 1.38172C9.87114 1.16545 10.1398 1.17201 10.4042 1.42104C10.7187 1.71814 11.0246 2.02616 11.3239 2.34074C11.562 2.59196 11.5729 2.87158 11.3719 3.15339C11.254 3.31723 11.1294 3.4767 10.9962 3.62743C10.9154 3.71918 10.9088 3.79346 10.9612 3.90487C11.0945 4.19541 11.2168 4.49251 11.3217 4.79398C11.3697 4.93379 11.444 4.97311 11.5795 4.98403C11.7957 4.99932 12.012 5.02336 12.2217 5.06923C12.5232 5.13258 12.6892 5.32919 12.6958 5.63721C12.7045 6.08504 12.7045 6.53506 12.6958 6.98289C12.6892 7.32149 12.4882 7.52902 12.1431 7.58145C12.0469 7.59675 11.9486 7.62296 11.8547 7.61422C11.468 7.57927 11.2802 7.7584 11.2037 8.13196C11.16 8.33731 11.0399 8.53173 10.9394 8.72179C10.8804 8.83538 10.8738 8.91839 10.9656 9.01888C11.101 9.16962 11.2212 9.33127 11.3435 9.49293C11.586 9.81406 11.5773 10.0871 11.302 10.3755C11.018 10.6726 10.7253 10.9631 10.4304 11.2493C10.1508 11.5202 9.8624 11.5311 9.54783 11.2908C9.37525 11.1597 9.21359 11.0156 9.03446 10.8932C8.97548 10.8539 8.86844 10.843 8.8029 10.8692C8.47522 10.9893 8.14972 11.1226 7.83078 11.2646C7.76524 11.293 7.69752 11.3782 7.68441 11.4481C7.64291 11.6687 7.63198 11.8937 7.59922 12.1144C7.53805 12.512 7.33707 12.6845 6.93293 12.6933C6.7254 12.6911 6.52442 12.6889 6.32344 12.6889ZM4.12361 6.29694C4.12579 7.53558 5.16345 8.56887 6.39553 8.56013C7.61888 8.55358 8.64998 7.52029 8.65435 6.29913C8.65872 5.06486 7.62543 4.03157 6.3868 4.03157C5.14379 4.02939 4.12143 5.05175 4.12361 6.29694Z" />
<path d="M12.2173 14.9456C12.3309 14.7337 12.4074 14.5349 12.5297 14.3776C12.6957 14.1657 12.7394 13.9822 12.5472 13.7725C12.5035 13.7244 12.462 13.6611 12.4489 13.5977C12.3746 13.2263 12.1299 13.1695 11.7935 13.1805C11.3063 13.1979 11.1141 13.0101 11.0595 12.5338C11.0311 12.2826 11.0071 12.0292 10.994 11.7736C10.9743 11.3913 11.1447 11.1314 11.5204 11.092C11.918 11.0505 12.0622 10.8714 12.1845 10.4891C12.3178 10.074 12.2916 9.81627 11.9661 9.52791C11.7017 9.29198 11.7258 8.98615 11.9508 8.70434C12.1234 8.48807 12.3025 8.27617 12.486 8.07082C12.7416 7.78246 13.0343 7.71911 13.338 7.96378C13.646 8.21063 13.8623 8.15384 14.1965 7.98781C14.6137 7.78028 14.8628 7.57712 14.8191 7.07467C14.7972 6.82782 15.0004 6.64213 15.2538 6.605C15.6077 6.55475 15.966 6.52198 16.3242 6.51324C16.6104 6.50451 16.8332 6.68364 16.8704 7.00477C16.9184 7.40454 17.1107 7.53998 17.4886 7.6645C17.9058 7.80213 18.1833 7.82615 18.4891 7.47663C18.6748 7.26254 18.9697 7.28439 19.2035 7.46352C19.4591 7.65795 19.7059 7.86548 19.9397 8.08393C20.18 8.30894 20.228 8.58419 20.0183 8.84852C19.7649 9.16746 19.7889 9.40339 19.9702 9.76821C20.1581 10.144 20.3394 10.31 20.761 10.2816C21.1018 10.2597 21.3072 10.4979 21.3443 10.8627C21.3727 11.1292 21.3924 11.3979 21.4077 11.6666C21.4295 12.0576 21.2766 12.3088 20.8943 12.3525C20.5011 12.3984 20.3722 12.5819 20.2411 12.9445C20.0838 13.3749 20.1232 13.6414 20.4596 13.9385C20.7042 14.1526 20.6868 14.4453 20.4836 14.7075C20.3001 14.9434 20.1057 15.1706 19.9047 15.3934C19.671 15.6512 19.376 15.7167 19.1052 15.5026C18.7644 15.2339 18.5022 15.2296 18.1046 15.448C17.7464 15.6424 17.5869 15.8085 17.6109 16.2192C17.6371 16.632 17.3968 16.8374 16.9774 16.8702C16.7327 16.8898 16.4859 16.9139 16.2412 16.9357C15.8567 16.9706 15.5706 16.7981 15.5312 16.4201C15.4876 15.9832 15.2997 15.7954 14.8693 15.6665C14.5133 15.5594 14.3145 15.5878 14.0698 15.8478C13.7203 16.2148 13.4581 16.2061 13.0758 15.8827C12.888 15.7233 12.6848 15.5769 12.5144 15.4C12.3986 15.2776 12.3265 15.1138 12.2173 14.9456ZM16.239 9.82938C15.1992 9.81846 14.3909 10.6377 14.3778 11.7168C14.3669 12.7021 15.2079 13.5191 16.2456 13.5278C17.2286 13.5365 18.0653 12.7021 18.0741 11.6972C18.085 10.6748 17.2636 9.8403 16.239 9.82938Z" />
<path d="M10.7646 20.3654C10.6161 20.2824 10.4457 20.2191 10.319 20.1076C10.166 19.9722 10.0481 19.9897 9.86458 20.0508C9.48666 20.1775 9.19174 20.3195 9.183 20.798C9.17864 21.0142 8.96673 21.154 8.73736 21.1693C8.49924 21.1846 8.25894 21.1868 8.02083 21.1671C7.72155 21.1431 7.51401 20.9312 7.50528 20.5904C7.49872 20.3174 7.38731 20.2081 7.14483 20.0923C6.82807 19.9416 6.59869 19.9088 6.31907 20.1644C6.1028 20.361 5.8341 20.3064 5.60472 20.1076C5.48239 20.0006 5.36879 19.8783 5.2552 19.7603C4.96684 19.4588 4.93625 19.1748 5.21151 18.869C5.39282 18.6658 5.44744 18.4911 5.27704 18.2704C5.2683 18.2595 5.25957 18.2442 5.25738 18.2311C5.21151 17.9318 5.04985 17.8073 4.73528 17.7898C4.38793 17.768 4.21536 17.5364 4.20443 17.1825C4.19788 17.0187 4.20443 16.8527 4.2088 16.6888C4.22409 16.3087 4.41852 16.0815 4.80081 16.0684C5.05422 16.0597 5.13505 15.9439 5.23554 15.7276C5.39064 15.389 5.44307 15.1203 5.16782 14.8145C5.0149 14.6441 5.05859 14.3972 5.21151 14.2137C5.35569 14.0434 5.51297 13.8817 5.68337 13.7375C5.94551 13.5147 6.22732 13.5212 6.51131 13.7703C6.66204 13.9035 6.78219 13.9385 6.96133 13.8271C7.09895 13.7419 7.25842 13.6873 7.41571 13.6458C7.5577 13.6086 7.59921 13.5278 7.61669 13.3945C7.68659 12.8724 7.85699 12.7261 8.37909 12.7304C8.43808 12.7304 8.49924 12.7326 8.55823 12.7326C9.16116 12.7392 9.30097 12.8703 9.3818 13.4623C9.39054 13.53 9.467 13.5999 9.52816 13.6479C9.57841 13.6873 9.65705 13.6895 9.71385 13.7222C10.0306 13.9166 10.3233 13.9866 10.6423 13.696C10.7843 13.5671 11.0027 13.6195 11.1666 13.7375C11.2802 13.8205 11.3763 13.9276 11.4811 14.0215C11.8962 14.3972 11.9749 14.7206 11.5663 15.1728C11.5248 15.2186 11.5248 15.3344 11.5467 15.4043C11.5991 15.5747 11.6909 15.7342 11.7367 15.9046C11.7761 16.0488 11.8569 16.0881 11.9901 16.1012C12.5057 16.158 12.663 16.3393 12.6608 16.8592C12.6608 16.9117 12.6564 16.9641 12.6608 17.0165C12.7001 17.6216 12.438 17.8576 11.9137 17.8707C11.8438 17.8729 11.7717 17.969 11.7127 18.0323C11.6799 18.0673 11.6843 18.135 11.6581 18.1765C11.4484 18.4954 11.4091 18.786 11.6974 19.1028C11.8438 19.2644 11.811 19.5091 11.6603 19.6838C11.4899 19.8783 11.2976 20.0596 11.101 20.2278C11.0246 20.2955 10.9022 20.313 10.7646 20.3654ZM6.94822 16.916C6.94822 17.7527 7.62761 18.4365 8.45118 18.4321C9.28131 18.4277 9.96507 17.7396 9.95852 16.916C9.95196 16.0903 9.28131 15.4196 8.46211 15.4152C7.62543 15.4152 6.94603 16.0859 6.94822 16.916Z" />
</svg>
