<svg width="22" height="23" viewBox="0 0 22 23" fill="none" xmlns="http://www.w3.org/2000/svg">
<path d="M12.117 4.55979V6.6424C11.6626 6.79386 11.3597 7.21039 11.3597 7.70264V9.21727C11.3597 9.4066 11.549 9.59593 11.7384 9.59593H13.253C13.4802 9.59593 13.6316 9.4066 13.6316 9.21727V7.70264C13.6316 7.21039 13.3287 6.79386 12.8743 6.6424V4.21899L12.117 4.55979ZM19.0464 17.1312L18.0241 16.8283C17.9862 17.0933 17.9105 17.3584 17.759 17.5477L18.8571 17.8128C18.6299 17.5477 18.7057 17.3205 19.0464 17.1312V17.1312ZM16.3958 18.4944L16.6609 19.5167C16.8124 19.176 17.0774 19.1381 17.3804 19.3274L17.0774 18.2672C16.8881 18.3429 16.6609 18.4565 16.3958 18.4944V18.4944ZM14.2754 16.904L10.2616 20.8799L11.8141 22.4703L12.3442 21.9401L11.549 21.145C11.3976 20.9935 11.3976 20.7663 11.549 20.6148C11.7005 20.4634 11.9277 20.4634 12.0792 20.6148L12.8743 21.41L15.6764 18.6458L15.6007 18.4186C14.9191 18.2293 14.389 17.6235 14.2754 16.904ZM17.9483 16.071L18.2513 16.1467L22 12.3601L20.4096 10.7319L19.8795 11.262L20.6747 12.0572C20.8261 12.2087 20.8261 12.4359 20.6747 12.5873C20.5232 12.7388 20.296 12.7388 20.1445 12.5873L19.3494 11.7921L16.4337 14.7078C17.1532 14.8593 17.7211 15.3515 17.9483 16.071V16.071Z" fill="#222222"/>
<path d="M16.1307 17.7372C16.7581 17.7372 17.2667 17.2286 17.2667 16.6012C17.2667 15.9738 16.7581 15.4652 16.1307 15.4652C15.5033 15.4652 14.9948 15.9738 14.9948 16.6012C14.9948 17.2286 15.5033 17.7372 16.1307 17.7372Z" fill="#222222"/>
<path d="M11.0947 12.1707C10.4888 13.7989 8.97418 14.897 7.19449 14.897C5.4148 14.897 3.90017 13.7989 3.29432 12.1328C1.36317 12.8523 0 14.6698 0 16.7903V20.1982H9.88295L14.2754 15.7679C13.9346 14.064 12.685 12.7387 11.0947 12.1707V12.1707ZM2.87779 14.064C2.23408 14.5562 1.74182 15.2757 1.59036 16.1087C1.55249 16.298 1.36317 16.4116 1.13597 16.4116C0.946643 16.3738 0.79518 16.1844 0.833046 15.9572C1.02237 14.9727 1.62823 14.064 2.42341 13.4581C2.57487 13.3445 2.83993 13.3824 2.95353 13.5338C3.06712 13.7232 3.02926 13.9504 2.87779 14.064V14.064ZM10.9811 17.9263H8.70912C8.51979 17.9263 8.33046 17.7369 8.33046 17.5476C8.33046 17.3583 8.51979 17.169 8.70912 17.169H10.9811C11.2083 17.169 11.3597 17.3583 11.3597 17.5476C11.3597 17.7369 11.2083 17.9263 10.9811 17.9263Z" fill="#222222"/>
<path d="M4.54395 9.14163C4.54395 10.0504 4.9226 10.9213 5.56632 11.565L6.17217 12.1709C6.70229 12.701 7.6868 12.701 8.21692 12.1709L8.82277 11.6029C9.46649 10.9592 9.84515 10.0883 9.84515 9.17949V7.55127L8.14119 8.38431C7.83826 8.53578 7.11881 8.80084 6.21004 8.38431L4.54395 7.55127V9.14163Z" fill="#222222"/>
<path d="M7.8004 7.70266L9.84515 6.71815V5.54431L7.64893 6.49095C7.49747 6.52882 7.19455 6.71815 6.74016 6.49095L4.54395 5.54431V6.71815L6.55083 7.70266C6.96735 7.92985 7.42174 7.92985 7.8004 7.70266V7.70266Z" fill="#222222"/>
<path d="M11.2083 4.10542L7.15666 3.53744C6.96733 3.49957 6.81587 3.31024 6.85373 3.12091C6.85373 2.89372 7.04306 2.78012 7.23239 2.78012L12.5336 3.53744L13.4802 3.12091L7.19452 0.508179L0.908813 3.19664L7.15666 5.84724L11.2083 4.10542V4.10542Z" fill="#222222"/>
<path d="M7.19449 14.1399C8.63339 14.1399 9.84509 13.269 10.3752 11.9437C10.1102 11.9058 9.88296 11.8679 9.6179 11.8679C9.54216 11.9437 8.74698 12.701 8.74698 12.701C8.33046 13.1175 7.80034 13.3447 7.19449 13.3447C6.6265 13.3447 6.05852 13.1175 5.642 12.701C5.642 12.701 4.88468 11.9437 4.84682 11.8679C4.58176 11.8679 4.3167 11.9058 4.05164 11.9437C4.54389 13.269 5.75559 14.1399 7.19449 14.1399Z" />
</svg>
