<svg width="21" height="22" viewBox="0 0 21 22" fill="none" xmlns="http://www.w3.org/2000/svg">
<path d="M12.7689 3.11965V17.8266H1.82414V3.11965H12.7689ZM14.5931 1.33699H0V20.0549H14.5931V1.33699ZM3.19224 4.90231H11.4008V6.68497H3.19224V4.90231ZM3.19224 8.02196H11.4008V9.80462H3.19224V8.02196ZM3.19224 11.1416H11.4008V12.9243H3.19224V11.1416ZM3.19224 14.2613H11.4008V16.0439H3.19224V14.2613ZM17.3293 4.90231H20.9776V17.3809H17.3293V4.90231ZM19.1562 0C18.1556 0 17.3293 0.786598 17.3293 1.75458V3.56532H20.9776V1.75458C20.9776 0.786598 20.1526 0 19.1562 0ZM17.301 18.7179L19.1438 21.5644L20.9776 18.7179H17.301Z" fill="#FF4C00"/>
</svg>
