<svg width="16" height="21" viewBox="0 0 16 21" fill="none" xmlns="http://www.w3.org/2000/svg">
<path d="M8.04404 18.2305C8.34128 18.2305 9.29541 17.8252 10.6606 16.5343C12.8294 14.4929 15.3615 10.9053 15.3615 7.52788C15.3615 5.53136 14.5859 3.61661 13.2053 2.20486C11.8248 0.793113 9.95238 0 8 0C6.04762 0 4.1752 0.793113 2.79466 2.20486C1.41411 3.61661 0.638532 5.53136 0.638532 7.52788C0.638532 12.8342 6.68257 18.1179 8.04404 18.2305V18.2305ZM8 3.04342C8.69387 3.04342 9.37215 3.25383 9.94908 3.64804C10.526 4.04224 10.9757 4.60254 11.2412 5.25809C11.5067 5.91363 11.5762 6.63497 11.4408 7.33088C11.3055 8.0268 10.9714 8.66605 10.4807 9.16778C9.99007 9.66951 9.36496 10.0112 8.68443 10.1496C8.00389 10.288 7.2985 10.217 6.65745 9.94546C6.0164 9.67393 5.46848 9.2141 5.08299 8.62413C4.6975 8.03416 4.49174 7.34054 4.49174 6.63099C4.49271 5.67981 4.86265 4.76788 5.52036 4.09529C6.17808 3.42271 7.06985 3.04442 8 3.04342V3.04342ZM16 18.936C16 19.6378 13.178 21 8 21C2.82202 21 0 19.6378 0 18.936C0 18.4669 1.3211 17.5963 4.26422 17.146C4.31536 17.1377 4.3649 17.1213 4.41101 17.0972C5.79083 18.4294 7.14128 19.285 7.95596 19.3488H8.05872C9.15963 19.3488 10.7633 17.9641 11.4092 17.3561C11.4899 17.2811 11.5706 17.1985 11.6514 17.116C11.679 17.1252 11.7072 17.1327 11.7358 17.1385C14.6789 17.5963 16 18.4669 16 18.936V18.936Z" />
</svg>
