<svg width="18" height="18" viewBox="0 0 18 18" fill="none" xmlns="http://www.w3.org/2000/svg">
<path fill-rule="evenodd" clip-rule="evenodd" d="M2.59623 9.49106L5.49213 11.7438L0.749203 16.4868C0.418738 16.0481 0.189483 15.5417 0.0778939 15.004L0.0771521 15.0032C0.0579817 14.9037 0.0426403 14.8035 0.0311619 14.7028C0.0281948 14.6768 0.0222605 14.6509 0.0192934 14.6242C0.00648722 14.4952 5.08067e-05 14.3658 7.34371e-06 14.2362V12.0865L2.59623 9.49106V9.49106ZM12.2913 6.90299L18 11.2795V14.2362C18.0011 14.7308 17.9044 15.2207 17.7157 15.6778C17.5269 16.1349 17.2497 16.5503 16.9 16.9C16.5503 17.2497 16.1349 17.5269 15.6778 17.7157C15.2207 17.9044 14.7308 18.0011 14.2362 18H3.76379C3.64881 18 3.53606 17.9933 3.42405 17.9829C3.31266 17.9728 3.20178 17.9577 3.09174 17.9377C3.04946 17.9303 3.00718 17.9236 2.96489 17.9139H2.96193C2.80343 17.8784 2.64734 17.8328 2.49461 17.7775L2.43897 17.7574C2.20528 17.6693 1.98111 17.5577 1.76989 17.4244L12.2913 6.90299V6.90299ZM6.41564 3.44557C6.55845 3.44438 6.70007 3.47164 6.83223 3.52577C6.96439 3.5799 7.08445 3.6598 7.1854 3.76082C7.28635 3.86184 7.36617 3.98195 7.42021 4.11415C7.47424 4.24635 7.50141 4.38798 7.50012 4.53079C7.50131 4.67353 7.47407 4.81509 7.41999 4.9472C7.36591 5.07931 7.28607 5.19933 7.18513 5.30028C7.08419 5.40122 6.96417 5.48105 6.83206 5.53513C6.69995 5.58921 6.55839 5.61645 6.41564 5.61527C6.27284 5.61655 6.1312 5.58939 5.99901 5.53535C5.86681 5.48131 5.7467 5.40149 5.64568 5.30054C5.54466 5.19959 5.46475 5.07953 5.41063 4.94737C5.3565 4.81521 5.32924 4.6736 5.33042 4.53079C5.33042 3.92476 5.80961 3.44557 6.41564 3.44557V3.44557ZM6.41564 2.06067C5.7615 2.0636 5.13499 2.3248 4.6725 2.78743C4.21002 3.25005 3.949 3.87664 3.94627 4.53079C3.949 5.1848 4.21007 5.81123 4.6726 6.27362C5.13512 6.73601 5.76163 6.99689 6.41564 6.99943C7.06953 6.99669 7.69585 6.73573 8.15821 6.27336C8.62058 5.81099 8.88155 5.18467 8.88428 4.53079C8.88155 3.87677 8.62063 3.25029 8.15831 2.78769C7.69598 2.32509 7.06966 2.06379 6.41564 2.06067V2.06067ZM3.76379 8.8806e-06H14.2362C14.7307 -0.00106647 15.2206 0.095528 15.6776 0.284248C16.1347 0.472969 16.55 0.750099 16.8997 1.09973C17.2494 1.44937 17.5267 1.86462 17.7155 2.32167C17.9043 2.77871 18.001 3.26854 18 3.76305V9.53482L12.6525 5.43502C12.5192 5.333 12.3534 5.28279 12.1859 5.29371C12.0184 5.30462 11.8606 5.37591 11.7416 5.49436L6.4787 10.7573L2.96341 8.02234C2.83426 7.92238 2.67413 7.87093 2.51093 7.87695C2.33697 7.88425 2.17208 7.95651 2.0488 8.07945L7.34371e-06 10.129V3.76305C-0.000970534 3.26854 0.0957204 2.77871 0.284531 2.32167C0.473341 1.86462 0.750554 1.44937 1.10026 1.09973C1.44996 0.750099 1.86527 0.472969 2.32235 0.284248C2.77943 0.095528 3.26928 -0.00106647 3.76379 8.8806e-06V8.8806e-06Z" />
</svg>
