<svg width="21" height="13" viewBox="0 0 21 13" fill="none" xmlns="http://www.w3.org/2000/svg">
<path d="M14.7 3.42105V11.6316C14.6996 11.9944 14.5519 12.3422 14.2895 12.5987C14.027 12.8553 13.6712 12.9996 13.3 13H3.5C2.57207 12.999 1.68245 12.6382 1.0263 11.9969C0.370151 11.3555 0.00106159 10.4859 0 9.57895V1.36842C0.000424496 1.00562 0.14806 0.657798 0.410519 0.40126C0.672978 0.144721 1.02883 0.000414921 1.4 0H11.2C12.1279 0.00103764 13.0176 0.361802 13.6737 1.00315C14.3298 1.6445 14.6989 2.51405 14.7 3.42105ZM20.6514 1.80298C20.5453 1.74285 20.425 1.71099 20.3024 1.71058C20.1798 1.71017 20.0592 1.74123 19.9527 1.80065L16.4527 3.75556C16.3456 3.8154 16.2565 3.90187 16.1946 4.0062C16.1326 4.11053 16.1 4.22902 16.1 4.34965V8.65035C16.1 8.77098 16.1326 8.88947 16.1946 8.9938C16.2565 9.09813 16.3456 9.1846 16.4527 9.24444L19.9527 11.1994C20.0592 11.2588 20.1798 11.2899 20.3024 11.2895C20.425 11.2891 20.5453 11.2572 20.6514 11.197C20.7574 11.1369 20.8454 11.0505 20.9066 10.9467C20.9678 10.8428 21 10.7251 21 10.6053V2.39474C21 2.27489 20.9678 2.15715 20.9066 2.0533C20.8454 1.94944 20.7574 1.86313 20.6514 1.80298Z" />
</svg>
