<svg width="18" height="18" viewBox="0 0 18 18" fill="none" xmlns="http://www.w3.org/2000/svg">
<path d="M7.9131 10.9317H3.04373C2.30576 10.9317 1.59802 10.6385 1.07621 10.1167C0.554386 9.5949 0.26123 8.88716 0.26123 8.1492C0.26123 7.41123 0.554386 6.70349 1.07621 6.18167C1.59802 5.65985 2.30576 5.3667 3.04373 5.3667H3.73935C3.8316 5.3667 3.92007 5.40334 3.98529 5.46857C4.05052 5.5338 4.08716 5.62227 4.08716 5.71451C4.08716 5.80676 4.05052 5.89522 3.98529 5.96045C3.92007 6.02568 3.8316 6.06232 3.73935 6.06232H3.04373C2.49025 6.06232 1.95945 6.28219 1.56809 6.67355C1.17672 7.06492 0.956855 7.59572 0.956855 8.1492C0.956855 8.70267 1.17672 9.23347 1.56809 9.62484C1.95945 10.0162 2.49025 10.2361 3.04373 10.2361H7.9131C8.00534 10.2361 8.09381 10.2727 8.15904 10.3379C8.22427 10.4032 8.26091 10.4916 8.26091 10.5839C8.26091 10.6761 8.22427 10.7646 8.15904 10.8298C8.09381 10.8951 8.00534 10.9317 7.9131 10.9317ZM12.0868 15.8011H7.9131C7.82085 15.8011 7.73239 15.7644 7.66716 15.6992C7.60193 15.634 7.56529 15.5455 7.56529 15.4533C7.56529 15.361 7.60193 15.2725 7.66716 15.2073C7.73239 15.1421 7.82085 15.1054 7.9131 15.1054H12.0868C12.1791 15.1054 12.2676 15.1421 12.3328 15.2073C12.398 15.2725 12.4347 15.361 12.4347 15.4533C12.4347 15.5455 12.398 15.634 12.3328 15.6992C12.2676 15.7644 12.1791 15.8011 12.0868 15.8011ZM14.8693 15.8011H14.1737C14.0815 15.8011 13.993 15.7644 13.9278 15.6992C13.8626 15.634 13.8259 15.5455 13.8259 15.4533C13.8259 15.361 13.8626 15.2725 13.9278 15.2073C13.993 15.1421 14.0815 15.1054 14.1737 15.1054H14.8693C15.4228 15.1054 15.9536 14.8856 16.345 14.4942C16.7364 14.1028 16.9562 13.572 16.9562 13.0186C16.9562 12.4651 16.7364 11.9343 16.345 11.5429C15.9536 11.1516 15.4228 10.9317 14.8693 10.9317H9.99997C9.90773 10.9317 9.81926 10.8951 9.75403 10.8298C9.6888 10.7646 9.65216 10.6761 9.65216 10.5839C9.65216 10.4916 9.6888 10.4032 9.75403 10.3379C9.81926 10.2727 9.90773 10.2361 9.99997 10.2361H14.8693C15.6073 10.2361 16.315 10.5292 16.8369 11.051C17.3587 11.5729 17.6518 12.2806 17.6518 13.0186C17.6518 13.7565 17.3587 14.4643 16.8369 14.9861C16.315 15.5079 15.6073 15.8011 14.8693 15.8011ZM15.2172 6.06232H5.82623C5.73398 6.06232 5.64551 6.02568 5.58029 5.96045C5.51506 5.89522 5.47841 5.80676 5.47841 5.71451C5.47841 5.62227 5.51506 5.5338 5.58029 5.46857C5.64551 5.40334 5.73398 5.3667 5.82623 5.3667H15.2172C15.3094 5.3667 15.3979 5.40334 15.4631 5.46857C15.5283 5.5338 15.565 5.62227 15.565 5.71451C15.565 5.80676 15.5283 5.89522 15.4631 5.96045C15.3979 6.02568 15.3094 6.06232 15.2172 6.06232ZM0.609043 14.4098C0.609043 14.1331 0.718976 13.8677 0.914658 13.672C1.11034 13.4763 1.37574 13.3664 1.65248 13.3664H5.1306C5.40734 13.3664 5.67274 13.4763 5.86842 13.672C6.0641 13.8677 6.17404 14.1331 6.17404 14.4098C6.17404 14.5943 6.10075 14.7712 5.97029 14.9017C5.83984 15.0322 5.6629 15.1054 5.47841 15.1054H3.73935C3.73935 15.0132 3.70271 14.9247 3.63748 14.8595C3.57225 14.7943 3.48379 14.7576 3.39154 14.7576C3.29929 14.7576 3.21083 14.7943 3.1456 14.8595C3.08037 14.9247 3.04373 15.0132 3.04373 15.1054H1.30467C1.12018 15.1054 0.943241 15.0322 0.812786 14.9017C0.682332 14.7712 0.609043 14.5943 0.609043 14.4098ZM5.47841 15.8011C5.72276 15.8006 5.96268 15.7359 6.17404 15.6132V16.4967C6.17404 16.7734 6.0641 17.0388 5.86842 17.2345C5.67274 17.4302 5.40734 17.5401 5.1306 17.5401H1.65248C1.37574 17.5401 1.11034 17.4302 0.914658 17.2345C0.718976 17.0388 0.609043 16.7734 0.609043 16.4967V15.6132C0.820401 15.7359 1.06032 15.8006 1.30467 15.8011H3.04373C3.04373 15.8933 3.08037 15.9818 3.1456 16.047C3.21083 16.1122 3.29929 16.1489 3.39154 16.1489C3.48379 16.1489 3.57225 16.1122 3.63748 16.047C3.70271 15.9818 3.73935 15.8933 3.73935 15.8011H5.47841Z" fill="#222222"/>
<path d="M4.43493 13.7142C4.34268 13.7142 4.25422 13.6775 4.18899 13.6123C4.12376 13.5471 4.08712 13.4586 4.08712 13.3663V12.6707H2.69587V13.3663C2.69587 13.4586 2.65922 13.5471 2.594 13.6123C2.52877 13.6775 2.4403 13.7142 2.34806 13.7142C2.25581 13.7142 2.16734 13.6775 2.10212 13.6123C2.03689 13.5471 2.00024 13.4586 2.00024 13.3663V12.6707C2.00024 12.4862 2.07353 12.3093 2.20399 12.1788C2.33444 12.0484 2.51138 11.9751 2.69587 11.9751H4.08712C4.27161 11.9751 4.44854 12.0484 4.579 12.1788C4.70945 12.3093 4.78274 12.4862 4.78274 12.6707V13.3663C4.78274 13.4586 4.7461 13.5471 4.68087 13.6123C4.61564 13.6775 4.52718 13.7142 4.43493 13.7142Z" fill="#222222"/>
<path d="M13.1302 16.4968C13.7065 16.4968 14.1737 16.0296 14.1737 15.4533C14.1737 14.8771 13.7065 14.4099 13.1302 14.4099C12.554 14.4099 12.0868 14.8771 12.0868 15.4533C12.0868 16.0296 12.554 16.4968 13.1302 16.4968Z" fill="#222222"/>
<path d="M8.95652 11.6274C9.5328 11.6274 9.99996 11.1602 9.99996 10.584C9.99996 10.0077 9.5328 9.54053 8.95652 9.54053C8.38025 9.54053 7.91309 10.0077 7.91309 10.584C7.91309 11.1602 8.38025 11.6274 8.95652 11.6274Z" fill="#222222"/>
<path d="M4.78282 6.75789C5.35909 6.75789 5.82625 6.29073 5.82625 5.71446C5.82625 5.13818 5.35909 4.67102 4.78282 4.67102C4.20654 4.67102 3.73938 5.13818 3.73938 5.71446C3.73938 6.29073 4.20654 6.75789 4.78282 6.75789Z" fill="#222222"/>
<path d="M16.2606 6.75789C16.8369 6.75789 17.304 6.29073 17.304 5.71446C17.304 5.13818 16.8369 4.67102 16.2606 4.67102C15.6843 4.67102 15.2172 5.13818 15.2172 5.71446C15.2172 6.29073 15.6843 6.75789 16.2606 6.75789Z" fill="#222222"/>
<path d="M16.2605 5.01887C16.1683 5.01887 16.0798 4.98223 16.0146 4.917C15.9494 4.85177 15.9127 4.76331 15.9127 4.67106V0.845127C15.9127 0.752881 15.9494 0.664414 16.0146 0.599186C16.0798 0.533959 16.1683 0.497314 16.2605 0.497314C16.3528 0.497314 16.4412 0.533959 16.5065 0.599186C16.5717 0.664414 16.6083 0.752881 16.6083 0.845127V4.67106C16.6083 4.76331 16.5717 4.85177 16.5065 4.917C16.4412 4.98223 16.3528 5.01887 16.2605 5.01887Z" fill="#222222"/>
<path d="M16.2606 3.2799L13.8259 2.23646L16.2606 0.845215V3.2799Z" />
</svg>
