<svg width="88" height="100" viewBox="0 0 88 100" fill="none" xmlns="http://www.w3.org/2000/svg">
<path d="M36.2134 86.9539C36.2134 87.7093 36.1937 88.6688 36.0754 89.6284L35.6023 98.7546C35.6023 99.4283 35.0701 99.9592 34.4195 99.9592L20.6205 99.8979C19.97 99.8979 19.4575 99.3467 19.4575 98.6729L19.2012 91.1392L6.09213 74.7856C4.16027 72.6623 2.8395 70.2736 2.42553 67.3949L2.30726 66.5578L0.0205628 43.6301C-0.0977145 42.5071 0.296543 41.3434 1.1442 40.6288C2.16927 39.7713 3.78572 39.4651 4.98821 40.8738C5.83586 41.8742 6.24983 45.0184 6.38782 45.8555C6.88065 48.8567 7.35375 53.1646 7.43261 56.1862C7.43261 56.3904 7.45232 56.6762 7.47203 56.8804C7.55088 58.2074 7.84658 59.4324 8.37882 60.637C11.3358 67.2724 17.2693 75.684 17.2693 75.684L17.6045 76.1944C17.8607 76.5823 18.3535 76.7048 18.7281 76.4802C19.1618 76.2352 19.2998 75.6635 19.0435 75.2348L11.1978 61.9845C10.3501 60.5145 10.8429 58.432 12.3805 57.452C13.9181 56.472 15.9289 56.9824 16.7765 58.4524L24.9376 69.314C25.4699 70.0286 26.4752 71.0494 27.1849 71.5802C34.5181 77.0519 35.5037 82.6051 36.1543 85.443C36.1543 85.4022 36.2134 86.0351 36.2134 86.9539ZM9.89672 54.6345C9.89672 54.8795 9.91643 55.145 9.91643 55.39C10.1924 55.145 10.4881 54.9 10.8035 54.7162C11.1978 54.4712 11.6117 54.267 12.0454 54.1241C12.0651 54.1037 12.0848 54.0629 12.0848 54.0425C11.7694 51.6742 10.9809 47.2029 10.3895 44.8755C10.0938 43.7117 9.42361 42.8746 8.29997 42.4867C8.53653 43.3034 8.69423 44.0996 8.81251 44.8959C9.22648 47.4684 9.83758 52.1437 9.89672 54.6345ZM12.6762 45.7534C13.0508 47.4684 13.9773 50.6329 14.1941 52.2866L14.3321 53.43C14.3518 53.5321 14.3321 53.6546 14.3518 53.7566C15.0221 53.7771 15.6923 53.92 16.3034 54.165C16.0866 52.6337 15.1009 49.5713 14.7264 48.1421C14.4504 46.9784 13.7999 46.1413 12.6762 45.7534ZM83.0118 40.8738C82.1641 41.8742 81.7502 45.0184 81.6122 45.8555C81.1194 48.8567 80.6462 53.1646 80.5674 56.1862C80.5674 56.3904 80.5477 56.6762 80.528 56.8804C80.4491 58.2074 80.1534 59.4324 79.6212 60.637C76.6642 67.2724 70.7307 75.684 70.7307 75.684L70.3955 76.1944C70.1393 76.5823 69.6465 76.7048 69.2719 76.4802C68.8382 76.2352 68.7002 75.6635 68.9565 75.2348L76.8022 61.9845C77.6499 60.5145 77.1571 58.432 75.6195 57.452C74.0819 56.472 72.0711 56.9824 71.2235 58.4524L63.0624 69.314C62.5301 70.0286 61.5248 71.0494 60.8151 71.5802C53.4819 77.0519 52.4963 82.6051 51.8457 85.443C51.8457 85.443 51.7866 86.076 51.7866 86.9947C51.7866 87.7501 51.8063 88.7097 51.9246 89.6693L52.3977 98.7954C52.3977 99.4692 52.9299 100 53.5805 100L67.3795 99.9388C68.03 99.9388 68.5425 99.3875 68.5425 98.7138L68.7988 91.1801L81.9079 74.8265C83.8397 72.7031 85.1605 70.3144 85.5745 67.4357L85.6927 66.5986L87.9794 43.6709C88.0977 42.548 87.7035 41.3842 86.8558 40.6697C85.8307 39.7713 84.2143 39.4651 83.0118 40.8738ZM78.1033 55.39C78.1033 55.145 78.123 54.8795 78.123 54.6345C78.1624 52.1437 78.7932 47.4684 79.2072 44.8755C79.3255 44.0996 79.4832 43.283 79.7197 42.4663C78.5764 42.8542 77.9259 43.6913 77.6302 44.855C77.0388 47.1621 76.2306 51.6537 75.9349 54.0221C75.9546 54.0425 75.9743 54.0833 75.994 54.1037C76.4277 54.2466 76.8417 54.4508 77.2359 54.6958C77.5316 54.9204 77.8273 55.145 78.1033 55.39ZM71.6966 54.165C72.3274 53.92 72.9779 53.7975 73.6482 53.7566C73.6482 53.6546 73.6482 53.5321 73.6679 53.43L73.8059 52.2866C74.0227 50.6125 74.9492 47.4684 75.3238 45.7534C74.2198 46.1413 73.5693 46.9784 73.2736 48.1421C72.8991 49.5713 71.9134 52.6337 71.6966 54.165ZM62.8258 0V6.22703H75.6983V16.4557C75.6983 23.8056 69.9224 29.7877 62.8258 29.7877H61.1502C58.7255 35.341 53.8564 39.5059 47.9623 40.8126V49.1833H52.5751C53.9944 49.1833 55.1575 50.3879 55.1575 51.8579V55.3695H59.1001V67.8848H28.8999V55.3695H32.8425V51.8579C32.8425 50.3879 34.0056 49.1833 35.4249 49.1833H40.0377V40.8126C34.1436 39.5059 29.2745 35.341 26.8498 29.7877H25.1742C18.0776 29.7877 12.3017 23.8056 12.3017 16.4557V6.22703H25.1742V0H62.8258ZM25.2333 23.0502C25.2136 22.6215 25.1939 22.2131 25.1939 21.7844V12.9849H18.8464V16.4761C18.8464 20.1102 21.7047 23.0502 25.1939 23.0502H25.2333ZM38.7761 56.0024V62.6991H49.2239V56.0024H38.7761ZM51.9443 15.5778L46.8978 15.1899L44.9856 10.3512C44.6308 9.43242 43.3692 9.43242 43.0144 10.3512L41.1022 15.2103L36.0557 15.5982C35.1095 15.6799 34.7152 16.9049 35.4446 17.5378L39.3083 20.9065L38.1058 25.9902C37.8693 26.9498 38.8944 27.7052 39.7026 27.1948L44 24.4385L48.2974 27.1948C49.1056 27.7052 50.111 26.9498 49.8941 25.9902L48.6917 20.9065L52.5357 17.5174C53.2651 16.8844 52.8905 15.6595 51.9443 15.5778ZM62.8258 12.9849V21.7844C62.8258 22.2131 62.8061 22.6419 62.7864 23.0502H62.8258C66.3347 23.0502 69.1733 20.0898 69.1733 16.4761V12.9849H62.8258Z" fill="#FF4C00"/>
</svg>
