<svg width="22" height="23" viewBox="0 0 22 23" fill="none" xmlns="http://www.w3.org/2000/svg">
<path d="M1.28691 21.682H0.42897C0.3152 21.682 0.20609 21.7248 0.125643 21.8011C0.0451951 21.8773 0 21.9807 0 22.0885C0 22.1963 0.0451951 22.2997 0.125643 22.3759C0.20609 22.4521 0.3152 22.495 0.42897 22.495H5.57662V14.772H1.28691V21.682ZM2.57382 15.585H4.2897C4.40347 15.585 4.51259 15.6278 4.59303 15.704C4.67348 15.7802 4.71868 15.8836 4.71868 15.9914C4.71868 16.0992 4.67348 16.2026 4.59303 16.2788C4.51259 16.3551 4.40347 16.3979 4.2897 16.3979H2.57382C2.46005 16.3979 2.35094 16.3551 2.27049 16.2788C2.19005 16.2026 2.14485 16.0992 2.14485 15.9914C2.14485 15.8836 2.19005 15.7802 2.27049 15.704C2.35094 15.6278 2.46005 15.585 2.57382 15.585ZM2.57382 17.6173H4.2897C4.40347 17.6173 4.51259 17.6601 4.59303 17.7364C4.67348 17.8126 4.71868 17.916 4.71868 18.0238C4.71868 18.1316 4.67348 18.235 4.59303 18.3112C4.51259 18.3874 4.40347 18.4303 4.2897 18.4303H2.57382C2.46005 18.4303 2.35094 18.3874 2.27049 18.3112C2.19005 18.235 2.14485 18.1316 2.14485 18.0238C2.14485 17.916 2.19005 17.8126 2.27049 17.7364C2.35094 17.6601 2.46005 17.6173 2.57382 17.6173ZM2.57382 19.6497H4.2897C4.40347 19.6497 4.51259 19.6925 4.59303 19.7687C4.67348 19.8449 4.71868 19.9483 4.71868 20.0561C4.71868 20.1639 4.67348 20.2673 4.59303 20.3436C4.51259 20.4198 4.40347 20.4626 4.2897 20.4626H2.57382C2.46005 20.4626 2.35094 20.4198 2.27049 20.3436C2.19005 20.2673 2.14485 20.1639 2.14485 20.0561C2.14485 19.9483 2.19005 19.8449 2.27049 19.7687C2.35094 19.6925 2.46005 19.6497 2.57382 19.6497ZM6.43456 21.682V22.495H8.15044V18.8367C8.15044 18.5133 8.28602 18.2032 8.52737 17.9745C8.76871 17.7458 9.09604 17.6173 9.43735 17.6173H12.8691C13.2104 17.6173 13.5378 17.7458 13.7791 17.9745C14.0204 18.2032 14.156 18.5133 14.156 18.8367V22.495H15.8719V11.1138H6.43456V21.682ZM11.1532 13.1461C11.4926 13.1461 11.8244 13.2415 12.1065 13.4201C12.3887 13.5988 12.6086 13.8527 12.7385 14.1498C12.8684 14.4469 12.9024 14.7738 12.8361 15.0892C12.7699 15.4046 12.6065 15.6943 12.3665 15.9217C12.1266 16.1491 11.8208 16.3039 11.488 16.3667C11.1551 16.4294 10.8101 16.3972 10.4966 16.2741C10.1831 16.1511 9.91507 15.9427 9.72653 15.6753C9.53798 15.4079 9.43735 15.0936 9.43735 14.772C9.43735 14.3408 9.61813 13.9272 9.93992 13.6223C10.2617 13.3174 10.6982 13.1461 11.1532 13.1461Z" />
<path d="M9.15686 18.7212V22.495H10.622V18.3019H9.52314C9.42599 18.3019 9.33283 18.3461 9.26414 18.4247C9.19545 18.5033 9.15686 18.61 9.15686 18.7212ZM12.4533 18.3019H11.3545V22.495H12.8196V18.7212C12.8196 18.61 12.781 18.5033 12.7123 18.4247C12.6436 18.3461 12.5505 18.3019 12.4533 18.3019Z" />
<path d="M10.9883 15.3069C11.3254 15.3069 11.5987 14.9046 11.5987 14.4084C11.5987 13.9122 11.3254 13.5099 10.9883 13.5099C10.6511 13.5099 10.3778 13.9122 10.3778 14.4084C10.3778 14.9046 10.6511 15.3069 10.9883 15.3069Z" />
<path d="M21.5492 21.6656H20.6945V14.201H16.4213V22.495H21.5492C21.6625 22.495 21.7712 22.4513 21.8513 22.3736C21.9315 22.2958 21.9765 22.1903 21.9765 22.0803C21.9765 21.9703 21.9315 21.8649 21.8513 21.7871C21.7712 21.7093 21.6625 21.6656 21.5492 21.6656ZM17.7033 15.4451H19.4126C19.5259 15.4451 19.6346 15.4888 19.7147 15.5666C19.7949 15.6444 19.8399 15.7499 19.8399 15.8598C19.8399 15.9698 19.7949 16.0753 19.7147 16.1531C19.6346 16.2309 19.5259 16.2745 19.4126 16.2745H17.7033C17.59 16.2745 17.4813 16.2309 17.4011 16.1531C17.321 16.0753 17.276 15.9698 17.276 15.8598C17.276 15.7499 17.321 15.6444 17.4011 15.5666C17.4813 15.4888 17.59 15.4451 17.7033 15.4451ZM17.7033 17.5186H19.4126C19.5259 17.5186 19.6346 17.5623 19.7147 17.6401C19.7949 17.7179 19.8399 17.8234 19.8399 17.9333C19.8399 18.0433 19.7949 18.1488 19.7147 18.2266C19.6346 18.3043 19.5259 18.348 19.4126 18.348H17.7033C17.59 18.348 17.4813 18.3043 17.4011 18.2266C17.321 18.1488 17.276 18.0433 17.276 17.9333C17.276 17.8234 17.321 17.7179 17.4011 17.6401C17.4813 17.5623 17.59 17.5186 17.7033 17.5186ZM17.7033 19.5921H19.4126C19.5259 19.5921 19.6346 19.6358 19.7147 19.7136C19.7949 19.7914 19.8399 19.8969 19.8399 20.0068C19.8399 20.1168 19.7949 20.2223 19.7147 20.3001C19.6346 20.3778 19.5259 20.4215 19.4126 20.4215H17.7033C17.59 20.4215 17.4813 20.3778 17.4011 20.3001C17.321 20.2223 17.276 20.1168 17.276 20.0068C17.276 19.8969 17.321 19.7914 17.4011 19.7136C17.4813 19.6358 17.59 19.5921 17.7033 19.5921ZM16.4213 12.1275H21.1219V13.3716H16.4213V12.1275ZM0.610474 12.5422H5.311V13.7863H0.610474V12.5422ZM16.4213 9.45274L10.8662 5.98585L5.311 9.45274V10.0541H16.4213V9.45274ZM11.0969 5.14401L11.2935 5.26842V3.83356H14.2847V1.34536H11.2935C11.2935 1.23538 11.2485 1.1299 11.1683 1.05213C11.0882 0.974356 10.9795 0.930664 10.8662 0.930664C10.7528 0.930664 10.6441 0.974356 10.564 1.05213C10.4839 1.1299 10.4388 1.23538 10.4388 1.34536V5.26842L10.6354 5.14401C10.7043 5.10114 10.7844 5.07835 10.8662 5.07835C10.948 5.07835 11.0281 5.10114 11.0969 5.14401Z" />
</svg>
