<svg width="100" height="100" viewBox="0 0 100 100" fill="none" xmlns="http://www.w3.org/2000/svg">
<path fill-rule="evenodd" clip-rule="evenodd" d="M80.1807 59.0776H89.8152V85.6109H80.1807V59.0776ZM63.7536 67.1629C63.6468 67.9031 63.5236 68.6677 63.4086 69.3997L63.5811 71.238C63.8005 71.2746 64.008 71.3622 64.1865 71.4937C64.365 71.6253 64.5094 71.7969 64.6078 71.9945C64.9117 72.656 65.0172 73.3901 64.9117 74.1093C64.8318 74.9455 64.6356 75.7667 64.3285 76.5496C63.7947 77.9079 62.9322 79.0304 61.9302 79.1931C61.8234 79.5185 61.7248 79.8601 61.6263 80.1855C61.2792 81.7701 60.6084 83.2677 59.655 84.586C59.1857 85.1792 58.6574 85.7242 58.078 86.2128C63.1951 91.1746 73.5934 86.3104 76.7228 99.4875C76.739 99.547 76.7413 99.6093 76.7297 99.6698C76.718 99.7302 76.6926 99.7873 76.6554 99.8366C76.6183 99.886 76.5703 99.9263 76.5151 99.9546C76.4599 99.9829 76.3989 99.9984 76.3368 100H23.6222C23.563 99.9988 23.5049 99.9848 23.4518 99.9588C23.3988 99.9329 23.3522 99.8957 23.3153 99.8498C23.2785 99.804 23.2523 99.7507 23.2386 99.6937C23.2249 99.6367 23.2241 99.5774 23.2361 99.5201C26.0123 86.4568 36.3778 91.5975 41.9466 85.9118C41.5315 85.5509 41.1418 85.1623 40.7803 84.7487C39.4908 83.252 38.9569 81.6659 38.2587 79.6161C38.1848 79.3883 38.1027 79.1524 38.0287 78.941C37.1417 78.941 36.386 78.1275 35.8768 77.1189C35.4504 76.2685 35.1727 75.3527 35.0554 74.4103C34.9187 73.5811 35.039 72.7303 35.4004 71.9701C35.5067 71.7768 35.6571 71.6107 35.8396 71.485C36.0221 71.3593 36.2317 71.2775 36.4517 71.2461L36.616 69.6193C36.4435 68.6189 36.2546 67.5777 36.115 66.5772C33.9384 51.4804 66.2834 49.9431 63.77 67.2361L63.7536 67.1629ZM54.4476 76.3462C54.4391 76.4055 54.4391 76.4658 54.4476 76.5251C54.4476 76.7646 54.5437 76.9943 54.7147 77.1636C54.8856 77.3329 55.1175 77.428 55.3593 77.428C55.6011 77.428 55.833 77.3329 56.004 77.1636C56.175 76.9943 56.271 76.7646 56.271 76.5251C56.2706 76.4135 56.2483 76.303 56.2053 76.1998C56.6921 76.2333 57.1725 76.329 57.6345 76.4845C57.6913 76.5001 57.7507 76.5037 57.809 76.495C57.8672 76.4863 57.923 76.4656 57.9726 76.4341C58.0222 76.4026 58.0646 76.3611 58.0969 76.3123C58.1292 76.2636 58.1508 76.2086 58.1602 76.151C58.1915 76.0333 58.1788 75.9084 58.1245 75.7993C58.0701 75.6902 57.9778 75.6042 57.8645 75.5572C56.5315 75.118 55.0907 75.118 53.7577 75.5572C53.6436 75.6028 53.5508 75.689 53.4976 75.7988C53.4444 75.9087 53.4346 76.0343 53.4702 76.151C53.4794 76.2074 53.5007 76.2613 53.5327 76.3088C53.5647 76.3564 53.6067 76.3966 53.6558 76.4267C53.7048 76.4568 53.7599 76.4761 53.8172 76.4832C53.8744 76.4904 53.9326 76.4853 53.9877 76.4682C54.152 76.4194 54.3162 76.3706 54.4723 76.3381L54.4476 76.3462ZM61.6674 74.9553C61.6325 74.8694 61.6303 74.774 61.6611 74.6867C61.692 74.5993 61.7537 74.526 61.8349 74.4804C61.9162 74.4347 62.0114 74.4197 62.1029 74.4382C62.1944 74.4568 62.276 74.5075 62.3326 74.5811C62.4983 74.8207 62.5869 75.1042 62.5869 75.3945C62.5869 75.6848 62.4983 75.9684 62.3326 76.2079C62.276 76.291 62.1884 76.3484 62.089 76.3674C61.9897 76.3865 61.8867 76.3657 61.8029 76.3096C61.719 76.2535 61.6611 76.1667 61.6418 76.0683C61.6226 75.9699 61.6436 75.868 61.7002 75.785C61.7818 75.6557 61.8251 75.5063 61.8251 75.3538C61.8251 75.2014 61.7818 75.052 61.7002 74.9227L61.6674 74.9553ZM38.0452 74.4428C38.0884 74.4673 38.1264 74.5 38.1568 74.539C38.1873 74.578 38.2096 74.6227 38.2226 74.6703C38.2356 74.7179 38.2389 74.7676 38.2324 74.8165C38.226 74.8654 38.2098 74.9126 38.1848 74.9553C38.0961 75.0819 38.0486 75.2323 38.0486 75.3864C38.0486 75.5405 38.0961 75.6909 38.1848 75.8175C38.2414 75.9005 38.2624 76.0025 38.2432 76.1009C38.2239 76.1993 38.166 76.286 38.0821 76.3421C37.9983 76.3982 37.8953 76.419 37.796 76.4C37.6966 76.3809 37.609 76.3235 37.5524 76.2405C37.3889 76.0001 37.3015 75.7169 37.3015 75.4271C37.3015 75.1372 37.3889 74.854 37.5524 74.6136C37.6038 74.5266 37.688 74.4632 37.7864 74.4373C37.8849 74.4114 37.9897 74.4251 38.078 74.4754L38.0452 74.4428ZM48.5667 80.7142C48.477 80.6243 48.4266 80.503 48.4266 80.3766C48.4266 80.2502 48.477 80.1289 48.5667 80.0391C48.6585 79.952 48.7806 79.9035 48.9076 79.9035C49.0346 79.9035 49.1567 79.952 49.2485 80.0391C49.4375 80.2388 49.6955 80.3607 49.9713 80.3807C50.256 80.3614 50.5229 80.2365 50.7187 80.0309C50.8166 79.9502 50.9424 79.9102 51.0695 79.9193C51.1966 79.9284 51.3152 79.9859 51.4004 80.0797C51.483 80.1769 51.5233 80.3025 51.5125 80.4291C51.5017 80.5556 51.4407 80.6727 51.3429 80.7549C50.9756 81.1069 50.4902 81.3125 49.9795 81.3324C49.4599 81.3233 48.9646 81.1131 48.5996 80.7467L48.5667 80.7142ZM46.5051 83.9109C46.4458 83.8639 46.3964 83.8057 46.3598 83.7398C46.3231 83.6739 46.2999 83.6015 46.2915 83.5268C46.2832 83.452 46.2897 83.3763 46.3109 83.304C46.332 83.2318 46.3673 83.1643 46.4148 83.1056C46.4622 83.0468 46.5209 82.9979 46.5875 82.9616C46.654 82.9253 46.7271 82.9024 46.8026 82.8941C46.8782 82.8858 46.9546 82.8923 47.0275 82.9132C47.1005 82.9341 47.1686 82.9691 47.2279 83.0161C48.016 83.7346 49.0329 84.1575 50.1027 84.2118C51.0461 84.1653 51.9324 83.7499 52.5667 83.0568C52.6207 83.0034 52.6847 82.961 52.7552 82.9321C52.8256 82.9032 52.9011 82.8883 52.9774 82.8883C53.0537 82.8883 53.1292 82.9032 53.1997 82.9321C53.2701 82.961 53.3342 83.0034 53.3881 83.0568C53.442 83.1102 53.4848 83.1736 53.514 83.2434C53.5432 83.3132 53.5582 83.388 53.5582 83.4635C53.5582 83.539 53.5432 83.6138 53.514 83.6836C53.4848 83.7534 53.442 83.8168 53.3881 83.8702C52.967 84.3211 52.4599 84.6848 51.8959 84.9403C51.332 85.1958 50.7225 85.338 50.1027 85.3587C48.7817 85.2965 47.5227 84.7851 46.538 83.9109H46.5051ZM41.8234 74.15C41.7234 74.2288 41.5965 74.2661 41.4693 74.2539C41.3421 74.2418 41.2246 74.1812 41.1417 74.0849C41.1015 74.037 41.0713 73.9816 41.0529 73.9221C41.0344 73.8625 41.0281 73.7999 41.0342 73.7379C41.0403 73.6759 41.0587 73.6157 41.0885 73.5608C41.1182 73.5058 41.1586 73.4573 41.2074 73.4179C42.2505 72.6045 43.9096 72.8648 45.3142 73.117C45.8191 73.2271 46.3333 73.2897 46.8501 73.3041C46.9137 73.3019 46.9772 73.3122 47.0368 73.3343C47.0965 73.3564 47.1511 73.39 47.1977 73.433C47.2442 73.4761 47.2817 73.5278 47.308 73.5852C47.3344 73.6427 47.349 73.7047 47.3511 73.7677C47.3533 73.8303 47.3429 73.8928 47.3204 73.9514C47.298 74.01 47.264 74.0635 47.2204 74.109C47.1768 74.1544 47.1245 74.1908 47.0666 74.216C47.0087 74.2412 46.9462 74.2547 46.883 74.2558C46.3069 74.2339 45.7346 74.1549 45.1745 74.0199C43.9507 73.8002 42.5298 73.5481 41.8398 74.1175L41.8234 74.15ZM58.7351 73.3366C58.8331 73.4164 58.8951 73.5315 58.9075 73.6566C58.9198 73.7817 58.8814 73.9065 58.8008 74.0036C58.7202 74.1007 58.604 74.1621 58.4777 74.1743C58.3514 74.1865 58.2253 74.1485 58.1273 74.0687C57.4292 73.4993 56 73.7514 54.7844 73.9711C54.2098 74.0978 53.6236 74.1659 53.0349 74.1744C52.9053 74.169 52.7832 74.1129 52.6954 74.0183C52.6076 73.9237 52.5613 73.7985 52.5667 73.6701C52.5722 73.5417 52.6289 73.4208 52.7244 73.3338C52.8199 73.2469 52.9464 73.2011 53.076 73.2065C53.5927 73.1916 54.1069 73.129 54.6119 73.0194C56.0411 72.7672 57.7002 72.4663 58.7187 73.3203L58.7351 73.3366ZM42.308 76.5902C42.2536 76.6088 42.1959 76.6158 42.1385 76.6109C42.0812 76.6059 42.0256 76.5891 41.9753 76.5615C41.9249 76.5339 41.881 76.4961 41.8464 76.4506C41.8117 76.4051 41.7871 76.3529 41.7741 76.2974C41.7361 76.1814 41.7417 76.0557 41.79 75.9436C41.8384 75.8314 41.9261 75.7404 42.037 75.6873C42.698 75.4273 43.4038 75.2975 44.115 75.305C44.8193 75.3135 45.5169 75.4429 46.1766 75.6873C46.2887 75.7374 46.3787 75.8259 46.43 75.9365C46.4813 76.0472 46.4905 76.1724 46.4559 76.2893C46.4436 76.3456 46.4197 76.3988 46.3856 76.4455C46.3515 76.4921 46.3079 76.5313 46.2577 76.5603C46.2075 76.5894 46.1517 76.6078 46.0939 76.6144C46.0361 76.6209 45.9775 76.6154 45.922 76.5984L45.5031 76.4601C45.5071 76.5251 45.5071 76.5903 45.5031 76.6553C45.5151 76.7805 45.5006 76.9068 45.4605 77.0262C45.4203 77.1455 45.3555 77.2552 45.27 77.3483C45.1846 77.4414 45.0804 77.5157 44.9643 77.5666C44.8481 77.6175 44.7225 77.6438 44.5955 77.6438C44.4685 77.6438 44.3429 77.6175 44.2267 77.5666C44.1105 77.5157 44.0064 77.4414 43.9209 77.3483C43.8355 77.2552 43.7706 77.1455 43.7305 77.0262C43.6904 76.9068 43.6758 76.7805 43.6879 76.6553C43.6898 76.5264 43.7178 76.3992 43.77 76.2811C43.2773 76.3135 42.7926 76.4205 42.3326 76.5984L42.308 76.5902ZM56.9199 87.0343C56.4952 87.3155 56.0536 87.5709 55.5975 87.7989C54.5188 88.5004 53.2721 88.9073 51.9836 88.9784C51.3466 89.0898 50.7001 89.1388 50.0534 89.1248H49.5688C47.1684 89.2416 44.8149 88.4375 42.9979 86.8798C41.0185 88.897 40.2875 88.9702 37.7248 90.1334C40.3121 97.5028 57.4949 99.9512 61.6345 89.808C59.1294 88.7831 58.7598 88.8401 56.9446 87.0506L56.9199 87.0343ZM61.1581 72.995L60.5421 68.8222C57.3439 70.7136 53.6881 71.7114 49.963 71.7098C46.2214 71.7612 42.5427 70.7538 39.3593 68.8059L38.6776 72.873L37.4209 72.1734C37.1006 72.0026 36.4435 72.1734 36.4025 72.5069C36.169 73.0565 36.1061 73.6625 36.2218 74.2476C36.3118 75.0562 36.5425 75.8432 36.9035 76.574C37.2977 77.3386 37.7906 77.8754 38.2669 77.7371C38.4085 77.6983 38.5597 77.7145 38.6895 77.7826C38.8194 77.8507 38.918 77.9654 38.9651 78.1031C39.1294 78.5668 39.2444 78.9166 39.3511 79.2175C39.7887 80.9375 40.5708 82.5529 41.6509 83.9678C42.7137 85.1721 44.0132 86.1491 45.4702 86.8391C46.9158 87.5418 48.4936 87.938 50.1027 88.0023C51.7689 88.0047 53.4133 87.6261 54.9076 86.896C56.4219 86.1845 57.7531 85.1415 58.8008 83.8458C59.6526 82.6405 60.2555 81.2805 60.5749 79.8438C60.6982 79.429 60.8214 79.0304 60.9938 78.4692C61.0273 78.3258 61.1149 78.2005 61.2385 78.1189C61.3622 78.0372 61.5126 78.0054 61.6591 78.0299C62.2423 78.1357 62.8665 77.2165 63.3018 76.1103C63.5568 75.4376 637225 74.7349 63.7947 74.0199C63.8743 73.5288 63.8175 73.0255 63.6304 72.5639C63.4579 71.8969 62.9733 72.027 62.5955 72.1328L61.1581 73.0194V72.995ZM50.2259 3.79867C60.3203 -3.11526 61.0842 10.5743 70.9979 2.03359V15.9835C61.5359 24.4103 59.499 10.8021 50.2259 17.716V3.79867ZM47.7372 7.60461e-05C48.1592 0.00200264 48.569 0.140857 48.9037 0.395378C49.2385 0.649898 49.4798 1.00606 49.5906 1.40932C49.7015 1.81258 49.6759 2.24073 49.5177 2.62819C49.3594 3.01565 49.0774 3.34108 48.7146 3.55465H48.8049V25.3132H74.3655V45.0871H100V99.9186H82.6694C82.6694 99.7966 82.6694 99.6746 82.6694 99.5526C82.671 99.1755 82.6325 98.7993 82.5544 98.4301L82.4887 98.1129C79.6715 86.3755 73.1006 84.6999 66.8172 83.3984L66.9569 82.9592C67.2018 82.7411 67.4348 82.5103 67.655 82.2678C68.5893 81.1969 69.3211 79.968 69.8152 78.64C70.0688 78.0036 70.28 77.3515 70.4476 76.6878C70.6003 76.0151 70.7073 75.333 70.768 74.6462C70.8419 73.9051 70.8419 73.1586 70.768 72.4175V72.1002C70.6388 71.0633 70.3157 70.0592 69.8152 69.1394L69.5441 68.6921L69.6263 68.1308V67.96C70.8337 59.6551 66.8255 54.1321 60.8049 51.1307C57.5182 49.5707 53.9113 48.7856 50.2669 48.8369C46.6621 48.8346 43.099 49.6002 39.8193 51.0819C33.5113 54.0183 29.1828 59.5006 30.308 67.3011L30.5133 68.6514L30.3984 68.8303C29.7959 69.8263 29.4047 70.9333 29.2485 72.084C29.1195 72.995 29.1029 73.9182 29.1992 74.8333V75.0529C29.298 75.8632 29.4684 76.6634 29.7084 77.4443C29.8905 78.0673 30.1183 78.6762 30.3901 79.2663L30.5955 79.6974C31.1836 80.8913 32.0075 81.9561 33.0185 82.829L33.191 82.9754L33.3717 83.4472L33.0103 83.5367C26.5708 84.9601 20.0575 86.4243 17.5031 98.0153C17.3642 98.5161 17.2951 99.0333 17.2977 99.5526C17.2977 99.6909 17.2977 99.821 17.2977 99.9512H0V45.0871H25.6674V25.3214H46.6694V3.55465H46.768C46.4831 3.38621 46.2467 3.14818 46.0813 2.86334C45.9159 2.5785 45.8271 2.25639 45.8234 1.92784C45.8168 1.67564 45.8615 1.4247 45.9549 1.18999C46.0483 0.955276 46.1885 0.741596 46.3671 0.561691C46.5457 0.381786 46.7591 0.239342 46.9944 0.142853C47.2298 0.0463639 47.4824 -0.00219363 47.7372 7.60461e-05ZM48.3778 34.3827C48.3778 34.0591 48.5076 33.7487 48.7387 33.5199C48.9697 33.2911 49.2831 33.1626 49.6099 33.1626C49.9366 33.1626 50.25 33.2911 50.481 33.5199C50.7121 33.7487 50.8419 34.0591 50.8419 34.3827V38.165H53.4374C53.7641 38.165 54.0775 38.2936 54.3085 38.5224C54.5396 38.7512 54.6694 39.0615 54.6694 39.3851C54.6694 39.7087 54.5396 40.019 54.3085 40.2479C54.0775 40.4767 53.7641 40.6052 53.4374 40.6052H49.6099C49.2831 40.6052 48.9697 40.4767 48.7387 40.2479C48.5076 40.019 48.3778 39.7087 48.3778 39.3851V34.3827ZM50.0205 30.1855C51.6797 30.1903 53.3002 30.682 54.6774 31.5984C56.0546 32.5147 57.1267 33.8147 57.7582 35.3341C58.3898 36.8535 58.5525 38.5242 58.2258 40.1352C57.8992 41.7461 57.0977 43.2251 55.9228 44.3852C54.7479 45.5454 53.2521 46.3347 51.6245 46.6535C49.9968 46.9723 48.3103 46.8062 46.7779 46.1763C45.2455 45.5464 43.9359 44.4809 43.0146 43.1144C42.0933 41.7479 41.6017 40.1416 41.6016 38.4985C41.6016 36.2938 42.486 34.1793 44.0603 32.6203C45.6345 31.0613 47.7696 30.1855 49.9959 30.1855H50.0205ZM11.2444 59.0776H20.8706V85.6109H11.2444V59.0776Z" fill="#FF4C00"/>
</svg>
