<svg width="117" height="100" viewBox="0 0 117 100" fill="none" xmlns="http://www.w3.org/2000/svg">
<path d="M58.5 0L0 26.9231L15.6 33.8462V46.9231C10.92 48.4615 7.8 53.0769 7.8 57.6923C7.8 62.3077 10.92 66.9231 15.6 68.4615V69.2308L8.58 85.3846C6.24 92.3077 7.8 100 19.5 100C31.2 100 32.76 92.3077 30.42 85.3846L23.4 69.2308C28.08 66.9231 31.2 63.0769 31.2 57.6923C31.2 52.3077 28.08 48.4615 23.4 46.9231V37.6923L58.5 53.8462L117 26.9231L58.5 0ZM92.82 50L57.72 65.3846L39 56.9231V57.6923C39 63.0769 36.66 67.6923 32.76 71.5385L37.44 82.3077V83.0769C38.22 86.1538 39 89.2308 38.22 92.3077C43.68 94.6154 49.92 96.1538 57.72 96.1538C83.46 96.1538 92.82 80.7692 92.82 73.0769V50Z" fill="#FF4C00"/>
</svg>
