<svg width="81" height="97" viewBox="0 0 81 97" fill="none" xmlns="http://www.w3.org/2000/svg">
<path fill-rule="evenodd" clip-rule="evenodd" d="M42.1217 2.61287C48.9894 -2.13135 49.5025 7.26237 56.2439 1.38932V10.9725C49.8183 16.7587 48.429 7.41235 42.1217 12.1566V2.61287ZM39.0352 29.2153H40.2351C40.4561 29.2153 40.6298 29.3968 40.6298 29.6099V34.22H44.8372C45.0583 34.22 45.2319 34.4015 45.2319 34.6147V35.8145C45.2319 36.0356 45.0504 36.2092 44.8372 36.2092H38.6327V29.6021C38.6327 29.3968 38.8142 29.2153 39.0352 29.2153ZM40.393 23.8158C45.8003 23.8158 50.1814 28.1969 50.1814 33.6042C50.1814 39.0116 45.8003 43.3927 40.393 43.3927C34.9857 43.3927 30.6046 39.0116 30.6046 33.6042C30.6046 28.2048 34.9857 23.8158 40.393 23.8158ZM41.7349 56.6307V88.4194H51.405V56.6307H41.7349ZM39.051 88.4194V56.6307H29.381V88.4194H39.051ZM80.786 96.9763V40.9377H59.5041V27.3681L41.1508 15.5431V2.43921H41.0876C41.4744 2.21818 41.7271 1.79191 41.7271 1.31038C41.7271 0.584147 41.1429 0 40.4167 0C39.6904 0 39.1063 0.584147 39.1063 1.31038C39.1063 1.79191 39.3668 2.21029 39.7457 2.43921H39.6825V15.5194L21.2898 27.3681V40.9377H5.70728H0V97C26.9339 97 53.8521 96.9763 80.786 96.9763ZM8.67537 56.6307H19.3242V60.775H8.67537V56.6307ZM61.4539 56.6307H72.1027V60.775H61.4539V56.6307ZM8.67537 65.7797H19.3242V69.924H8.67537V65.7797ZM61.4539 65.7797H72.1027V69.924H61.4539V65.7797ZM8.67537 74.9287H19.3242V79.073H8.67537V74.9287ZM61.4539 74.9287H72.1027V79.073H61.4539V74.9287ZM8.67537 84.0777H19.3242V88.222H8.67537V84.0777ZM61.4539 84.0777H72.1027V88.222H61.4539V84.0777Z" fill="#FF4005"/>
</svg>
