<svg width="68" height="97" viewBox="0 0 68 97" fill="none" xmlns="http://www.w3.org/2000/svg">
<path d="M17.3318 90.4323V97H9.81354L11.1642 90.4323H5.33226C3.92058 90.424 2.56906 89.8533 1.57084 88.844C0.572617 87.8347 0.00819571 86.4681 0 85.0408L0 1.24723C0 0.916446 0.12996 0.599208 0.361291 0.365306C0.592622 0.131405 0.906373 0 1.23352 0L66.8133 0C67.1329 0.0102898 67.4359 0.146472 67.6576 0.379489C67.8793 0.612505 68.0022 0.923902 68 1.24723V85.0408C67.9918 86.4681 67.4274 87.8347 66.4291 88.844C65.4309 89.8533 64.0794 90.424 62.6677 90.4323H56.8514L58.1864 97H50.7462V90.4323H17.3318ZM41.5339 72.2764C41.5339 74.7787 41.1045 76.8075 40.5814 76.8075C40.0583 76.8075 39.6211 74.7787 39.6211 72.2764C39.6211 69.774 40.0505 67.7532 40.5814 67.7532C41.1123 67.7532 41.5339 69.774 41.5339 72.2764ZM27.5669 72.2764C27.5669 74.7787 27.1375 76.8075 26.6145 76.8075C26.0914 76.8075 25.662 74.7787 25.662 72.2764C25.662 69.774 26.0914 67.7532 26.6145 67.7532C27.1375 67.7532 27.5669 69.774 27.5669 72.2764ZM8.72835 36.5171H5.60551C5.45363 36.5171 5.30785 36.5775 5.19973 36.6854C5.09161 36.7932 5.02983 36.9398 5.02778 37.0933V39.6668H9.33731V37.1012C9.33731 36.9484 9.27726 36.8018 9.17038 36.6938C9.0635 36.5857 8.91854 36.525 8.76739 36.525L8.72835 36.5171ZM4.98875 41.2534V49.0841H9.29827V41.2455L4.98875 41.2534ZM4.98875 50.655V53.0232C4.9908 53.1767 5.05257 53.3233 5.16069 53.4312C5.26882 53.539 5.41459 53.5995 5.56647 53.5994H8.72835C8.87951 53.5994 9.02447 53.5387 9.13135 53.4307C9.23823 53.3226 9.29827 53.176 9.29827 53.0232V50.655H4.98875ZM15.3254 36.525H12.2025C12.1277 36.525 12.0536 36.5399 11.9844 36.5689C11.9153 36.5978 11.8524 36.6403 11.7995 36.6938C11.7466 36.7473 11.7046 36.8108 11.676 36.8807C11.6473 36.9506 11.6326 37.0256 11.6326 37.1012V39.6746H15.9421V37.1012C15.9401 36.9477 15.8783 36.8011 15.7702 36.6933C15.6621 36.5854 15.5163 36.525 15.3644 36.525H15.3254ZM11.5936 41.2613V49.092H15.9031V41.2455L11.5936 41.2613ZM11.5936 50.6629V53.0311C11.5936 53.1839 11.6536 53.3305 11.7605 53.4386C11.8674 53.5466 12.0123 53.6073 12.1635 53.6073H15.2863C15.4382 53.6074 15.584 53.5469 15.6921 53.4391C15.8002 53.3312 15.862 53.1846 15.8641 53.0311V50.6629H11.5936ZM21.8599 36.5171H18.7371C18.5852 36.5171 18.4394 36.5775 18.3313 36.6854C18.2232 36.7932 18.1614 36.9398 18.1593 37.0933V39.6668H22.4689V37.1012C22.4689 36.9484 22.4088 36.8018 22.302 36.6938C22.1951 36.5857 22.0501 36.525 21.899 36.525L21.8599 36.5171ZM18.1203 41.2534V49.0841H22.4298V41.2455L18.1203 41.2534ZM18.1203 50.655V53.0232C18.1224 53.1767 18.1841 53.3233 18.2923 53.4312C18.4004 53.539 18.5462 53.5995 18.698 53.5994H21.8599C22.0111 53.5994 22.156 53.5387 22.2629 53.4307C22.3698 53.3226 22.4298 53.176 22.4298 53.0232V50.655H18.1203ZM28.3867 36.525H25.2638C25.1119 36.525 24.9662 36.5854 24.858 36.6933C24.7499 36.8011 24.6882 36.9477 24.6861 37.1012V39.6746H28.9644V37.1012C28.9623 36.9477 28.9006 36.8011 28.7924 36.6933C28.6843 36.5854 28.5385 36.525 28.3867 36.525ZM24.6549 41.2613V49.092H28.9644V41.2455L24.6549 41.2613ZM24.6549 50.6629V53.0311C24.6569 53.1846 24.7187 53.3312 24.8268 53.4391C24.9349 53.5469 25.0807 53.6074 25.2326 53.6073H28.3554C28.5073 53.6074 28.6531 53.5469 28.7612 53.4391C28.8693 53.3312 28.9311 53.1846 28.9332 53.0311V50.6629H24.6549ZM34.9212 36.5329H31.7984C31.6492 36.5349 31.5065 36.5951 31.4003 36.7011C31.2941 36.807 31.2325 36.9504 31.2285 37.1012V39.6746H35.538V37.1012C35.5359 36.9477 35.4742 36.8011 35.366 36.6933C35.2579 36.5854 35.1121 36.525 34.9603 36.525L34.9212 36.5329ZM31.1894 41.2692V49.0999H35.499V41.2455L31.1894 41.2692ZM31.1894 50.6708V53.039C31.1915 53.1925 31.2532 53.3391 31.3614 53.4469C31.4695 53.5548 31.6153 53.6152 31.7671 53.6152H34.89C35.0419 53.6152 35.1877 53.5548 35.2958 53.4469C35.4039 53.3391 35.4657 53.1925 35.4677 53.039V50.6708H31.1894ZM47.3658 36.4855L44.3991 37.5749C44.2564 37.6299 44.1407 37.7391 44.0765 37.8792C44.0123 38.0193 44.0048 38.1792 44.0555 38.3248L44.9221 40.7403L48.974 39.2484L48.0996 36.8328C48.0743 36.7611 48.0352 36.6951 47.9845 36.6387C47.9339 36.5823 47.8726 36.5366 47.8044 36.5043C47.7361 36.472 47.6622 36.4537 47.5869 36.4505C47.5117 36.4473 47.4365 36.4592 47.3658 36.4855ZM45.453 42.2165L48.0996 49.5736L52.1515 48.0816L49.5049 40.7245L45.453 42.2165ZM48.6383 51.0576L49.419 53.2995C49.4457 53.3756 49.4875 53.4455 49.5419 53.5047C49.5963 53.5639 49.662 53.6112 49.7352 53.6437C49.8083 53.6763 49.8872 53.6933 49.9671 53.6939C50.047 53.6944 50.1262 53.6784 50.1997 53.6468L53.1665 52.5575C53.2425 52.5315 53.3123 52.4898 53.3715 52.435C53.4307 52.3802 53.478 52.3136 53.5103 52.2393C53.5426 52.1651 53.5593 52.0848 53.5592 52.0037C53.5592 51.9225 53.5424 51.8423 53.51 51.7681L52.7293 49.5262L48.6383 51.0576ZM41.4558 36.5171H38.2939C38.1427 36.5171 37.9978 36.5778 37.8909 36.6859C37.784 36.7939 37.724 36.9405 37.724 37.0933V39.6668H42.0335V37.1012C42.0315 36.9477 41.9697 36.8011 41.8616 36.6933C41.7534 36.5854 41.6077 36.525 41.4558 36.525V36.5171ZM37.724 41.2534V49.0841H42.0335V41.2455L37.724 41.2534ZM37.724 50.655V53.0232C37.724 53.176 37.784 53.3226 37.8909 53.4307C37.9978 53.5387 38.1427 53.5994 38.2939 53.5994H41.4558C41.6077 53.5995 41.7534 53.539 41.8616 53.4312C41.9697 53.3233 42.0315 53.1767 42.0335 53.0232V50.655H37.724ZM9.20459 7.89388H6.08174C6.00587 7.89388 5.93075 7.90899 5.86066 7.93835C5.79056 7.9677 5.72687 8.01073 5.67323 8.06497C5.61958 8.11922 5.57703 8.18361 5.54799 8.25448C5.51896 8.32536 5.50402 8.40132 5.50402 8.47803V11.0514H9.81354V8.48592C9.81356 8.33235 9.75376 8.18496 9.6471 8.07563C9.54044 7.96631 9.39549 7.90385 9.24362 7.90177L9.20459 7.89388ZM5.46498 12.6302V20.4609H9.77451V12.6302H5.46498ZM5.46498 22.0318V24.4C5.467 24.5543 5.52852 24.7017 5.63643 24.8108C5.74434 24.9199 5.89011 24.9821 6.04271 24.9841H9.16555C9.31742 24.9821 9.46237 24.9196 9.56903 24.8103C9.67569 24.7009 9.73549 24.5536 9.73547 24.4V22.0318H5.46498ZM15.7313 7.89388H12.6085C12.5326 7.89388 12.4575 7.90899 12.3874 7.93835C12.3173 7.9677 12.2536 8.01073 12.2 8.06497C12.1463 8.11922 12.1038 8.18361 12.0747 8.25448C12.0457 8.32536 12.0308 8.40132 12.0308 8.47803V11.0514H16.3403V8.48592C16.3403 8.331 16.2794 8.18242 16.1711 8.07287C16.0627 7.96332 15.9158 7.90177 15.7626 7.90177L15.7313 7.89388ZM11.9995 12.6302V20.4609H16.3091V12.6302H11.9995ZM11.9995 22.0318V24.4C11.9995 24.5549 12.0604 24.7035 12.1687 24.813C12.2771 24.9226 12.424 24.9841 12.5773 24.9841H15.7001C15.8533 24.9841 16.0003 24.9226 16.1086 24.813C16.217 24.7035 16.2778 24.5549 16.2778 24.4V22.0318H11.9995ZM22.2659 7.89388H19.143C19.0672 7.89388 18.9921 7.90899 18.922 7.93835C18.8519 7.9677 18.7882 8.01073 18.7345 8.06497C18.6809 8.11922 18.6383 8.18361 18.6093 8.25448C18.5803 8.32536 18.5653 8.40132 18.5653 8.47803V11.0514H22.8748V8.48592C22.8748 8.331 22.814 8.18242 22.7056 8.07287C22.5973 7.96332 22.4503 7.90177 22.2971 7.90177L22.2659 7.89388ZM18.5341 12.6302V20.4609H22.8436V12.6302H18.5341ZM18.5341 22.0318V24.4C18.5341 24.5549 18.595 24.7035 18.7033 24.813C18.8116 24.9226 18.9586 24.9841 19.1118 24.9841H22.2347C22.3879 24.9841 22.5348 24.9226 22.6432 24.813C22.7515 24.7035 22.8124 24.5549 22.8124 24.4V22.0318H18.5341ZM34.7104 7.89388L31.7437 8.98324C31.6684 9.01021 31.5994 9.05248 31.5408 9.10745C31.4822 9.16242 31.4354 9.22892 31.4033 9.30287C31.3711 9.37682 31.3542 9.45664 31.3537 9.53743C31.3532 9.61822 31.369 9.69826 31.4002 9.77262L32.2668 12.1882L36.3187 10.6962L35.4521 8.28068C35.3977 8.13644 35.2897 8.0194 35.1511 7.95452C35.0126 7.88963 34.8544 7.88204 34.7104 7.93335V7.89388ZM32.7899 13.6012L35.4365 20.9583L39.4884 19.4742L36.8496 12.1092L32.7899 13.6012ZM35.9752 22.4423L36.7559 24.6842C36.7816 24.761 36.8228 24.8316 36.877 24.8915C36.9312 24.9514 36.9971 24.9991 37.0705 25.0318C37.144 25.0645 37.2234 25.0813 37.3036 25.0813C37.3839 25.0812 37.4632 25.0643 37.5366 25.0315L40.5033 23.9421C40.5743 23.9166 40.6396 23.877 40.6953 23.8258C40.7511 23.7745 40.7963 23.7126 40.8282 23.6436C40.8602 23.5746 40.8783 23.4999 40.8814 23.4237C40.8846 23.3476 40.8729 23.2716 40.8468 23.2001L40.0661 20.9504L36.022 22.4423H35.9752ZM28.8004 7.89388H25.6776C25.5257 7.89596 25.3808 7.95842 25.2741 8.06774C25.1675 8.17706 25.1077 8.32446 25.1077 8.47803V11.0514H29.4172V8.48592C29.4172 8.331 29.3563 8.18242 29.248 8.07287C29.1397 7.96332 28.9927 7.90177 28.8395 7.90177L28.8004 7.89388ZM25.0686 12.6302V20.4609H29.3782V12.6302H25.0686ZM25.0686 22.0318V24.4C25.0686 24.5536 25.1284 24.7009 25.2351 24.8103C25.3417 24.9196 25.4867 24.9821 25.6386 24.9841H28.7614C28.9146 24.9841 29.0616 24.9226 29.1699 24.813C29.2783 24.7035 29.3391 24.5549 29.3391 24.4V22.0318H25.0686ZM65.5798 29.9967H2.45924V56.3623H65.5798V29.9967ZM2.45924 27.8022H65.5798V2.48657H2.45924V27.8022ZM65.5798 58.5094H35.0227V87.9457H62.6677C63.048 87.9499 63.4253 87.8779 63.7779 87.7339C64.1306 87.5899 64.4515 87.3767 64.7222 87.1066C64.9929 86.8365 65.2081 86.5149 65.3553 86.1604C65.5025 85.8058 65.5788 85.4253 65.5798 85.0408V58.5094ZM32.9226 58.5094H2.47486V85.0408C2.47896 85.8099 2.78297 86.5464 3.32087 87.0903C3.85878 87.6342 4.58717 87.9416 5.34787 87.9457H32.8836V58.5094H32.9226Z" fill="#FF4005"/>
</svg>
