<svg width="59" height="97" viewBox="0 0 59 97" fill="none" xmlns="http://www.w3.org/2000/svg">
<path fill-rule="evenodd" clip-rule="evenodd" d="M36.9648 39.9746C38.7014 40.4325 40.3749 41.0482 41.9695 41.7981L44.4797 2.36816H49.6739L45.4507 43.7479C53.3525 48.9263 58.5782 57.8621 58.5782 68.0137C58.5782 84.0225 45.6007 97 29.5919 97C13.5752 97 0.597656 84.0225 0.597656 68.0137C0.597656 58.1384 5.53923 49.4157 13.0779 44.1821L9.49406 2.36816H14.6882L16.5512 42.1139C18.2563 41.2534 20.0482 40.5588 21.9269 40.0536L19.8903 0H39.2935L36.9648 39.9746ZM26.458 63.1195L20.1192 61.9906C20.6481 59.9698 21.6506 58.4305 23.1584 57.349C24.6503 56.2755 26.7738 55.7387 29.5129 55.7387C32.6626 55.7387 34.9281 56.3228 36.3333 57.499C37.7305 58.6752 38.433 60.1514 38.433 61.9275C38.433 62.9695 38.1488 63.9089 37.5805 64.7535C37.0121 65.5981 36.1596 66.3402 35.015 66.9717C35.9465 67.2006 36.6648 67.469 37.1542 67.7848C37.9594 68.2821 38.5751 68.9294 39.0172 69.7345C39.4592 70.5476 39.6882 71.5028 39.6882 72.6237C39.6882 74.0288 39.325 75.3787 38.583 76.6733C37.8489 77.96 36.7911 78.9546 35.4097 79.6493C34.0282 80.3439 32.2126 80.6912 29.955 80.6912C27.7605 80.6912 26.0317 80.4307 24.7687 79.9176C23.4978 79.3967 22.4558 78.6467 21.6348 77.6521C20.8218 76.6575 20.1903 75.4024 19.7482 73.8946L26.458 73.0026C26.7185 74.3604 27.129 75.2997 27.6816 75.8207C28.2341 76.3417 28.9367 76.6101 29.7971 76.6101C30.6891 76.6101 31.439 76.2786 32.039 75.6234C32.631 74.9682 32.931 74.092 32.931 72.9868C32.931 71.8659 32.6468 71.0055 32.0706 70.3818C31.4943 69.7661 30.7128 69.4583 29.734 69.4583C29.213 69.4583 28.4867 69.5846 27.571 69.853L27.9184 65.0614C28.2815 65.1166 28.5736 65.1482 28.7788 65.1482C29.6471 65.1482 30.3734 64.864 30.9496 64.3114C31.5259 63.7589 31.818 63.0958 31.818 62.3301C31.818 61.596 31.5969 61.0118 31.1628 60.5776C30.7207 60.1356 30.1208 59.9225 29.363 59.9225C28.5736 59.9225 27.9421 60.1593 27.4447 60.6329C26.9632 61.0986 26.6317 61.9354 26.458 63.1195ZM29.584 45.824C41.8353 45.824 51.7658 55.7545 51.7658 68.0058C51.7658 80.2571 41.8353 90.1876 29.584 90.1876C17.3327 90.1876 7.40218 80.2571 7.40218 68.0058C7.40218 55.7545 17.3327 45.824 29.584 45.824Z" fill="#FF4005"/>
</svg>
