<svg xmlns="http://www.w3.org/2000/svg" viewBox="0 0 226 211"><defs><style>.a{fill:#ff5b00;}</style></defs><path class="a" d="M28.57,86A7,7,0,0,1,34.5,89.2L79.15,160a12,12,0,0,0,10.14,5.59H195.4a102.13,102.13,0,0,0,14.48-92.09H163.36A6.57,6.57,0,0,1,157,68.64l-10.36-39a6.57,6.57,0,1,1,12.7-3.37l7.75,29.2a6.67,6.67,0,0,0,6.45,5H204.5A102,102,0,0,0,12.87,86ZM57.43,61.12a6.68,6.68,0,0,1,6.68-6.68h76.1a6.3,6.3,0,0,1,6.3,6.3V62a19,19,0,0,1-2.18,8.83l-35.08,66.43a2.31,2.31,0,0,0,2,3.39h36.29a6.7,6.7,0,0,1,6.7,6.69v2a6.7,6.7,0,0,1-6.7,6.7H98.28a10.82,10.82,0,0,1-10.81-10.82v-.81a.78.78,0,0,1,.09-.37l37.33-70.74a2.39,2.39,0,0,0-2.11-3.51H64.11a6.68,6.68,0,0,1-6.68-6.68Z"/><path class="a" d="M78.77,178.88a7,7,0,0,1-5.94-3.2L26.3,101.87a5.59,5.59,0,0,0-4.72-2.61H11.2q-.19,3.1-.2,6.24a102,102,0,0,0,172.84,73.38Z"/></svg>