<svg xmlns="http://www.w3.org/2000/svg" viewBox="0 0 826 211"><defs><style>.a{fill:#fff;}</style></defs><path class="a" d="M224.69,57.32v1.55A23.05,23.05,0,0,1,222,69.66L179.09,151a2.82,2.82,0,0,0,2.5,4.14H226a8.19,8.19,0,0,1,8.19,8.19v2.47A8.2,8.2,0,0,1,226,174H165.66a13.24,13.24,0,0,1-13.24-13.24v-1a.93.93,0,0,1,.12-.46l45.69-86.58a2.92,2.92,0,0,0-2.59-4.29H123.83a8.17,8.17,0,0,1-8.17-8.17V57.78a8.17,8.17,0,0,1,8.17-8.17H217A7.71,7.71,0,0,1,224.69,57.32Z"/><path class="a" d="M279.1,175.81a45.53,45.53,0,0,1-17-3.19A40.65,40.65,0,0,1,248.57,164a39,39,0,0,1-8.77-12.87q-3.15-7.5-3.15-21.93t3.15-21.92a39,39,0,0,1,8.77-12.88q12.27-11.84,30.53-11.84a45.69,45.69,0,0,1,17,3.19,39.25,39.25,0,0,1,13.28,8.45,39.65,39.65,0,0,1,9,13.08q3.15,7.48,3.15,21.92T318.4,151.1a39.51,39.51,0,0,1-9,13.07Q297.4,175.81,279.1,175.81Zm-24.23-46.64q0,16.86,7.77,23.28a25.12,25.12,0,0,0,16.46,5.62q10.44,0,17.18-6.26,7.1-6.54,7.1-22.64t-7.1-22.6q-6.73-6.3-17.18-6.3a25.17,25.17,0,0,0-16.46,5.62Q254.87,112.31,254.87,129.17Z"/><path class="a" d="M343.52,174.06h-1.08a8.93,8.93,0,0,1-8.93-8.93V97.39a8.94,8.94,0,0,1,4.66-7.85,56.66,56.66,0,0,1,13.52-5.09,71.66,71.66,0,0,1,29.8-.73,8.93,8.93,0,0,1,7.39,8.79h0a8.91,8.91,0,0,1-10.45,8.79,55.66,55.66,0,0,0-9.68-.91,41.65,41.65,0,0,0-9.3,1,9,9,0,0,0-7,8.72v55.05A8.93,8.93,0,0,1,343.52,174.06Z"/><path class="a" d="M431,175.81a45.58,45.58,0,0,1-17-3.19A40.75,40.75,0,0,1,400.43,164a39.11,39.11,0,0,1-8.77-12.87q-3.15-7.5-3.15-21.93t3.15-21.92a39.15,39.15,0,0,1,8.77-12.88Q412.72,82.54,431,82.53a45.77,45.77,0,0,1,17,3.19,39.2,39.2,0,0,1,13.27,8.45,39.69,39.69,0,0,1,9,13.08q3.15,7.48,3.15,21.92t-3.15,21.93a39.54,39.54,0,0,1-9,13.07Q449.26,175.81,431,175.81Zm-24.24-46.64q0,16.86,7.77,23.28A25.13,25.13,0,0,0,431,158.07q10.44,0,17.18-6.26,7.1-6.54,7.09-22.64t-7.09-22.6q-6.75-6.3-17.18-6.3a25.18,25.18,0,0,0-16.47,5.62Q406.73,112.31,406.73,129.17Z"/><path class="a" d="M537.51,127,562,100.91a9.27,9.27,0,0,0-6.75-15.63h0a9.3,9.3,0,0,0-6.87,3L520.57,119V50.33a9.62,9.62,0,0,0-9.13-9.68,9.46,9.46,0,0,0-9.81,9.46V164.43a9.47,9.47,0,0,0,9.47,9.47h0a9.47,9.47,0,0,0,9.47-9.47v-29.2L549.8,170.5a9.39,9.39,0,0,0,7.23,3.4h0a9.39,9.39,0,0,0,7.15-15.48Z"/><path class="a" d="M646.2,96Q635.6,82.5,613.43,82.49a126.75,126.75,0,0,0-21.16,1.66A8.74,8.74,0,0,0,585,92.79h0a8.8,8.8,0,0,0,10.38,8.63,102.72,102.72,0,0,1,18-1.51,29.35,29.35,0,0,1,12.8,2.59,13.54,13.54,0,0,1,6.89,7.62H617.74q-17.22,0-28.74,8.57a29.55,29.55,0,0,0-8.33,9.45q-3,5.37-2.95,14.78t2.95,14.83a28.62,28.62,0,0,0,8.33,9.41q11.52,8.66,28.74,8.65,3.57,0,6.93-.3a31.73,31.73,0,0,0,28.78-31.65V119.21A43.12,43.12,0,0,0,652,107.89,31.56,31.56,0,0,0,646.2,96Zm-11.72,47.78a14.43,14.43,0,0,1-12.62,14.35,34.23,34.23,0,0,1-4.12.25q-9.5,0-14.87-3.07-6.18-3.54-6.18-13t6.14-12.52q4.5-2.19,14.91-2.19h16.74Z"/><path class="a" d="M687.29,84.37a56.66,56.66,0,0,0-13.52,5.09,8.92,8.92,0,0,0-4.66,7.85v67.74A8.92,8.92,0,0,0,678,174h1.09a8.92,8.92,0,0,0,8.92-8.93V110a9,9,0,0,1,7-8.72,41.65,41.65,0,0,1,9.3-1,55.66,55.66,0,0,1,9.68.91,8.91,8.91,0,0,0,10.45-8.79h0a8.93,8.93,0,0,0-7.39-8.79A71.65,71.65,0,0,0,687.29,84.37Z"/><path class="a" d="M802.07,85.05H757.36a5.27,5.27,0,0,1-5.27-5.27V67.05a8.42,8.42,0,0,0-8.43-8.43h-2.07a8.43,8.43,0,0,0-8.43,8.43v78.3q0,14.33,7.21,22.41t20.37,7.93H762c.5,0,1,0,1.39,0,1.09,0,2.13,0,3.11-.12h.08a8.3,8.3,0,0,0,7.74-8.31v-.94a8.41,8.41,0,0,0-8.84-8.42q-1.05.06-2.16.06-6.35,0-8.89-3.67-2.36-3.47-2.36-11.4V105.72a5.09,5.09,0,0,1,5.09-5.09h44.89a7.79,7.79,0,0,0,7.79-7.79h0A7.79,7.79,0,0,0,802.07,85.05Z"/><path class="a" d="M245.31,73H472.86a8.16,8.16,0,0,0,8.22-7.83,8,8,0,0,0-8-8.25H257.77a8.16,8.16,0,0,1-7.89-6.07L240.4,15.07a8,8,0,1,0-15.54,4.12L237.54,67A8,8,0,0,0,245.31,73Z"/><path class="a" d="M387,201.91H141.78a8.57,8.57,0,0,1-7.26-3.92l-57-90.33a6.82,6.82,0,0,0-5.78-3.19H24.48a8.13,8.13,0,1,1,0-16.24H80.34a8.58,8.58,0,0,1,7.26,3.92l54.65,86.68a14.65,14.65,0,0,0,12.4,6.84H387a8.13,8.13,0,1,1,0,16.24Z"/><path class="a" d="M795.53,53.75h-2.86V52.62h7.06v1.13h-2.86v7.83h-1.34Z"/><path class="a" d="M808.71,57.85c0-1.64,0-3.34,0-4.29h0c-.39,1.52-1.73,5.2-2.73,8h-1.17c-.76-2.32-2.15-6.46-2.55-8h0c.07,1,.1,3,.1,4.53v3.51h-1.24v-9h2c1,2.7,2.11,6.16,2.41,7.34h0c.21-.92,1.59-4.71,2.59-7.34H810v9h-1.29Z"/></svg>